<svg xmlns="http://www.w3.org/2000/svg" xmlns:xlink="http://www.w3.org/1999/xlink" width="300" height="300" viewBox="0 0 300 300">
  <defs>
    <clipPath id="clip-path">
      <rect id="Rectangle_255" data-name="Rectangle 255" width="287.454" height="300" fill="none"/>
    </clipPath>
    <clipPath id="clip-path-3">
      <rect id="Rectangle_252" data-name="Rectangle 252" width="18.142" height="10.437" fill="none"/>
    </clipPath>
    <clipPath id="clip-path-4">
      <rect id="Rectangle_253" data-name="Rectangle 253" width="36.727" height="25.702" fill="none"/>
    </clipPath>
  </defs>
  <g id="lead_image" data-name="lead image" transform="translate(-699 -51)">
    <rect id="Rectangle_347" data-name="Rectangle 347" width="300" height="300" transform="translate(699 51)" fill="none"/>
    <g id="icon" transform="translate(705 51)">
      <g id="Group_341" data-name="Group 341" clip-path="url(#clip-path)">
        <g id="Group_340" data-name="Group 340">
          <g id="Group_339" data-name="Group 339" clip-path="url(#clip-path)">
            <path id="Path_802" data-name="Path 802" d="M220.951,11.8q6.165,0,12.2.548a109.874,109.874,0,0,1,30.011,6.767,103.319,103.319,0,0,1,25.912,14.559.091.091,0,0,1,.02.016l.157.124a7.956,7.956,0,0,0,11.76-2.57,7.945,7.945,0,0,0-3.2-10.772,116.416,116.416,0,0,0-31.779-11.7,118.356,118.356,0,0,0-32.846-2.05,143.894,143.894,0,0,0-31.658,5.883q-1.579.485-3.109.985c1.062-.168,2.134-.328,3.227-.478a144.255,144.255,0,0,1,19.3-1.315" transform="translate(-55.898 -1.803)" fill="#fff"/>
            <path id="Path_803" data-name="Path 803" d="M308.559,181.711c-10.662-49.2-35.189-81.52-73.3-96.544a79.59,79.59,0,0,1,34.955,57.965c.244,2.371.364,4.787.394,7.193a12.265,12.265,0,0,1,10.392-.9c9.361,2.986,19.94,14.726,27.562,32.286" transform="translate(-66.275 -23.993)" fill="#fff"/>
            <path id="Path_804" data-name="Path 804" d="M246.044,60.3c-35.934-15.669-74.376-13.911-107.768,3.9a79.436,79.436,0,0,1,18.937-2.791c2,0,6.081.157,7.839.226l.644.025a79.4,79.4,0,0,1,11.74,1.186,2.292,2.292,0,0,1,1.08-.136C248.473,73.08,286.463,124.2,291.426,214.658a2.271,2.271,0,0,1-.052.356,148.863,148.863,0,0,1-.144,21.717,6.852,6.852,0,0,0,4.635,7.131,6.71,6.71,0,0,0,8.04-2.559c10.4-15,18.267-50.643,17.892-65.96C321.461,124.6,292.434,80.534,246.044,60.3" transform="translate(-38.954 -13.976)" fill="#fff"/>
            <path id="Path_805" data-name="Path 805" d="M45.254,251.215c3.03,2.107,6.812,1.935,8.426-.386L73.926,221.7c.019-.024.034-.049.052-.072l20.2-29.061c1.612-2.321.458-5.926-2.574-8.033s-6.81-1.937-8.424.384l-40.5,58.262c-1.612,2.321-.458,5.924,2.572,8.031" transform="translate(-11.819 -51.571)" fill="#fff"/>
            <path id="Path_806" data-name="Path 806" d="M125.49,194.5c-12.155.725-22.269,6.045-28.48,14.978l-25.1,36.111c-6.211,8.934-7.672,20.267-4.119,31.912A53.4,53.4,0,0,0,84.3,302.254l65.476-103.22A52.5,52.5,0,0,0,125.49,194.5" transform="translate(-18.562 -54.77)" fill="#fff"/>
            <path id="Path_807" data-name="Path 807" d="M7.562,189.534a32.684,32.684,0,0,0,13.221,17.237,26.8,26.8,0,0,0,9.147,3.611c.4.074.8.142,1.2.2a23.367,23.367,0,0,1-6.393-8.074,21.6,21.6,0,0,1-1.3-15.376,8.689,8.689,0,1,0-16.572.337Z" transform="translate(-1.805 -49.581)" fill="#fff"/>
            <path id="Path_808" data-name="Path 808" d="M72.07,170.148a53.843,53.843,0,0,1-4.28-21.85c0-29.676,20.262-48.852,51.62-48.852a55.418,55.418,0,0,1,49.005,29.434,95.259,95.259,0,0,1,4.943,13.135,5.922,5.922,0,0,0,6.557,3.854,6.136,6.136,0,0,0,4.965-6.714,14.873,14.873,0,0,0-.514-2.959,90.162,90.162,0,0,0-6.859-17.286,7.543,7.543,0,0,1,1.944-9.481,7.673,7.673,0,0,1,9.841-.032A41.354,41.354,0,0,1,202,127.632c.417,1.12,1.086,3.362,1.425,4.675,1.275,4.9,1.275,9.98,1.275,14.46a79.818,79.818,0,0,1-3.484,23.38c-.014.054-.027.108-.042.159-.111.357-.229.705-.343,1.051l-.173.521s0,.009,0,.014a5.324,5.324,0,0,0-.106,1.142,6.056,6.056,0,0,0,6.049,6.047,4.127,4.127,0,0,0,.581-.04,6.067,6.067,0,0,0,5-3.647,5.155,5.155,0,0,0,.222-.582,73.55,73.55,0,0,0,4.667-19.364,18.344,18.344,0,0,1,.267-3.223.044.044,0,0,1,0-.016c.083-1.551.121-3.008.121-4.465A75.059,75.059,0,0,0,144.3,72.694l-.689-.027c-1.58-.06-5.684-.2-7.594-.222A75.238,75.238,0,0,0,88.773,90.732a1.772,1.772,0,0,1-.22.207,123.356,123.356,0,0,0-11.375,12.4,74.437,74.437,0,0,0-14.352,44.152,72.648,72.648,0,0,0,5.4,28.183Z" transform="translate(-17.699 -20.409)" fill="#fff"/>
            <path id="Path_809" data-name="Path 809" d="M132.754,278.671l41.033,2.858-20.266-35.6Z" transform="translate(-37.399 -69.283)" fill="#fff"/>
            <path id="Path_810" data-name="Path 810" d="M174.258,300.818l-40.211-2.8L154.191,332.7Z" transform="translate(-37.763 -83.956)" fill="#fff"/>
            <path id="Path_811" data-name="Path 811" d="M232.474,361.278l31.2-44.884c2.328-3.346,1.592-8.341-1.789-12.141l-51.712-58.17-24.649,39.163c-.024.045-.035.095-.062.138s-.069.077-.1.119l-32.7,51.962,67.808,26.366c4.743,1.841,9.678.792,12.006-2.554" transform="translate(-43.006 -69.325)" fill="#fff"/>
            <path id="Path_812" data-name="Path 812" d="M134.827,366.123l7.016-11.147-36.99-1.148a59.723,59.723,0,0,0,7.5,3.556Z" transform="translate(-29.539 -99.678)" fill="#fff"/>
            <path id="Path_813" data-name="Path 813" d="M209.163,245.337l-41.2-1.281L187.914,279.1Z" transform="translate(-47.317 -68.754)" fill="#fff"/>
            <path id="Path_814" data-name="Path 814" d="M198.434,216.413A59.217,59.217,0,0,0,182.4,203.7l-15.457,24.366,43.04,1.337Z" transform="translate(-47.029 -57.385)" fill="#fff"/>
            <path id="Path_815" data-name="Path 815" d="M119.1,299.647,97.434,333.8,139.7,335.11Z" transform="translate(-27.449 -84.415)" fill="#fff"/>
            <path id="Path_816" data-name="Path 816" d="M220.951,11.8q6.165,0,12.2.548a109.874,109.874,0,0,1,30.011,6.767,103.319,103.319,0,0,1,25.912,14.559.091.091,0,0,1,.02.016l.157.124a7.956,7.956,0,0,0,11.76-2.57,7.945,7.945,0,0,0-3.2-10.772,116.416,116.416,0,0,0-31.779-11.7,118.356,118.356,0,0,0-32.846-2.05,143.894,143.894,0,0,0-31.658,5.883q-1.579.485-3.109.985c1.062-.168,2.134-.328,3.227-.478a144.255,144.255,0,0,1,19.3-1.315" transform="translate(-55.898 -1.803)" fill="#ccc"/>
            <path id="Path_817" data-name="Path 817" d="M235.256,85.167a79.587,79.587,0,0,1,34.955,57.965c.245,2.371.364,4.787.394,7.193a12.262,12.262,0,0,1,10.392-.9c9.361,2.985,19.94,14.725,27.562,32.285-10.662-49.2-35.189-81.52-73.3-96.544" transform="translate(-66.275 -23.993)" fill="#999"/>
            <path id="Path_818" data-name="Path 818" d="M94.771,184.971c-.2-.142-.419-.248-.629-.369L53.92,242.464c-1.612,2.321-.458,5.923,2.572,8.031.2.142.419.248.63.369l19.97-28.726c.018-.024.034-.049.052-.072L97.345,193c1.612-2.321.458-5.926-2.574-8.033" transform="translate(-14.985 -52.005)" fill="#ccc"/>
            <path id="Path_819" data-name="Path 819" d="M128.2,194.5c-12.155.725-22.269,6.045-28.48,14.978L79.457,238.639c-4.408,8.32-5.147,18.283-2.033,28.486a53.347,53.347,0,0,0,16.3,24.555l58.769-92.645A52.5,52.5,0,0,0,128.2,194.5" transform="translate(-21.276 -54.77)" fill="#ccc"/>
            <path id="Path_820" data-name="Path 820" d="M129.3,194.5c-12.155.725-22.269,6.045-28.48,14.978L80.552,238.639c-.424.8-.784,1.629-1.14,2.459l12.757-18.354c6.211-8.933,16.325-14.254,28.48-14.979a52.5,52.5,0,0,1,24.291,4.531l8.65-13.263A52.5,52.5,0,0,0,129.3,194.5" transform="translate(-22.372 -54.77)" fill="#999"/>
            <path id="Path_821" data-name="Path 821" d="M33.387,211.276a23.366,23.366,0,0,1-6.393-8.074,21.6,21.6,0,0,1-1.3-15.376,8.674,8.674,0,0,0-3.094-9.36,8.612,8.612,0,0,0-7.712,11.427l.7,2.068A32.683,32.683,0,0,0,28.811,209.2a27.161,27.161,0,0,0,3.786,1.949c.264.046.527.094.791.131" transform="translate(-4.067 -50.276)" fill="#ccc"/>
            <path id="Path_822" data-name="Path 822" d="M173.788,281.529l-20.266-35.6-20.766,32.738Z" transform="translate(-37.399 -69.283)" fill="#ed2f3c"/>
            <path id="Path_823" data-name="Path 823" d="M134.047,298.018,154.192,332.7l20.066-31.882Z" transform="translate(-37.763 -83.956)" fill="#ed2f3c"/>
            <path id="Path_824" data-name="Path 824" d="M264.373,304.3l-51.61-58.056-18.406,29.246c-.024.044-.035.095-.063.138s-.068.077-.1.119l-32.7,51.962L229.3,354.074c4.743,1.841,9.679.792,12.007-2.554l25.811-37.13c.97-3.14,0-7-2.743-10.091" transform="translate(-45.494 -69.37)" fill="#ccc"/>
            <path id="Path_825" data-name="Path 825" d="M281.336,304.3l-51.61-58.056L221.7,258.988l51.558,58a11.258,11.258,0,0,1,3.038,8.595l7.779-11.19c.97-3.14,0-7-2.743-10.091" transform="translate(-62.457 -69.37)" fill="#999"/>
            <path id="Path_826" data-name="Path 826" d="M167.962,244.056,187.915,279.1l21.248-33.761Z" transform="translate(-47.317 -68.754)" fill="#ed2f3c"/>
            <path id="Path_827" data-name="Path 827" d="M166.939,228.063l43.04,1.336-11.545-12.986A59.243,59.243,0,0,0,182.4,203.7Z" transform="translate(-47.029 -57.384)" fill="#ed2f3c"/>
            <path id="Path_828" data-name="Path 828" d="M129.713,334.719l12.579.391-20.6-35.462-15.047,23.72Z" transform="translate(-30.043 -84.415)" fill="#ed2f3c"/>
            <path id="Path_829" data-name="Path 829" d="M283.907,77.826c-44.2-25.851-86.97-16.887-100.753-12.886,2.333.2,4.648.478,6.924.878a2.293,2.293,0,0,1,1.08-.135c69.958,10.363,107.949,61.485,112.912,151.94a2.105,2.105,0,0,1-.052.356,148.743,148.743,0,0,1-.144,21.717,6.853,6.853,0,0,0,4.635,7.131,6.71,6.71,0,0,0,8.041-2.559c10.4-15,18.267-50.643,17.892-65.961-.271-40.781-19.083-77.234-50.534-100.483" transform="translate(-51.597 -16.942)" fill="#ccc"/>
            <path id="Path_830" data-name="Path 830" d="M74.759,148.266l.143.373c.381-.939.826-1.832,1.262-2.73-.471.786-.945,1.571-1.4,2.357" transform="translate(-21.061 -41.105)" fill="#e7f4f6"/>
            <path id="Path_831" data-name="Path 831" d="M206.8,102.965C140.5,60,106.1,86.238,84.025,119.178c8.948-11.066,23.3-17.455,41.357-17.455a55.416,55.416,0,0,1,49,29.433,95.136,95.136,0,0,1,4.943,13.136,5.923,5.923,0,0,0,6.557,3.854,6.136,6.136,0,0,0,4.965-6.714,14.919,14.919,0,0,0-.514-2.958,90.16,90.16,0,0,0-6.86-17.286,7.544,7.544,0,0,1,1.944-9.481,7.673,7.673,0,0,1,9.841-.031,41.346,41.346,0,0,1,12.713,18.233c.417,1.12,1.087,3.362,1.426,4.675,1.275,4.9,1.275,9.98,1.275,14.46a79.842,79.842,0,0,1-3.484,23.38c-.014.054-.027.108-.043.159-.11.357-.228.7-.343,1.05l-.172.521c0,.005,0,.009-.005.014a5.323,5.323,0,0,0-.106,1.143,6.056,6.056,0,0,0,6.049,6.047,4.033,4.033,0,0,0,.582-.04,6.068,6.068,0,0,0,5-3.647,5.373,5.373,0,0,0,.222-.581,73.556,73.556,0,0,0,4.667-19.365,18.2,18.2,0,0,1,.267-3.223.046.046,0,0,1,0-.016c.083-1.551.121-3.007.121-4.464a74.809,74.809,0,0,0-16.63-47.056" transform="translate(-23.671 -22.686)" fill="#ccc"/>
            <path id="Path_832" data-name="Path 832" d="M247.071,140.357c.417,1.12,1.087,3.362,1.425,4.675,1.275,4.9,1.275,9.98,1.275,14.46a79.817,79.817,0,0,1-3.484,23.38c-.013.054-.027.108-.042.159-.11.357-.229.7-.344,1.05l-.173.521c0,.005,0,.009,0,.014a5.333,5.333,0,0,0-.106,1.143,6.056,6.056,0,0,0,6.049,6.047c-6.049-6.047,8.386-22.1.313-50.356-7.584-26.546-26.871-28.66-29.18-17.343a7.9,7.9,0,0,1,1.716-1.951,7.672,7.672,0,0,1,9.84-.032,41.35,41.35,0,0,1,12.714,18.233" transform="translate(-62.766 -33.135)" fill="#999"/>
            <path id="Path_833" data-name="Path 833" d="M320.426,250.993a6.71,6.71,0,0,0,8.04-2.559c10.4-15,18.267-50.643,17.892-65.96a130.468,130.468,0,0,0-2.594-24.914c-2.527,51.854-16.782,98.971-29.909,11.075-11.042-73.937-69.215-90.3-88.4-93.713,55.687,17.324,86.125,66.591,90.529,146.867a2.253,2.253,0,0,1-.052.356,148.846,148.846,0,0,1-.144,21.717,6.853,6.853,0,0,0,4.635,7.131" transform="translate(-63.514 -21.107)" fill="#999"/>
            <g id="Group_335" data-name="Group 335" transform="translate(143.704 176.019)" style="mix-blend-mode: multiply;isolation: isolate">
              <g id="Group_334" data-name="Group 334">
                <g id="Group_333" data-name="Group 333" clip-path="url(#clip-path-3)">
                  <path id="Path_834" data-name="Path 834" d="M218.207,245.618l-18.143-.564,11.929,10.437Z" transform="translate(-200.065 -245.054)" fill="#ed2f3c"/>
                </g>
              </g>
            </g>
            <g id="Group_338" data-name="Group 338" transform="translate(126.224 146.313)" style="mix-blend-mode: multiply;isolation: isolate">
              <g id="Group_337" data-name="Group 337">
                <g id="Group_336" data-name="Group 336" clip-path="url(#clip-path-4)">
                  <path id="Path_835" data-name="Path 835" d="M187.757,228.633l24.7.767-11.545-12.987A59.233,59.233,0,0,0,184.871,203.7l-9.142,14.412Z" transform="translate(-175.729 -203.698)" fill="#ed2f3c"/>
                </g>
              </g>
            </g>
            <path id="Path_836" data-name="Path 836" d="M285.808,247.1a12.066,12.066,0,0,1-4.056-.718,11.329,11.329,0,0,1-7.674-11.829c4.175-52.25-20.156-88.04-34.37-92.575-4.109-1.311-7.286-.15-9.43,3.441a2.3,2.3,0,0,1-3.945-2.357c3.239-5.435,8.626-7.421,14.774-5.464,18.458,5.888,41.674,45.761,37.555,97.323a6.853,6.853,0,0,0,4.635,7.131,6.711,6.711,0,0,0,8.04-2.559c10.4-15,18.267-50.643,17.892-65.961-.337-50.744-29.364-94.809-75.754-115.039-46.6-20.318-97.419-11.363-135.966,23.953a2.3,2.3,0,0,1-3.107-3.39c39.925-36.581,92.6-45.842,140.911-24.777,48.08,20.967,78.162,66.634,78.512,119.181.386,15.807-7.474,52.444-18.709,68.649a11.232,11.232,0,0,1-9.308,4.99" transform="translate(-26.384 -12.163)"/>
            <path id="Path_837" data-name="Path 837" d="M204.8,181.874a10.657,10.657,0,0,1-10.646-10.644,10.044,10.044,0,0,1,.184-1.988,2.283,2.283,0,0,1,.085-.391l.254-.768c.09-.265.18-.529.265-.8.014-.054.027-.1.04-.152a75.187,75.187,0,0,0,3.324-22.166c0-4.411,0-8.972-1.126-13.3-.305-1.18-.934-3.284-1.284-4.226a36.808,36.808,0,0,0-11.277-16.247,3.1,3.1,0,0,0-4.058,0,2.973,2.973,0,0,0-.77,3.818A94.8,94.8,0,0,1,187,133.177a19.62,19.62,0,0,1,.669,3.869,10.7,10.7,0,0,1-8.866,11.564,10.458,10.458,0,0,1-11.6-6.922,2.408,2.408,0,0,1-.1-.38,97.248,97.248,0,0,0-4.545-12.069,50.832,50.832,0,0,0-44.949-27c-29,0-47.023,16.958-47.023,44.255a49.283,49.283,0,0,0,4.027,20.338,2.3,2.3,0,0,1-4.2,1.859,53.73,53.73,0,0,1-4.422-22.2c0-29.676,20.263-48.852,51.62-48.852a55.417,55.417,0,0,1,49.005,29.434,95.266,95.266,0,0,1,4.943,13.135,5.922,5.922,0,0,0,6.556,3.854,6.137,6.137,0,0,0,4.966-6.714,14.99,14.99,0,0,0-.514-2.959,90.219,90.219,0,0,0-6.86-17.285,7.544,7.544,0,0,1,1.944-9.481,7.673,7.673,0,0,1,9.84-.032A41.354,41.354,0,0,1,200.2,125.829c.417,1.12,1.086,3.362,1.425,4.675,1.275,4.9,1.275,9.98,1.275,14.46a79.818,79.818,0,0,1-3.484,23.38c-.013.054-.027.108-.042.159-.11.357-.229.705-.343,1.051l-.173.521s0,.009,0,.014a5.324,5.324,0,0,0-.106,1.142,6.056,6.056,0,0,0,6.049,6.047,4.127,4.127,0,0,0,.581-.04,6.067,6.067,0,0,0,5-3.647,5.317,5.317,0,0,0,.223-.582,73.576,73.576,0,0,0,4.667-19.364,18.207,18.207,0,0,1,.267-3.223.043.043,0,0,1,0-.016c.083-1.551.121-3.008.121-4.465A75.059,75.059,0,0,0,142.5,70.891l-.689-.027c-1.58-.06-5.683-.2-7.594-.222A75.237,75.237,0,0,0,86.971,88.929a1.776,1.776,0,0,1-.221.207,123.353,123.353,0,0,0-11.376,12.4,74.442,74.442,0,0,0-14.352,44.152,72.169,72.169,0,0,0,6.783,31.349,2.3,2.3,0,0,1-4.162,1.952,76.687,76.687,0,0,1-7.219-33.3,79.073,79.073,0,0,1,15.3-46.946,128.493,128.493,0,0,1,11.78-12.864,3.817,3.817,0,0,1,.469-.435,79.874,79.874,0,0,1,50.181-19.4c2,0,6.08.157,7.838.227l.644.024a79.638,79.638,0,0,1,77.614,79.644c0,1.61-.044,3.216-.136,4.806a2.322,2.322,0,0,1-.1.664,15.422,15.422,0,0,0-.157,2.119c0,.094,0,.325-.007.419a77.807,77.807,0,0,1-4.933,20.615,8.581,8.581,0,0,1-.337.878,10.606,10.606,0,0,1-8.622,6.355,8.031,8.031,0,0,1-1.165.078" transform="translate(-15.896 -18.606)"/>
            <path id="Path_838" data-name="Path 838" d="M33.008,213.634a30.654,30.654,0,0,1-5.741-.539,31.425,31.425,0,0,1-10.72-4.227A37.345,37.345,0,0,1,1.4,189.2l-.7-2.065a13.285,13.285,0,0,1,18.489-16.148,13.292,13.292,0,0,1,6.853,15.636,17.246,17.246,0,0,0,1.042,12.123,21.117,21.117,0,0,0,11.272,10.125,2.3,2.3,0,0,1-.527,4.4,31.85,31.85,0,0,1-4.824.368M13.3,174.194a8.7,8.7,0,0,0-8.24,11.47l.7,2.067a32.68,32.68,0,0,0,13.221,17.236,26.769,26.769,0,0,0,9.147,3.611c.4.075.8.141,1.2.2a23.358,23.358,0,0,1-6.393-8.074,21.6,21.6,0,0,1-1.3-15.376A8.7,8.7,0,0,0,13.3,174.194" transform="translate(0 -47.777)"/>
            <path id="Path_839" data-name="Path 839" d="M282.549,38.2a12.549,12.549,0,0,1-7.561-2.548c-.009-.006-.139-.108-.177-.139A98.817,98.817,0,0,0,250.048,21.6a105.46,105.46,0,0,0-28.769-6.474,135.948,135.948,0,0,0-30.464.743c-11.607,1.6-21.369,4.2-29.838,7.921a2.3,2.3,0,0,1-2.175-4.034c8.249-5.34,18.04-9.705,29.932-13.346A148.74,148.74,0,0,1,221.413.334a123.073,123.073,0,0,1,34.111,2.139,120.965,120.965,0,0,1,33.022,12.155,12.542,12.542,0,0,1-6,23.568M209.494,10q6.165,0,12.2.548a109.875,109.875,0,0,1,30.011,6.767A103.323,103.323,0,0,1,277.62,31.871a.1.1,0,0,1,.02.016l.157.124a7.956,7.956,0,0,0,11.76-2.57,7.945,7.945,0,0,0-3.2-10.772,116.416,116.416,0,0,0-31.779-11.7,118.357,118.357,0,0,0-32.846-2.05,143.894,143.894,0,0,0-31.658,5.883q-1.579.485-3.109.985c1.062-.168,2.134-.328,3.227-.478A144.256,144.256,0,0,1,209.494,10" transform="translate(-44.441 0)"/>
            <path id="Path_840" data-name="Path 840" d="M198.853,352.967a17.4,17.4,0,0,1-6.3-1.21L97.9,314.955c-17.58-6.835-31.155-21.006-36.316-37.91-3.973-13.021-2.289-25.763,4.741-35.878l25.1-36.109c7.032-10.116,18.39-16.134,31.981-16.944,17.627-1.062,35.654,6.731,48.185,20.83l67.474,75.9c4.8,5.391,5.674,12.72,2.13,17.82L210,347.544a13.315,13.315,0,0,1-11.146,5.423M95.2,207.679,70.1,243.79c-6.21,8.934-7.672,20.267-4.119,31.912,4.752,15.569,17.306,28.64,33.584,34.969l94.649,36.8c4.743,1.841,9.679.793,12.006-2.554l31.2-44.883c2.328-3.347,1.592-8.341-1.789-12.141L168.162,212c-11.6-13.052-28.229-20.273-44.477-19.294-12.155.725-22.269,6.045-28.48,14.978" transform="translate(-16.756 -52.967)"/>
            <path id="Path_841" data-name="Path 841" d="M47.882,255.471a12.414,12.414,0,0,1-7.049-2.274c-5.111-3.553-6.781-10.027-3.724-14.428l40.5-58.262v0c3.063-4.4,9.713-5.086,14.823-1.536S99.217,189,96.16,193.4L75.913,222.527c-.018.024-.034.049-.052.072L55.66,251.66a9.283,9.283,0,0,1-7.778,3.811m33.5-72.342-40.5,58.262c-1.612,2.321-.458,5.924,2.572,8.031s6.813,1.935,8.426-.386l20.247-29.124c.018-.024.034-.049.052-.072l20.2-29.061c1.612-2.321.458-5.926-2.574-8.033s-6.81-1.937-8.424.383" transform="translate(-10.024 -49.779)"/>
            <path id="Path_842" data-name="Path 842" d="M91.3,308.824a2.3,2.3,0,0,1-1.939-3.531l67.992-107.185a2.3,2.3,0,1,1,3.883,2.464L93.24,307.758a2.3,2.3,0,0,1-1.944,1.066" transform="translate(-25.072 -55.509)"/>
            <path id="Path_843" data-name="Path 843" d="M141.693,322.321h-.072l-49.31-1.531a2.3,2.3,0,1,1,.144-4.6l45.171,1.4-22.117-38.074a2.29,2.29,0,0,1,.036-2.368,2.325,2.325,0,0,1,2.11-1.08l44.111,3.073L140,240.918a2.3,2.3,0,0,1,.029-2.324,2.416,2.416,0,0,1,2.041-1.113l49.31,1.531a2.3,2.3,0,0,1,2.227,2.37,2.373,2.373,0,0,1-2.37,2.227L146.022,242.2l21.862,38.4a2.3,2.3,0,0,1-2.157,3.432l-44.066-3.068,22.018,37.905a2.3,2.3,0,0,1-1.987,3.452" transform="translate(-25.378 -66.902)"/>
            <path id="Path_844" data-name="Path 844" d="M147.143,338.891a2.3,2.3,0,0,1-1.944-3.522l59.59-94.681a2.3,2.3,0,1,1,3.892,2.447l-59.59,94.68a2.3,2.3,0,0,1-1.949,1.075" transform="translate(-40.805 -67.503)"/>
            <path id="Path_845" data-name="Path 845" d="M303.878,222.214a2.3,2.3,0,0,1-2.292-2.173c-4.828-87.971-41.5-137.645-109-147.644a2.3,2.3,0,0,1,.673-4.548c69.958,10.363,107.949,61.485,112.912,151.941a2.3,2.3,0,0,1-2.168,2.42,1.261,1.261,0,0,1-.128,0" transform="translate(-53.702 -19.108)"/>
          </g>
        </g>
      </g>
    </g>
  </g>
</svg>