<svg xmlns="http://www.w3.org/2000/svg" xmlns:xlink="http://www.w3.org/1999/xlink" width="300" height="300" viewBox="0 0 300 300">
  <defs>
    <clipPath id="clip-path">
      <rect id="Rectangle_188" data-name="Rectangle 188" width="300" height="293.11" fill="none"/>
    </clipPath>
    <clipPath id="clip-path-3">
      <rect id="Rectangle_186" data-name="Rectangle 186" width="116.887" height="99.462" fill="none"/>
    </clipPath>
  </defs>
  <g id="lead_image" data-name="lead image" transform="translate(-1022 -703)">
    <rect id="Rectangle_356" data-name="Rectangle 356" width="300" height="300" transform="translate(1022 703)" fill="none"/>
    <g id="icon" transform="translate(1022 706)">
      <g id="Group_172" data-name="Group 172" clip-path="url(#clip-path)">
        <g id="Group_171" data-name="Group 171">
          <g id="Group_170" data-name="Group 170" clip-path="url(#clip-path)">
            <path id="Path_361" data-name="Path 361" d="M24.588,194.9a2.55,2.55,0,0,1,1.589,3.829,18.608,18.608,0,0,0-2.785,9.824,18.382,18.382,0,0,0,18.279,18.443,18.158,18.158,0,0,0,12.073-4.6,2.576,2.576,0,0,1,1.846-.638,2.547,2.547,0,0,1,1.758.854,14.8,14.8,0,0,1-4.8,23.244,17.082,17.082,0,0,0,20.207-8.58,479.522,479.522,0,0,1-25.947-43.9A31.377,31.377,0,0,1,31.8,185.059a32.071,32.071,0,0,1-9.361-19.734c-.053-.446-.083-.922-.113-1.424-.415-4.828-.691-9.549-.857-14.2a23.752,23.752,0,0,0,3.124,45.2" transform="translate(-1.298 -30.37)" fill="#fff"/>
            <path id="Path_362" data-name="Path 362" d="M217.915,97.633a96.812,96.812,0,0,1-.54,10.121c-.218,1.947-.487,3.856-.812,5.761a40.832,40.832,0,0,1-2.921,8.633c-.018.056-.008.113-.03.168a16.4,16.4,0,0,1-1.8,3.332,40.863,40.863,0,0,1-35.074,20.315,40.633,40.633,0,0,1-33.4-17.538,16.731,16.731,0,0,1-2.387-4.216,20.722,20.722,0,0,1-4.226,2.975,52.238,52.238,0,0,0-16.17,13.135,2.55,2.55,0,1,1-3.936-3.244,57.249,57.249,0,0,1,17.741-14.413,16.137,16.137,0,0,0,8.609-14.094A53.317,53.317,0,0,0,129.766,73.31a.248.248,0,0,0-.337-.077.406.406,0,0,0-.27.435q.106,1.969.106,3.969a74.417,74.417,0,0,1-23.985,54.727c-.043.04-.1.051-.144.087a2.44,2.44,0,0,1-.442.268,2.515,2.515,0,0,1-.4.188,2.473,2.473,0,0,1-.737.2c-28.442,6.085-41.014,22.059-41.083,31.868,16.8,32.956,42.108,68.36,60.442,92.32,2.654,3.415,5.149,6.579,7.406,9.441l1.159,1.469c.157.172.407.481.624.765a18.752,18.752,0,0,0,14.71,7.052,18.954,18.954,0,0,0,13.9-6.138c-2.957-1.136-6.962-3.753-10.136-9.8a2.55,2.55,0,1,1,4.516-2.371c3.035,5.776,6.73,7.355,8.684,7.787a19.156,19.156,0,0,0,1.036-2.391,2.736,2.736,0,0,1,.226-.583c2.481-6.445,3.611-9.824,4.118-11.489-3.315-2.774-11.817-10.387-13.952-17.2a2.55,2.55,0,1,1,4.867-1.524c1.343,4.285,6.586,9.7,10.433,13.148a17.8,17.8,0,0,0-3.852-14l-.178-.21a8.284,8.284,0,0,1-.557-.7,1.469,1.469,0,0,1-.2-.234c-7.857-9.7-8.593-17.626-9.213-30.784a63,63,0,0,0-17.684-43.845,2.551,2.551,0,0,1,3.661-3.552,68.1,68.1,0,0,1,19.122,47.277c.179,3.774.363,7.034.73,9.994a42.016,42.016,0,0,0,17.36-1.741,2.612,2.612,0,0,1,3.253,1.539,42.252,42.252,0,0,0,34.963,27.611.232.232,0,0,1,.041,0,26.1,26.1,0,0,1,24.481,26.14c0,.226-.011.459-.016.693,0,.027.016.049.016.077,0,.131-.02.25-.025.37,0,.082,0,.167-.006.248-.161,4.69-.438,9.318-.848,14.074-.513,5.682-1.1,9.979-1.57,12.9,7.6-3.39,24.645-12.914,40.363-35.141.257-.332.41-.553.564-.775a48.755,48.755,0,0,0,9.107-28.44,36.5,36.5,0,0,1-14.3,2.9c-.831,0-1.656-.03-2.473-.082a2.551,2.551,0,1,1,.333-5.092c.706.048,1.421.073,2.14.073A32.177,32.177,0,0,0,300.3,172.211a2.552,2.552,0,0,1-.111-3.086,38.227,38.227,0,0,0-15.256-56.995,48.548,48.548,0,0,1-14.715,22.336,2.55,2.55,0,1,1-3.32-3.872A43.522,43.522,0,0,0,239,54.035c-1.261,0-2.52.07-3.774.18a47.915,47.915,0,0,1,1.789,11.725,2.551,2.551,0,0,1-2.491,2.611h-.06a2.55,2.55,0,0,1-2.548-2.491c-.54-23.386-19.862-42.41-43.07-42.41a43.1,43.1,0,0,0-6.785.556,92.959,92.959,0,0,1,35.852,73.427m-99.2,111.906a2.55,2.55,0,0,1-3.224,1.619l-8.442-2.8a11.1,11.1,0,0,1-7.119-7.344l-4.376-14.57a2.55,2.55,0,1,1,4.885-1.469l1.669,5.557a10.425,10.425,0,0,1,4.553-.114,10.572,10.572,0,0,1,7.467,14.913l2.969.984a2.551,2.551,0,0,1,1.618,3.224" transform="translate(-12.674 -4.798)" fill="#fff"/>
            <path id="Path_363" data-name="Path 363" d="M116.117,239.113a5.332,5.332,0,0,0-2.067.029l1.23,4.1a6,6,0,0,0,3.84,3.971l.55.182a5.45,5.45,0,0,0-3.553-8.278" transform="translate(-23.137 -48.491)" fill="#fff"/>
            <path id="Path_364" data-name="Path 364" d="M157.075,131.544a22.8,22.8,0,0,0,36.56-7.711l0-.01c.018-.045.035-.089.054-.132a22.126,22.126,0,0,0,1.794-7.263,51.41,51.41,0,0,0,.572-7.458A45.987,45.987,0,0,0,182.528,76.2a45.247,45.247,0,0,0-32.289-13.432c-25.263,0-45.818,20.729-45.818,46.2a46.024,46.024,0,0,0,7.8,25.754,69.333,69.333,0,0,0,20.453-49.149q0-1.858-.1-3.7a5.48,5.48,0,0,1,3.439-5.435,5.335,5.335,0,0,1,6.1,1.438,58.327,58.327,0,0,1,14.475,38.495,21.266,21.266,0,0,1-3.88,12.076c1.468.387,2.979,1.79,4.371,3.092" transform="translate(-21.184 -12.733)" fill="#fff"/>
            <path id="Path_365" data-name="Path 365" d="M36.971,115.184c7.688-4.984,17.9-5.695,24.143-4.245a2.55,2.55,0,1,1-1.156,4.967c-5.384-1.248-14.055-.433-20.212,3.56A16.062,16.062,0,0,0,32.4,130.195a2.386,2.386,0,0,1-.148.385c.095,1.3.137,2.564.25,3.882.029.471.052.847.1,1.246a27.006,27.006,0,0,0,7.872,16.65,26.363,26.363,0,0,0,10.835,6.45c1.858-12.352,16.079-26.959,41.432-33.363a51.077,51.077,0,0,1-8.211-27.912c0-28.291,22.843-51.3,50.92-51.3a50.313,50.313,0,0,1,35.9,14.931,51.046,51.046,0,0,1,15.02,36.374,54.1,54.1,0,0,1-.607,7.994h0a27.207,27.207,0,0,1-2.146,8.681,2.87,2.87,0,0,1-.129.306,27.93,27.93,0,0,1-34.925,15.26,35.234,35.234,0,0,0,45.456-1.495c-.215.008-.44.035-.651.035a16.65,16.65,0,0,1-4.553-.613,2.551,2.551,0,0,1,1.428-4.9c.8.226,7.18,1.818,10.911-3.218a35.562,35.562,0,0,0,4.122-10.535c.288-1.7.544-3.512.75-5.35.273-2.6.409-5.2.462-7.776a11.493,11.493,0,0,1-5.365,3.026,2.522,2.522,0,0,1-.541.057,2.551,2.551,0,0,1-.536-5.044c.7-.169,7.016-2.022,5.421-12.739a2.513,2.513,0,0,1,.032-.621,87.433,87.433,0,0,0-5.152-18.9,15.63,15.63,0,0,1-3.728,6.744,2.55,2.55,0,1,1-3.515-3.7c.223-.222,5.827-5.954.438-16.533-.037-.076-.034-.158-.065-.236A88.254,88.254,0,0,0,178.391,29.6a20.424,20.424,0,0,1-1.762,9.586A2.551,2.551,0,0,1,172.019,37c.159-.345,3.709-8.179-1.508-13.89A86.453,86.453,0,0,0,143.959,9.948,19.964,19.964,0,0,1,146.9,21.654a2.549,2.549,0,0,1-2.54,2.361c-.064,0-.128,0-.191-.007a2.552,2.552,0,0,1-2.355-2.733c.086-1.311.428-12.646-12.041-14.246A86.751,86.751,0,0,0,119.512,6.4,84.956,84.956,0,0,0,98.143,9.145a23.825,23.825,0,0,1,12.316,8.526,2.551,2.551,0,0,1-4.239,2.839c-.277-.407-7.075-9.963-21.644-6.6A88.378,88.378,0,0,0,56.453,33.954C63.669,32.81,71.415,35,76.594,37.9A2.55,2.55,0,1,1,74.1,42.352c-4.7-2.627-17.95-7.193-25.5,1.189A87.117,87.117,0,0,0,34.134,77.278c6.721-5.687,16.727-7.542,25.476-6.073a2.551,2.551,0,1,1-.844,5.031c-8.253-1.381-21.919.574-26.055,11.548a233.769,233.769,0,0,0-1.039,32.174,22.356,22.356,0,0,1,5.3-4.775" transform="translate(-6.395 -1.298)" fill="#fff"/>
            <path id="Path_366" data-name="Path 366" d="M79.276,263.868c-1.727,0,1.605.493,0,0" transform="translate(-15.979 -53.531)" fill="#e7f4f6"/>
            <path id="Path_367" data-name="Path 367" d="M49.081,193.377a31.375,31.375,0,0,1-15.012-8.317,32.07,32.07,0,0,1-9.361-19.734c-.053-.446-.084-.922-.114-1.425-.415-4.828-.691-9.549-.857-14.2-.453.175-.864.414-1.3.617a23.712,23.712,0,0,0,13.354,37.408,2.55,2.55,0,0,1,1.589,3.829,18.608,18.608,0,0,0-2.784,9.825,18.382,18.382,0,0,0,18.279,18.444,18.1,18.1,0,0,0,7.1-1.466c.151-.126.31-.24.458-.371A2.535,2.535,0,0,1,61.9,217.4c.154-.088.31-.17.461-.262-4.756-7.927-9.259-15.908-13.28-23.762" transform="translate(-3.571 -30.37)" fill="#999"/>
            <path id="Path_368" data-name="Path 368" d="M119.67,247.391a5.45,5.45,0,0,0-3.553-8.278,5.336,5.336,0,0,0-2.068.029l1.231,4.1a6,6,0,0,0,3.84,3.971Z" transform="translate(-23.137 -48.491)" fill="#fff"/>
            <path id="Path_369" data-name="Path 369" d="M157.075,131.544a22.8,22.8,0,0,0,36.56-7.711l0-.01c.018-.045.035-.089.054-.132a22.126,22.126,0,0,0,1.794-7.263,51.41,51.41,0,0,0,.572-7.458A45.987,45.987,0,0,0,182.528,76.2a45.247,45.247,0,0,0-32.289-13.432c-25.263,0-45.818,20.729-45.818,46.2a46.024,46.024,0,0,0,7.8,25.754,69.333,69.333,0,0,0,20.453-49.149q0-1.858-.1-3.7a5.48,5.48,0,0,1,3.439-5.435,5.335,5.335,0,0,1,6.1,1.438,58.327,58.327,0,0,1,14.475,38.495,21.266,21.266,0,0,1-3.88,12.076c1.468.387,2.979,1.79,4.371,3.092" transform="translate(-21.184 -12.733)" fill="#999"/>
            <path id="Path_370" data-name="Path 370" d="M204.778,101.024a2.514,2.514,0,0,1-.54.057,2.551,2.551,0,0,1-.536-5.044c.7-.17,7.016-2.023,5.421-12.739a2.487,2.487,0,0,1,.032-.622A87.478,87.478,0,0,0,204,63.772a15.633,15.633,0,0,1-3.728,6.744,2.55,2.55,0,1,1-3.515-3.7c.222-.222,5.828-5.954.438-16.532a2.308,2.308,0,0,1-.066-.236,88.212,88.212,0,0,0-15.083-18.378,20.438,20.438,0,0,1-1.763,9.586,2.551,2.551,0,0,1-4.609-2.187c.159-.344,3.709-8.179-1.507-13.889-1.212-.888-2.457-1.734-3.716-2.559a129.646,129.646,0,0,0-20.426-4.805,19.725,19.725,0,0,1,.536,5.908,2.551,2.551,0,0,1-2.541,2.361c-.064,0-.127,0-.19-.007a2.551,2.551,0,0,1-2.356-2.733,15.811,15.811,0,0,0-.993-6.218,94.852,94.852,0,0,0-30.981,1.81c.336.415.569.733.617.8a2.552,2.552,0,0,1-4.24,2.84,14.554,14.554,0,0,0-1.939-2.136,80.064,80.064,0,0,0-31.117,17.9,32.378,32.378,0,0,1,3.431,1.629,2.55,2.55,0,1,1-2.494,4.45,28.907,28.907,0,0,0-4.932-2.11A81.013,81.013,0,0,0,54.794,72.935a35.607,35.607,0,0,1,8.474.344,2.551,2.551,0,1,1-.844,5.031,31.58,31.58,0,0,0-9.118-.105c-.344,1.427-.654,2.855-.908,4.281-2.19,12.3-3.254,22.44-2.7,30.944a33.861,33.861,0,0,1,15.07-.417,2.55,2.55,0,1,1-1.156,4.968,28.778,28.778,0,0,0-13.322.584c1.693,10.458,6.512,18.159,15.68,24.237,6.993-6.338,17.173-11.935,30.426-15.283a51.07,51.07,0,0,1-8.211-27.912c0-28.291,22.843-51.3,50.92-51.3a50.308,50.308,0,0,1,35.9,14.931,51.047,51.047,0,0,1,15.021,36.374,54.1,54.1,0,0,1-.607,7.994h0a27.22,27.22,0,0,1-2.147,8.681,3.051,3.051,0,0,1-.129.307,27.931,27.931,0,0,1-34.926,15.259,35.235,35.235,0,0,0,45.456-1.495c-.215.008-.439.035-.651.035a16.659,16.659,0,0,1-4.553-.613,2.55,2.55,0,1,1,1.428-4.9c.8.226,7.18,1.818,10.911-3.219a35.557,35.557,0,0,0,4.122-10.534c.288-1.7.544-3.512.749-5.351.274-2.6.41-5.2.462-7.776a11.482,11.482,0,0,1-5.365,3.026" transform="translate(-10.053 -3.371)" fill="#ed2f3c"/>
            <g id="Group_169" data-name="Group 169" transform="translate(68.811 32.8)" style="mix-blend-mode: multiply;isolation: isolate">
              <g id="Group_168" data-name="Group 168">
                <g id="Group_167" data-name="Group 167" clip-path="url(#clip-path-3)">
                  <path id="Path_371" data-name="Path 371" d="M203.21,99.591a58.444,58.444,0,1,0-105.459,34.7c1.967-.646,3.982-1.259,6.108-1.8a51.078,51.078,0,0,1-8.211-27.912c0-28.291,22.843-51.3,50.92-51.3a50.308,50.308,0,0,1,35.9,14.931,51.047,51.047,0,0,1,15.021,36.374,54.206,54.206,0,0,1-.607,7.994h0a27.226,27.226,0,0,1-2.147,8.681,3.032,3.032,0,0,1-.129.306,27.931,27.931,0,0,1-34.926,15.26c.669.526,1.38.993,2.084,1.469,27.931,9.6,41.448-12.081,41.448-38.7" transform="translate(-86.323 -41.147)" fill="#ed2f3c"/>
                </g>
              </g>
            </g>
            <path id="Path_372" data-name="Path 372" d="M275.566,224.694c.706.048,1.421.073,2.14.073a32.177,32.177,0,0,0,24.568-52.556,2.552,2.552,0,0,1-.111-3.086,38.227,38.227,0,0,0-15.256-56.995,48.548,48.548,0,0,1-14.715,22.336,2.55,2.55,0,1,1-3.32-3.872,43.522,43.522,0,0,0-27.891-76.559c-1.261,0-2.52.07-3.774.18A47.919,47.919,0,0,1,239,65.94a2.551,2.551,0,0,1-2.491,2.611h-.06A2.55,2.55,0,0,1,233.9,66.06c-.54-23.386-19.862-42.41-43.07-42.41a43.106,43.106,0,0,0-6.785.556,92.959,92.959,0,0,1,35.852,73.427,96.812,96.812,0,0,1-.54,10.121c-.218,1.947-.487,3.856-.812,5.761a40.825,40.825,0,0,1-2.921,8.633c-.018.056-.008.113-.029.168a16.4,16.4,0,0,1-1.8,3.332,40.863,40.863,0,0,1-35.074,20.315,40.633,40.633,0,0,1-33.4-17.538,16.729,16.729,0,0,1-2.387-4.216,20.722,20.722,0,0,1-4.226,2.975,52.238,52.238,0,0,0-16.17,13.135,2.55,2.55,0,1,1-3.935-3.244,57.248,57.248,0,0,1,17.741-14.413,16.137,16.137,0,0,0,8.609-14.094A53.317,53.317,0,0,0,131.744,73.31a.248.248,0,0,0-.337-.077.406.406,0,0,0-.27.435q.106,1.969.106,3.969a74.416,74.416,0,0,1-23.985,54.727c-.043.04-.1.051-.144.087a2.442,2.442,0,0,1-.442.268,2.521,2.521,0,0,1-.4.188,2.474,2.474,0,0,1-.737.2c-15.831,3.387-26.731,9.838-33.31,16.584,7.716,14.615,68.193,127.747,85.814,117.4a22.7,22.7,0,0,1-5.479-7,2.55,2.55,0,1,1,4.516-2.371,17.671,17.671,0,0,0,4.243,5.467,105.178,105.178,0,0,0,7.9-13.8c-3.928-3.5-10.234-9.8-12.033-15.538a2.55,2.55,0,0,1,4.867-1.524c1.195,3.813,5.472,8.508,9.111,11.931a16.6,16.6,0,0,0,.7-6.5,18.457,18.457,0,0,0-3.234-6.283l-.178-.21a8.266,8.266,0,0,1-.557-.7,1.471,1.471,0,0,1-.2-.234c-7.857-9.7-8.593-17.626-9.212-30.784a63,63,0,0,0-17.684-43.845,2.551,2.551,0,1,1,3.661-3.552,68.1,68.1,0,0,1,19.122,47.277c.179,3.774.363,7.034.73,9.994a42.016,42.016,0,0,0,17.36-1.741,2.612,2.612,0,0,1,3.253,1.539A42.252,42.252,0,0,0,219.9,236.819a.233.233,0,0,1,.041,0,26.1,26.1,0,0,1,24.481,26.14c0,.226-.011.459-.016.693,0,.027.016.049.016.077,0,.131-.02.25-.025.37,0,.082,0,.167-.006.248-.161,4.69-.438,9.318-.848,14.074-.512,5.682-1.1,9.979-1.57,12.9,7.6-3.39,24.645-12.914,40.363-35.141.257-.332.411-.553.564-.775a48.755,48.755,0,0,0,9.107-28.44,36.5,36.5,0,0,1-14.3,2.9c-.831,0-1.656-.03-2.474-.082a2.551,2.551,0,0,1,.333-5.092M120.7,209.539a2.55,2.55,0,0,1-3.224,1.619l-8.442-2.8a11.1,11.1,0,0,1-7.119-7.344l-4.376-14.57a2.55,2.55,0,1,1,4.885-1.469l1.669,5.557a10.424,10.424,0,0,1,4.553-.114,10.572,10.572,0,0,1,7.468,14.913l2.969.984a2.551,2.551,0,0,1,1.618,3.224" transform="translate(-14.653 -4.798)" fill="#ccc"/>
            <path id="Path_373" data-name="Path 373" d="M360.111,169.585a38.53,38.53,0,0,0-22.371-34.937,48.549,48.549,0,0,1-14.714,22.335,2.433,2.433,0,0,1-.223.131c8.843,1.421,31.947,7.656,30.634,33.853a38.066,38.066,0,0,0,6.674-21.382" transform="translate(-65.487 -27.316)" fill="#999"/>
            <path id="Path_374" data-name="Path 374" d="M251.454,110.117c-9.055-23.035,25.364-48.065,44.4-22.344A43.212,43.212,0,0,0,253.9,54.035c-1.261,0-2.52.07-3.773.18a47.912,47.912,0,0,1,1.788,11.724,2.55,2.55,0,0,1-2.491,2.611h-.06a2.549,2.549,0,0,1-2.548-2.491c-.54-23.385-19.862-42.409-43.069-42.409a43.013,43.013,0,0,0-6.785.556A92.96,92.96,0,0,1,232.81,97.632a96.8,96.8,0,0,1-.54,10.121c-.218,1.948-.487,3.857-.812,5.762a40.844,40.844,0,0,1-2.921,8.632c-.017.057-.008.113-.029.169a16.476,16.476,0,0,1-1.8,3.332,40.865,40.865,0,0,1-35.075,20.315,40.632,40.632,0,0,1-33.4-17.539,16.7,16.7,0,0,1-2.387-4.215,20.678,20.678,0,0,1-4.226,2.975A52.179,52.179,0,0,0,135.9,139.829a77.92,77.92,0,0,1,17.749,12.449,2.254,2.254,0,0,1,.133-.194,2.553,2.553,0,0,1,3.607.055,68.1,68.1,0,0,1,19.122,47.277c.178,3.774.363,7.034.729,9.993a42.025,42.025,0,0,0,17.36-1.74,2.612,2.612,0,0,1,3.254,1.539A42.422,42.422,0,0,0,220.993,233.7c-17.06-19.218-17.574-31.555-17.574-36.019-18.091-3.154-21.031-46.159,16.012-40.03-1.39-28.551,26.913-45.826,32.023-47.534" transform="translate(-27.57 -4.798)" fill="#999"/>
            <path id="Path_375" data-name="Path 375" d="M325.536,307.921c.257-.332.41-.553.565-.775a48.765,48.765,0,0,0,9.107-28.44,36.513,36.513,0,0,1-14.3,2.9c-.732,0-1.457-.03-2.18-.073,4.691,17.917-7.135,39.362-33.553,61.523,7.6-3.39,24.644-12.913,40.363-35.141" transform="translate(-57.853 -56.541)" fill="#999"/>
            <path id="Path_376" data-name="Path 376" d="M331.646,262.508a32.009,32.009,0,0,0,30.533-32.052A32.335,32.335,0,0,0,354.9,210.02c3.123,12.694.165,40.541-23.255,52.488" transform="translate(-67.281 -42.607)" fill="#999"/>
            <path id="Path_377" data-name="Path 377" d="M139.227,276.327a23.85,23.85,0,0,1-18.722-9.005c-.177-.23-.349-.449-.522-.642l-1.254-1.582c-2.265-2.872-4.764-6.043-7.439-9.486C92.911,231.593,67.569,196.159,50.6,163.006a31.366,31.366,0,0,1-15.012-8.317,32.071,32.071,0,0,1-9.361-19.734c-.053-.446-.084-.921-.113-1.424a248.317,248.317,0,0,1,.246-47.923c.011-.156.036-.386.062-.607l.039-.369C30.552,37.17,70.85,0,118.2,0c50.8,0,92.123,41.645,92.123,92.835a96.821,96.821,0,0,1-.54,10.121c-.218,1.947-.487,3.856-.812,5.762a41.022,41.022,0,0,1-39.819,32.448,40.63,40.63,0,0,1-33.4-17.539c-1.867-2.683-3.8-5.458-1.627-7.336,2.15-1.866,4.65.463,6.85,2.521a22.8,22.8,0,0,0,36.56-7.712l0-.01c.017-.045.034-.09.053-.132a22.112,22.112,0,0,0,1.8-7.263,51.652,51.652,0,0,0,.572-7.458,45.991,45.991,0,0,0-13.531-32.772,45.248,45.248,0,0,0-32.289-13.431,46.267,46.267,0,0,0-36.407,74.244,2.55,2.55,0,1,1-4.063,3.084,51.287,51.287,0,0,1-10.45-31.125c0-28.291,22.843-51.3,50.919-51.3a50.313,50.313,0,0,1,35.9,14.931,51.046,51.046,0,0,1,15.02,36.374,54.1,54.1,0,0,1-.607,7.994h0a27.206,27.206,0,0,1-2.146,8.681,3.062,3.062,0,0,1-.128.307,27.933,27.933,0,0,1-34.928,15.259,35.5,35.5,0,0,0,21.9,7.588,35.867,35.867,0,0,0,34.81-28.311c.289-1.7.544-3.512.75-5.35a91.847,91.847,0,0,0,.51-9.568C205.226,44.459,166.189,5.1,118.2,5.1c-44.729,0-82.8,35.123-86.664,79.959l-.1,1a243.969,243.969,0,0,0-.239,47.1c.029.471.052.847.1,1.246a27.007,27.007,0,0,0,7.872,16.65,26.271,26.271,0,0,0,13.621,7.2,2.549,2.549,0,0,1,1.8,1.353c16.793,33.115,42.3,68.792,60.738,92.89,2.654,3.416,5.149,6.579,7.405,9.441l1.16,1.47c.156.171.406.481.624.764a18.754,18.754,0,0,0,14.709,7.052,19.062,19.062,0,0,0,18-12.909,2.747,2.747,0,0,1,.227-.583c3.628-9.424,4.37-12.3,4.492-12.834a2.461,2.461,0,0,1,.116-.454,18.234,18.234,0,0,0,1.06-6.175,18.456,18.456,0,0,0-4.054-11.609l-.178-.209a8.391,8.391,0,0,1-.556-.7,1.456,1.456,0,0,1-.2-.234c-7.857-9.705-8.593-17.627-9.212-30.784a63.021,63.021,0,0,0-17.686-43.844,2.551,2.551,0,0,1,3.661-3.553,68.1,68.1,0,0,1,19.122,47.277c.582,12.32,1.211,19.211,8.153,27.793l.294.366a3.941,3.941,0,0,0,.271.334l.312.368a23.847,23.847,0,0,1,5.17,14.795,23.358,23.358,0,0,1-1.287,7.691c-.2.89-1.077,4.138-4.811,13.808a24.242,24.242,0,0,1-22.9,16.556m25.239-30.991h0Z" transform="translate(-5.087 0)"/>
            <path id="Path_378" data-name="Path 378" d="M128.4,152.559a2.549,2.549,0,0,1-1.967-4.171,57.227,57.227,0,0,1,17.741-14.414,16.137,16.137,0,0,0,8.609-14.094,53.318,53.318,0,0,0-13.208-35.257.247.247,0,0,0-.337-.077.406.406,0,0,0-.27.434q.106,1.971.106,3.97a74.42,74.42,0,0,1-23.985,54.727,2.551,2.551,0,1,1-3.45-3.758A69.306,69.306,0,0,0,133.968,88.95c0-1.238-.033-2.472-.1-3.695a5.481,5.481,0,0,1,3.439-5.436,5.336,5.336,0,0,1,6.1,1.438,58.332,58.332,0,0,1,14.476,38.5A21.35,21.35,0,0,1,146.534,138.5a52.238,52.238,0,0,0-16.17,13.135,2.542,2.542,0,0,1-1.969.929" transform="translate(-22.48 -16.11)"/>
            <path id="Path_379" data-name="Path 379" d="M56.265,250.18a22.327,22.327,0,0,1-14.222-5.157,2.551,2.551,0,0,1,1.922-4.5,9.664,9.664,0,0,0,9.626-14.08,23.233,23.233,0,0,1-13.217,4.125,23.49,23.49,0,0,1-23.381-23.545,23.78,23.78,0,0,1,2.015-9.6,28.865,28.865,0,0,1,2.987-55.165,2.55,2.55,0,1,1,1.181,4.962,23.75,23.75,0,0,0,.115,46.151,2.55,2.55,0,0,1,1.589,3.829,18.609,18.609,0,0,0-2.785,9.825,18.382,18.382,0,0,0,18.279,18.443,18.158,18.158,0,0,0,12.073-4.6,2.578,2.578,0,0,1,1.846-.638,2.544,2.544,0,0,1,1.758.854,14.8,14.8,0,0,1-4.8,23.244,17.157,17.157,0,0,0,20.8-9.72,2.551,2.551,0,0,1,4.691,2.008A22.268,22.268,0,0,1,56.265,250.18" transform="translate(0 -28.846)"/>
            <path id="Path_380" data-name="Path 380" d="M262.763,67.251a2.549,2.549,0,0,1-2.548-2.491c-.54-23.385-19.862-42.41-43.07-42.41a42.82,42.82,0,0,0-11.926,1.687,2.552,2.552,0,0,1-1.42-4.9,47.97,47.97,0,0,1,13.346-1.886c25.957,0,47.566,21.261,48.169,47.392a2.55,2.55,0,0,1-2.491,2.611Z" transform="translate(-40.971 -3.499)"/>
            <path id="Path_381" data-name="Path 381" d="M311.036,141.515a2.55,2.55,0,0,1-1.661-4.486A43.523,43.523,0,0,0,281.484,60.47a42.984,42.984,0,0,0-6.659.518,2.552,2.552,0,0,1-.792-5.042A48.578,48.578,0,0,1,312.7,140.9a2.534,2.534,0,0,1-1.659.615" transform="translate(-55.156 -11.232)"/>
            <path id="Path_382" data-name="Path 382" d="M328.764,250.87c-.831,0-1.656-.03-2.473-.082a2.552,2.552,0,0,1,.334-5.092q1.059.072,2.14.073a32.176,32.176,0,0,0,24.568-52.555,2.552,2.552,0,0,1-.111-3.086,38.239,38.239,0,0,0-17.683-58.014,2.551,2.551,0,0,1,1.786-4.778,43.613,43.613,0,0,1,28.113,40.734,43.077,43.077,0,0,1-6.984,23.423,37.278,37.278,0,0,1-29.689,59.378" transform="translate(-65.711 -25.8)"/>
            <path id="Path_383" data-name="Path 383" d="M260.864,344.707a2.552,2.552,0,0,1-2.486-3.129,139.254,139.254,0,0,0,2.316-16.8c.4-4.656.674-9.2.835-13.88.027-.424.025-.79.025-1.134a21,21,0,0,0-19.379-21.029c-.092,0-.2-.006-.308-.013a47.365,47.365,0,0,1-38.616-28.731,47.2,47.2,0,0,1-19.256,1.1,2.552,2.552,0,0,1,.757-5.047,42.108,42.108,0,0,0,19.166-1.577,2.611,2.611,0,0,1,3.253,1.539,42.252,42.252,0,0,0,34.963,27.61.239.239,0,0,1,.041,0,26.1,26.1,0,0,1,24.481,26.141c0,.454,0,.934-.031,1.387-.161,4.691-.438,9.319-.848,14.075-.512,5.682-1.1,9.979-1.57,12.9,7.6-3.39,24.645-12.913,40.364-35.141.257-.331.41-.553.563-.774a48.767,48.767,0,0,0,9.11-28.506q0-1.864-.136-3.7a2.55,2.55,0,1,1,5.086-.374q.15,2.018.151,4.07a53.8,53.8,0,0,1-10.037,31.437c-.193.279-.408.585-.654.9-21.943,31.041-46.068,38.281-47.083,38.575a2.551,2.551,0,0,1-.706.1" transform="translate(-36.886 -51.598)"/>
            <path id="Path_384" data-name="Path 384" d="M284.365,327.189a2.324,2.324,0,0,1-.416-.035,2.758,2.758,0,1,1,2.991-2.967,5.067,5.067,0,0,1-.06.865,2.55,2.55,0,0,1-2.515,2.137" transform="translate(-57.171 -65.254)"/>
            <path id="Path_385" data-name="Path 385" d="M186.452,329.929a2.452,2.452,0,0,1-.332-.022c-2.462-.319-8.671-1.993-13.188-10.592a2.551,2.551,0,1,1,4.517-2.371c3.405,6.482,7.659,7.687,9.329,7.906a2.55,2.55,0,0,1-.325,5.079" transform="translate(-35.023 -64.022)"/>
            <path id="Path_386" data-name="Path 386" d="M195.623,305.31a2.549,2.549,0,0,1-1.566-.538c-.516-.4-12.663-9.944-15.274-18.277a2.55,2.55,0,0,1,4.867-1.524c1.776,5.667,10.377,13.309,13.543,15.775a2.551,2.551,0,0,1-1.57,4.564" transform="translate(-36.246 -57.45)"/>
            <path id="Path_387" data-name="Path 387" d="M124.688,251.883a2.575,2.575,0,0,1-.8-.13l-8.442-2.8a11.1,11.1,0,0,1-7.119-7.343l-4.377-14.57a2.551,2.551,0,1,1,4.885-1.47l4.377,14.57a5.993,5.993,0,0,0,3.84,3.97l8.443,2.8a2.551,2.551,0,0,1-.8,4.972" transform="translate(-21.066 -45.393)"/>
            <path id="Path_388" data-name="Path 388" d="M119.565,251.355a2.551,2.551,0,0,1-1.849-4.309,5.546,5.546,0,0,0-2.87-9.237,5.38,5.38,0,0,0-3.407.424,2.55,2.55,0,1,1-2.2-4.6,10.421,10.421,0,0,1,6.619-.827,10.649,10.649,0,0,1,5.559,17.755,2.549,2.549,0,0,1-1.849.792" transform="translate(-21.866 -47.187)"/>
            <path id="Path_389" data-name="Path 389" d="M28.84,158.7a2.552,2.552,0,0,1-2.506-3.036,21.267,21.267,0,0,1,9.574-14.04c7.688-4.984,17.9-5.694,24.143-4.245a2.55,2.55,0,1,1-1.156,4.968c-5.384-1.248-14.055-.434-20.212,3.559a16.062,16.062,0,0,0-7.342,10.729,2.551,2.551,0,0,1-2.5,2.065" transform="translate(-5.333 -27.735)"/>
            <path id="Path_390" data-name="Path 390" d="M29.216,106.1a2.549,2.549,0,0,1-2.4-3.41c4.54-12.664,19.446-17.185,31.81-15.11a2.551,2.551,0,1,1-.844,5.031c-8.319-1.393-22.147.593-26.163,11.8a2.549,2.549,0,0,1-2.4,1.691" transform="translate(-5.409 -17.668)"/>
            <path id="Path_391" data-name="Path 391" d="M48.266,52.915a2.552,2.552,0,0,1-2.077-4.028c8.457-11.912,24.537-8.955,33.285-4.056a2.55,2.55,0,1,1-2.494,4.45c-4.938-2.763-19.352-7.7-26.631,2.56a2.548,2.548,0,0,1-2.082,1.074" transform="translate(-9.275 -8.226)"/>
            <path id="Path_392" data-name="Path 392" d="M120.844,22.061a2.546,2.546,0,0,1-2.122-1.131c-.283-.413-7.291-10.328-22.387-6.449a2.551,2.551,0,0,1-1.27-4.942c18.707-4.8,27.529,8,27.9,8.552a2.551,2.551,0,0,1-2.117,3.971" transform="translate(-18.897 -1.717)"/>
            <path id="Path_393" data-name="Path 393" d="M168.529,22.846c-.064,0-.127,0-.19-.006a2.552,2.552,0,0,1-2.356-2.733c.089-1.346.486-13.271-13-14.379a2.552,2.552,0,0,1,.419-5.087c15.043,1.239,18.133,13.521,17.665,19.845a2.55,2.55,0,0,1-2.541,2.36" transform="translate(-30.561 -0.128)"/>
            <path id="Path_394" data-name="Path 394" d="M209.185,43.483a2.551,2.551,0,0,1-2.3-3.644c.169-.366,4.179-9.2-2.6-14.949a2.55,2.55,0,1,1,3.3-3.891c7.841,6.639,5.99,16.658,3.915,21.027a2.55,2.55,0,0,1-2.305,1.457" transform="translate(-41.259 -4.137)"/>
            <path id="Path_395" data-name="Path 395" d="M235.779,78.844a2.551,2.551,0,0,1-1.758-4.4c.223-.222,5.828-5.953.438-16.532a2.551,2.551,0,0,1,4.546-2.316c7.177,14.089-1.113,22.207-1.469,22.546a2.538,2.538,0,0,1-1.758.7" transform="translate(-47.315 -10.996)"/>
            <path id="Path_396" data-name="Path 396" d="M242.955,117.307a2.551,2.551,0,0,1-.536-5.044c.7-.17,7.016-2.023,5.421-12.739a2.551,2.551,0,1,1,5.047-.753c1.876,12.607-5.322,17.6-9.391,18.478a2.507,2.507,0,0,1-.541.057" transform="translate(-48.771 -19.597)"/>
            <path id="Path_397" data-name="Path 397" d="M232.929,156.038a16.649,16.649,0,0,1-4.553-.613,2.551,2.551,0,0,1,1.427-4.9c.918.26,9.146,2.313,12.342-5.846a2.55,2.55,0,0,1,4.75,1.858c-2.928,7.479-9.071,9.5-13.966,9.5" transform="translate(-45.958 -29.022)"/>
            <path id="Path_398" data-name="Path 398" d="M58.595,194.652a2.552,2.552,0,0,1-2.548-2.461c-.483-13.546,15.363-31.349,45.682-37.662a2.552,2.552,0,0,1,1.039,5c-29.29,6.095-41.971,22.666-41.621,32.485a2.55,2.55,0,0,1-2.458,2.638c-.031,0-.062,0-.092,0" transform="translate(-11.368 -31.339)"/>
          </g>
        </g>
      </g>
    </g>
  </g>
</svg>