<svg xmlns="http://www.w3.org/2000/svg" xmlns:xlink="http://www.w3.org/1999/xlink" width="300" height="300" viewBox="0 0 300 300">
  <defs>
    <clipPath id="clip-path">
      <rect id="Rectangle_297" data-name="Rectangle 297" width="300" height="246.529" fill="none"/>
    </clipPath>
    <clipPath id="clip-path-3">
      <rect id="Rectangle_285" data-name="Rectangle 285" width="34.588" height="26.92" fill="none"/>
    </clipPath>
    <clipPath id="clip-path-5">
      <rect id="Rectangle_287" data-name="Rectangle 287" width="27.493" height="21.477" fill="none"/>
    </clipPath>
    <clipPath id="clip-path-6">
      <rect id="Rectangle_288" data-name="Rectangle 288" width="49.685" height="67.341" fill="none"/>
    </clipPath>
    <clipPath id="clip-path-7">
      <rect id="Rectangle_289" data-name="Rectangle 289" width="34.82" height="10.301" fill="none"/>
    </clipPath>
    <clipPath id="clip-path-8">
      <rect id="Rectangle_290" data-name="Rectangle 290" width="48.331" height="32.302" fill="none"/>
    </clipPath>
    <clipPath id="clip-path-9">
      <rect id="Rectangle_291" data-name="Rectangle 291" width="27.092" height="50.658" fill="none"/>
    </clipPath>
    <clipPath id="clip-path-10">
      <rect id="Rectangle_292" data-name="Rectangle 292" width="62.692" height="44.832" fill="none"/>
    </clipPath>
    <clipPath id="clip-path-11">
      <rect id="Rectangle_293" data-name="Rectangle 293" width="36.773" height="75.636" fill="none"/>
    </clipPath>
    <clipPath id="clip-path-12">
      <rect id="Rectangle_294" data-name="Rectangle 294" width="48.353" height="32.155" fill="none"/>
    </clipPath>
    <clipPath id="clip-path-13">
      <rect id="Rectangle_295" data-name="Rectangle 295" width="35.587" height="11.432" fill="none"/>
    </clipPath>
  </defs>
  <g id="lead_image" data-name="lead image" transform="translate(-53 -703)">
    <rect id="Rectangle_353" data-name="Rectangle 353" width="300" height="300" transform="translate(53 703)" fill="none"/>
    <g id="icon" transform="translate(53 730)">
      <g id="Group_418" data-name="Group 418" clip-path="url(#clip-path)">
        <g id="Group_417" data-name="Group 417">
          <g id="Group_416" data-name="Group 416" clip-path="url(#clip-path)">
            <path id="Path_1469" data-name="Path 1469" d="M34.3,129.365c-.04.145-.088.279-.124.429-1.118,3.812.028,8.631,3.351,12.625l23.711,28.5c7.114-5.189,16.54-9.723,27.742-13.377L52.638,127.3c-5.457-4.539-12.477-5.061-16.327-1.215a8.507,8.507,0,0,0-2.013,3.275" transform="translate(-8.8 -32.2)" fill="#fff"/>
            <path id="Path_1470" data-name="Path 1470" d="M58.132,115.292l4.048,3.368L68.87,103.9c-.255-.139-.518-.265-.769-.41a26.326,26.326,0,0,1-10.989-12.1,12.7,12.7,0,0,0-1.588,1.833l-12.3,17.359a19.488,19.488,0,0,1,14.909,4.709" transform="translate(-11.268 -23.825)" fill="#fff"/>
            <path id="Path_1471" data-name="Path 1471" d="M107.607,69.321A2.238,2.238,0,0,1,107.13,69c-6.454-5.584-9.011-12.767-7.4-20.772,3.3-16.38,23.354-33.241,38.4-40.079C130.877,5.33,120.582,5.843,109,9.738,88.315,16.69,70.735,31.6,66.039,46.115c-.009.064-.021.129-.037.194-3.27,14.01.416,25.282,10.114,30.928,10.853,6.319,26.382,4.255,38.407-4.687a26.817,26.817,0,0,1-6.916-3.228" transform="translate(-16.902 -1.659)" fill="#fff"/>
            <path id="Path_1472" data-name="Path 1472" d="M299.343,314.15a46.506,46.506,0,0,1-25.008-9.112c-.378-.283-.73-.6-1.1-.892a134.82,134.82,0,0,1-19.951,8.469,58.4,58.4,0,0,0,14.918,6.424,56.638,56.638,0,0,0,31.677-.432,2.284,2.284,0,0,0-.537-4.457" transform="translate(-66.029 -79.288)" fill="#fff"/>
            <path id="Path_1473" data-name="Path 1473" d="M272.439,204.679c0-22.828-49.27-42.115-107.589-42.115S57.259,181.85,57.259,204.679c0,23.872,49.8,72.5,107.59,72.5s107.589-48.63,107.589-72.5" transform="translate(-14.927 -42.379)" fill="#fff"/>
            <path id="Path_1474" data-name="Path 1474" d="M18.121,186a37.512,37.512,0,0,0,3.335,4.062l2.73,2.911,4.255,3.768,4.641,3.38c.666.427,1.456.892,2.25,1.356l1.379.813a26.333,26.333,0,0,0,2.883,1.544c.393.191.783.355,1.175.537a28.139,28.139,0,0,1-1.5-8.491A22.914,22.914,0,0,1,43.044,183.6a45.5,45.5,0,0,1-14.49-8.872A46.672,46.672,0,0,1,16.3,155.567a54.63,54.63,0,0,1-2.27-11.746,48.709,48.709,0,0,1,.741-12.258,2.271,2.271,0,0,0-1.324-2.569,2.237,2.237,0,0,0-2.922,1.209A54.564,54.564,0,0,0,6.915,143.4a62.537,62.537,0,0,0-.234,14.059,58.98,58.98,0,0,0,10.178,26.887c.373.472.817,1.065,1.263,1.661" transform="translate(-1.668 -33.583)" fill="#fff"/>
            <path id="Path_1475" data-name="Path 1475" d="M114.446,305.065a46.384,46.384,0,0,1-24.858,9.094,2.325,2.325,0,0,0-2.166,1.6,2.288,2.288,0,0,0,1.489,2.865,56.585,56.585,0,0,0,31.668.435,58.516,58.516,0,0,0,14.865-6.4,134.786,134.786,0,0,1-19.947-8.449c-.352.283-.687.58-1.051.853" transform="translate(-22.762 -79.305)" fill="#fff"/>
            <path id="Path_1476" data-name="Path 1476" d="M75.118,270.43A122.018,122.018,0,0,1,52.994,248.65a43.424,43.424,0,0,1-16.89-4.272A47.587,47.587,0,0,1,16.8,226.97a2.33,2.33,0,0,0-2.575-1.086,2.261,2.261,0,0,0-1.581,2.772,55.621,55.621,0,0,0,15.891,26.007,60.207,60.207,0,0,0,29.184,14.811,63.688,63.688,0,0,0,17.4.954" transform="translate(-3.274 -58.867)" fill="#fff"/>
            <path id="Path_1477" data-name="Path 1477" d="M152.372,54.352c-11.865,5.474-24.155,7.82-33.983,6.541-.062.26-.163.523-.214.782-1.279,6.337.576,11.6,5.67,16.1a22.743,22.743,0,0,0,9.066,3.5c8.052-6.456,17.22-15.939,19.461-26.92" transform="translate(-30.705 -14.169)" fill="#fff"/>
            <path id="Path_1478" data-name="Path 1478" d="M260.674,81.272a22.74,22.74,0,0,0,9.071-3.5c5.092-4.494,6.945-9.761,5.667-16.1-.052-.26-.152-.522-.214-.781-9.828,1.281-22.119-1.069-33.983-6.543,2.239,10.982,11.408,20.465,19.459,26.92" transform="translate(-62.882 -14.169)" fill="#fff"/>
            <path id="Path_1479" data-name="Path 1479" d="M303.82,77.236c9.7-5.646,13.384-16.918,10.115-30.928-.015-.064-.027-.129-.037-.194C309.2,31.6,291.622,16.689,270.937,9.738,259.351,5.84,249.059,5.327,241.8,8.15c15.046,6.839,35.1,23.7,38.4,40.079,1.615,8.005-.943,15.188-7.4,20.772a2.3,2.3,0,0,1-.505.335,26.635,26.635,0,0,1-6.888,3.211c12.026,8.946,27.554,11,38.406,4.688" transform="translate(-63.036 -1.659)" fill="#fff"/>
            <path id="Path_1480" data-name="Path 1480" d="M339.628,91.391a26.312,26.312,0,0,1-10.99,12.1c-.251.146-.514.272-.769.41l6.69,14.76,4.048-3.369a19.546,19.546,0,0,1,14.641-4.736L341.2,93.206a12.581,12.581,0,0,0-1.577-1.815" transform="translate(-85.472 -23.825)" fill="#fff"/>
            <path id="Path_1481" data-name="Path 1481" d="M348.772,142.418c3.971-4.772,4.868-10.737,2.459-14.734,0-.008-.01-.016-.015-.024a8.293,8.293,0,0,0-1.23-1.571c-3.85-3.852-10.871-3.323-16.327,1.215l-6.092,5.069a2.31,2.31,0,0,1-.715.594l-29.577,24.609c11.2,3.665,20.624,8.209,27.726,13.411Z" transform="translate(-77.497 -32.2)" fill="#fff"/>
            <path id="Path_1482" data-name="Path 1482" d="M153.8,136.073a6.894,6.894,0,1,0,13.2-3.816l-.141-.375a6.583,6.583,0,0,0-.463-.866l-.174-.28a6.911,6.911,0,0,0-.651-.8l-.185-.2a6.941,6.941,0,0,0-.815-.679l-.229-.166a7.285,7.285,0,0,0-.947-.52l-.223-.1a7.579,7.579,0,0,0-1.265-.386,6.634,6.634,0,0,0-1.155-.134l-.214,0a6.674,6.674,0,0,0-1.245.122v0l-.3.06a5.821,5.821,0,0,0-.935.294l-.225.083a6.869,6.869,0,0,0-.985.52l-.373.254a7.267,7.267,0,0,0-.817.7,7.4,7.4,0,0,0-.854,1.042,8.092,8.092,0,0,0-.637,1.189,6.466,6.466,0,0,0-.331,1.042l-.059.24a5.843,5.843,0,0,0-.123,1.118l-.012.259a6.2,6.2,0,0,0,.1,1.109Z" transform="translate(-40.055 -33.303)" fill="#fff"/>
            <path id="Path_1483" data-name="Path 1483" d="M239.9,127.449a7.062,7.062,0,0,0-1.267.127l-.254.06a7.286,7.286,0,0,0-1.045.333l-.341.16a6.583,6.583,0,0,0-.756.413,4.965,4.965,0,0,0-.44.316,6.79,6.79,0,0,0-.6.5,6.2,6.2,0,0,0-.436.469,6.671,6.671,0,0,0-.438.543,7.5,7.5,0,0,0-.418.69c-.079.139-.155.277-.229.439a7.439,7.439,0,0,0-.328.912,5.432,5.432,0,0,0-.163.589,6.9,6.9,0,1,0,6.717-5.554" transform="translate(-60.754 -33.225)" fill="#fff"/>
            <path id="Path_1484" data-name="Path 1484" d="M369.456,225.884a2.253,2.253,0,0,0-2.506.97,47.693,47.693,0,0,1-19.384,17.525,43.445,43.445,0,0,1-17.077,4.319,122.007,122.007,0,0,1-22.066,21.715,63.682,63.682,0,0,0,17.538-.94,60.2,60.2,0,0,0,29.177-14.807,55.627,55.627,0,0,0,15.9-26.012,2.257,2.257,0,0,0-1.579-2.77" transform="translate(-80.403 -58.864)" fill="#fff"/>
            <path id="Path_1485" data-name="Path 1485" d="M382.292,130.2a2.237,2.237,0,0,0-4.265,1.266,48.941,48.941,0,0,1,.759,12.344,54.439,54.439,0,0,1-2.245,11.674,46.692,46.692,0,0,1-12.236,19.2,45.493,45.493,0,0,1-14.66,8.953,22.9,22.9,0,0,1,3.747,12.245,28.229,28.229,0,0,1-1.529,8.576c.418-.193.842-.372,1.254-.573a27.1,27.1,0,0,0,2.989-1.592l1.378-.813c.793-.465,1.584-.929,2.35-1.425l4.69-3.433,4.255-3.794,2.531-2.712A37.716,37.716,0,0,0,374.7,186c.446-.6.889-1.19,1.343-1.769a58.955,58.955,0,0,0,10.1-26.841,62.513,62.513,0,0,0-.241-14,54.562,54.562,0,0,0-3.61-13.187" transform="translate(-91.149 -33.583)" fill="#fff"/>
            <path id="Path_1486" data-name="Path 1486" d="M238.714,156.325l2.058.228,2.876-11.6a11.479,11.479,0,0,1-13.381-3.43l-3.408,13.756,2.795.209c3.061.228,6.11.51,9.061.838" transform="translate(-59.14 -36.893)" fill="#fff"/>
            <path id="Path_1487" data-name="Path 1487" d="M160.811,156.389c2.89-.323,5.939-.608,9.062-.846l2.789-.212-3.372-13.61a11.342,11.342,0,0,1-13.447,3.162l2.908,11.734Z" transform="translate(-40.627 -36.945)" fill="#fff"/>
            <path id="Path_1488" data-name="Path 1488" d="M90.962,157.569l-36.34-30.235a15.847,15.847,0,0,0-8.441-3.7,8.344,8.344,0,0,0-2.259,1.547,8.512,8.512,0,0,0-2.013,3.275c-.04.146-.088.279-.124.43-1.118,3.812.028,8.631,3.351,12.624L67.34,168.2a108.628,108.628,0,0,1,23.622-10.628" transform="translate(-10.785 -32.23)" fill="#ccc"/>
            <path id="Path_1489" data-name="Path 1489" d="M58.132,115.292l4.048,3.368L68.87,103.9c-.255-.139-.518-.265-.769-.41a26.326,26.326,0,0,1-10.989-12.1,12.7,12.7,0,0,0-1.588,1.833l-12.3,17.359a19.488,19.488,0,0,1,14.909,4.709" transform="translate(-11.268 -23.825)" fill="#999"/>
            <path id="Path_1490" data-name="Path 1490" d="M121.777,13.4C101.092,20.356,83.512,35.267,78.817,49.78c-.009.064-.022.129-.038.194C75.51,63.984,79.2,75.256,88.893,80.9c.478.277.974.518,1.467.764,9.02.965,19.107-1.913,27.493-8.15a26.824,26.824,0,0,1-6.915-3.228,2.231,2.231,0,0,1-.478-.319c-6.453-5.584-9.011-12.767-7.4-20.772,3.164-15.679,21.657-31.773,36.43-39.122A59.447,59.447,0,0,0,121.777,13.4" transform="translate(-20.233 -2.626)" fill="#ed2f3c"/>
            <path id="Path_1491" data-name="Path 1491" d="M268.2,319.039a56.645,56.645,0,0,0,31.677-.432,2.284,2.284,0,0,0-.537-4.457,46.506,46.506,0,0,1-25.008-9.112c-.378-.283-.73-.6-1.1-.892a134.9,134.9,0,0,1-19.951,8.469,58.427,58.427,0,0,0,14.918,6.424" transform="translate(-66.029 -79.288)" fill="#ed2f3c"/>
            <path id="Path_1492" data-name="Path 1492" d="M276.4,206.9c0-7.4-5.2-14.422-14.187-20.542-19.918-9.27-49.624-15.276-82.156-15.276-58.32,0-107.59,19.286-107.59,42.115,0,14.071,17.312,36.738,43.354,52.983,15.806,7.928,33.957,13.222,52.991,13.222,57.788,0,107.59-48.63,107.59-72.5" transform="translate(-18.892 -44.599)" fill="#ccc"/>
            <path id="Path_1493" data-name="Path 1493" d="M274.693,191.088c-1.37-.638-2.8-1.256-4.256-1.862,5.471,4.99,8.547,10.435,8.547,16.106,0,23.872-49.8,72.5-107.589,72.5-18.275,0-35.714-4.908-51.068-12.315,2.56,1.853,5.205,3.664,7.973,5.391,15.807,7.928,33.958,13.222,52.992,13.222,57.788,0,107.589-48.63,107.589-72.5,0-7.4-5.2-14.423-14.187-20.542" transform="translate(-31.368 -49.329)" fill="#999"/>
            <path id="Path_1494" data-name="Path 1494" d="M41.874,184.781a46.681,46.681,0,0,1-11.638-7.657,46.68,46.68,0,0,1-12.253-19.157,54.67,54.67,0,0,1-2.27-11.746,48.276,48.276,0,0,1,.172-8.193,54.523,54.523,0,0,0-2.514,10.295,62.537,62.537,0,0,0-.234,14.059,58.98,58.98,0,0,0,10.178,26.887c.373.472.817,1.065,1.263,1.661a37.53,37.53,0,0,0,3.335,4.062l2.73,2.911,4.255,3.768,4.64,3.38c.667.427,1.457.892,2.25,1.356l.475.28.189.087a28.117,28.117,0,0,1-1.5-8.491,22.8,22.8,0,0,1,3.619-12c-.9-.475-1.809-.952-2.7-1.5" transform="translate(-3.351 -35.983)" fill="#ed2f3c"/>
            <path id="Path_1495" data-name="Path 1495" d="M116.962,304.212c-.352.283-.688.58-1.051.853a46.213,46.213,0,0,1-22.973,8.9,2.284,2.284,0,0,0,1.581,1.995c9.987,3.151,20.177,4.282,30.612,1.411a57.25,57.25,0,0,0,10.838-4.189c.311-.18.63-.338.938-.523a134.875,134.875,0,0,1-19.947-8.449" transform="translate(-24.228 -79.305)" fill="#ed2f3c"/>
            <path id="Path_1496" data-name="Path 1496" d="M54.88,249.7a43.42,43.42,0,0,1-16.89-4.272,47.467,47.467,0,0,1-18.064-15.577,2.192,2.192,0,0,0-.064,1.259,55.621,55.621,0,0,0,15.891,26.008,59.823,59.823,0,0,0,23.023,13.214c.276.058.549.138.826.194a63.718,63.718,0,0,0,17.4.954A122.033,122.033,0,0,1,54.88,249.7" transform="translate(-5.161 -59.921)" fill="#ed2f3c"/>
            <g id="Group_385" data-name="Group 385" transform="translate(87.078 40.183)" style="mix-blend-mode: multiply;isolation: isolate">
              <g id="Group_384" data-name="Group 384">
                <g id="Group_383" data-name="Group 383" clip-path="url(#clip-path-3)">
                  <path id="Path_1497" data-name="Path 1497" d="M123.845,77.774a22.748,22.748,0,0,0,9.067,3.5c8.052-6.456,17.22-15.939,19.46-26.92-11.865,5.474-24.155,7.82-33.983,6.541-.063.26-.162.523-.214.782-1.279,6.337.576,11.6,5.67,16.1" transform="translate(-117.783 -54.352)" fill="#ed2f3c"/>
                </g>
              </g>
            </g>
            <g id="Group_388" data-name="Group 388" transform="translate(178.333 40.183)" style="mix-blend-mode: multiply;isolation: isolate">
              <g id="Group_387" data-name="Group 387">
                <g id="Group_386" data-name="Group 386" clip-path="url(#clip-path-3)">
                  <path id="Path_1498" data-name="Path 1498" d="M269.746,77.772c5.092-4.494,6.945-9.761,5.667-16.1-.052-.259-.152-.521-.214-.781-9.828,1.282-22.119-1.068-33.983-6.542,2.239,10.982,11.407,20.465,19.459,26.92a22.761,22.761,0,0,0,9.071-3.5" transform="translate(-241.215 -54.352)" fill="#ed2f3c"/>
                </g>
              </g>
            </g>
            <path id="Path_1499" data-name="Path 1499" d="M353.248,110.556,341.2,93.205a12.516,12.516,0,0,0-1.577-1.814,26.31,26.31,0,0,1-10.99,12.1c-.251.146-.513.271-.768.41l6.689,14.759,4.049-3.368a19.545,19.545,0,0,1,14.641-4.736" transform="translate(-85.472 -23.825)" fill="#999"/>
            <path id="Path_1500" data-name="Path 1500" d="M326.909,172.97l23.77-28.568a15.8,15.8,0,0,0,3.693-8.481c-.1-.206-.177-.428-.3-.625,0-.009-.01-.016-.015-.024a8.349,8.349,0,0,0-1.23-1.571c-3.85-3.851-10.872-3.323-16.327,1.215l-6.092,5.068a2.319,2.319,0,0,1-.715.6l-25.1,20.887a92.914,92.914,0,0,1,22.315,11.505" transform="translate(-79.405 -34.183)" fill="#ed2f3c"/>
            <path id="Path_1501" data-name="Path 1501" d="M166.863,131.882a6.647,6.647,0,0,0-.463-.866l-.174-.279a6.932,6.932,0,0,0-.651-.8l-.185-.2a6.882,6.882,0,0,0-.815-.679l-.229-.166a7.464,7.464,0,0,0-.947-.52l-.223-.1a7.532,7.532,0,0,0-1.265-.386,6.565,6.565,0,0,0-1.155-.134l-.214-.005a6.623,6.623,0,0,0-1.245.123v0l-.3.06a5.821,5.821,0,0,0-.935.294l-.225.083a6.873,6.873,0,0,0-.985.521l-.373.254a7.282,7.282,0,0,0-.817.7,7.4,7.4,0,0,0-.854,1.042,8.058,8.058,0,0,0-.637,1.19,6.46,6.46,0,0,0-.331,1.042l-.059.24a5.85,5.85,0,0,0-.123,1.119l-.012.259a6.272,6.272,0,0,0,.1,1.109l.047.3a6.894,6.894,0,1,0,13.2-3.817Z" transform="translate(-40.055 -33.303)" fill="#999"/>
            <path id="Path_1502" data-name="Path 1502" d="M239.9,127.449a7.063,7.063,0,0,0-1.267.127l-.254.06a7.275,7.275,0,0,0-1.045.333l-.341.16a6.606,6.606,0,0,0-.756.413,5.138,5.138,0,0,0-.44.316,6.79,6.79,0,0,0-.6.5,6.223,6.223,0,0,0-.436.469,6.669,6.669,0,0,0-.437.543,7.5,7.5,0,0,0-.418.69c-.079.139-.155.277-.229.439a7.271,7.271,0,0,0-.328.913,5.24,5.24,0,0,0-.163.588,6.9,6.9,0,1,0,6.717-5.554" transform="translate(-60.754 -33.225)" fill="#999"/>
            <path id="Path_1503" data-name="Path 1503" d="M308.424,270.412a63.675,63.675,0,0,0,17.536-.94,60.2,60.2,0,0,0,29.178-14.807,55.625,55.625,0,0,0,15.9-26.012,2.257,2.257,0,0,0-4.086-1.8,47.7,47.7,0,0,1-19.383,17.524A43.448,43.448,0,0,1,330.49,248.7a122.03,122.03,0,0,1-22.065,21.715" transform="translate(-80.403 -58.864)" fill="#ed2f3c"/>
            <path id="Path_1504" data-name="Path 1504" d="M382.292,130.2a2.237,2.237,0,0,0-4.265,1.266,48.941,48.941,0,0,1,.759,12.344,54.439,54.439,0,0,1-2.245,11.674,46.692,46.692,0,0,1-12.236,19.2,45.493,45.493,0,0,1-14.66,8.953,22.9,22.9,0,0,1,3.747,12.245,28.229,28.229,0,0,1-1.529,8.576c.418-.193.842-.372,1.254-.573a27.1,27.1,0,0,0,2.989-1.592l1.378-.813c.793-.465,1.584-.929,2.35-1.425l4.69-3.433,4.255-3.794,2.531-2.712A37.716,37.716,0,0,0,374.7,186c.446-.6.889-1.19,1.343-1.769a58.955,58.955,0,0,0,10.1-26.841,62.513,62.513,0,0,0-.241-14,54.562,54.562,0,0,0-3.61-13.187" transform="translate(-91.149 -33.583)" fill="#ed2f3c"/>
            <path id="Path_1505" data-name="Path 1505" d="M239.232,145.833a11.561,11.561,0,0,1-8.965-4.312l-3.408,13.757,2.795.208c3.061.228,6.11.511,9.061.838l2.058.229,2.876-11.6a11.559,11.559,0,0,1-4.417.882" transform="translate(-59.14 -36.893)" fill="#e7f4f6"/>
            <path id="Path_1506" data-name="Path 1506" d="M160.448,145.885a11.458,11.458,0,0,1-4.6-1l2.908,11.734,2.06-.229c2.891-.323,5.939-.608,9.062-.846l2.789-.212-3.372-13.61a11.557,11.557,0,0,1-8.844,4.165" transform="translate(-40.627 -36.945)" fill="#e7f4f6"/>
            <g id="Group_391" data-name="Group 391" transform="translate(70.127 57.745)" style="mix-blend-mode: multiply;isolation: isolate">
              <g id="Group_390" data-name="Group 390">
                <g id="Group_389" data-name="Group 389" clip-path="url(#clip-path-5)">
                  <path id="Path_1507" data-name="Path 1507" d="M122.348,91.251a26.829,26.829,0,0,1-6.916-3.228,2.209,2.209,0,0,1-.477-.319,22.539,22.539,0,0,1-6.757-9.6C106.91,85.8,103.5,94.9,94.855,99.4c9.02.966,19.107-1.913,27.493-8.15" transform="translate(-94.855 -78.107)" fill="#ed2f3c"/>
                </g>
              </g>
            </g>
            <path id="Path_1508" data-name="Path 1508" d="M319,46.376c-.015-.064-.027-.129-.037-.194-4.7-14.514-22.276-29.425-42.96-36.376a63.065,63.065,0,0,0-14.775-3.182c26.35,18.112,29.47,34.325,24.328,48.638a21.315,21.315,0,0,1-7.683,13.809,2.3,2.3,0,0,1-.5.335,26.641,26.641,0,0,1-6.888,3.211c12.025,8.946,27.554,11,38.406,4.688,9.7-5.646,13.384-16.918,10.115-30.928" transform="translate(-68.099 -1.727)" fill="#ed2f3c"/>
            <g id="Group_394" data-name="Group 394" transform="translate(202.379 11.893)" style="mix-blend-mode: multiply;isolation: isolate">
              <g id="Group_393" data-name="Group 393">
                <g id="Group_392" data-name="Group 392" clip-path="url(#clip-path-6)">
                  <path id="Path_1509" data-name="Path 1509" d="M322.223,48.648c-3.965-12.254-17.128-24.771-33.575-32.562,36.108,31.4,27.443,49.861,21.2,55.209-6.116,5.242-19.254,5.231-23.273-6.462a23.52,23.52,0,0,1-5.446,6.7,2.309,2.309,0,0,1-.505.335,26.613,26.613,0,0,1-6.888,3.212c12.025,8.946,27.554,11,38.406,4.687,9.7-5.646,13.384-16.918,10.115-30.928-.015-.064-.027-.129-.037-.194" transform="translate(-273.74 -16.086)" fill="#ed2f3c"/>
                </g>
              </g>
            </g>
            <g id="Group_397" data-name="Group 397" transform="translate(77.86 224.907)" style="mix-blend-mode: multiply;isolation: isolate">
              <g id="Group_396" data-name="Group 396">
                <g id="Group_395" data-name="Group 395" clip-path="url(#clip-path-7)">
                  <path id="Path_1510" data-name="Path 1510" d="M119.138,305.065a44.724,44.724,0,0,1-13.822,7.024,113.279,113.279,0,0,0,31.819,2.076c.691-.316,1.38-.636,2.062-.98.311-.18.63-.337.938-.523a134.783,134.783,0,0,1-19.947-8.449c-.352.283-.687.58-1.051.853" transform="translate(-105.315 -304.212)" fill="#ed2f3c"/>
                </g>
              </g>
            </g>
            <g id="Group_400" data-name="Group 400" transform="translate(23.512 179.455)" style="mix-blend-mode: multiply;isolation: isolate">
              <g id="Group_399" data-name="Group 399">
                <g id="Group_398" data-name="Group 398" clip-path="url(#clip-path-8)">
                  <path id="Path_1511" data-name="Path 1511" d="M58.01,253.061a43.42,43.42,0,0,1-16.89-4.272,45.45,45.45,0,0,1-9.316-6.056c4.286,5.816,14.307,17.292,29.277,21.593A103.282,103.282,0,0,0,72.406,274.98a64.587,64.587,0,0,0,7.727-.14A122.033,122.033,0,0,1,58.01,253.061" transform="translate(-31.803 -242.733)" fill="#ed2f3c"/>
                </g>
              </g>
            </g>
            <g id="Group_403" data-name="Group 403" transform="translate(14.127 120.133)" style="mix-blend-mode: multiply;isolation: isolate">
              <g id="Group_402" data-name="Group 402">
                <g id="Group_401" data-name="Group 401" clip-path="url(#clip-path-9)">
                  <path id="Path_1512" data-name="Path 1512" d="M38.544,196.517a32.748,32.748,0,0,0,1.992,14.453l.631.46c.667.427,1.456.892,2.25,1.356l.475.28.189.086a28.131,28.131,0,0,1-1.5-8.491,22.807,22.807,0,0,1,3.618-12c-.9-.475-1.808-.952-2.7-1.5A46.678,46.678,0,0,1,31.866,183.5a46.671,46.671,0,0,1-12.253-19.158c-.189-.634-.34-1.238-.506-1.851.656,7.4,4.1,21.265,19.436,34.023" transform="translate(-19.109 -162.493)" fill="#ed2f3c"/>
                </g>
              </g>
            </g>
            <path id="Path_1513" data-name="Path 1513" d="M68.159,136.013,80.7,150.461a10.9,10.9,0,0,1-.357,14.676l-6.015,6.288A108.6,108.6,0,0,1,97.947,160.8Z" transform="translate(-17.768 -35.457)" fill="#999"/>
            <g id="Group_406" data-name="Group 406" transform="translate(228.021 166.943)" style="mix-blend-mode: multiply;isolation: isolate">
              <g id="Group_405" data-name="Group 405">
                <g id="Group_404" data-name="Group 404" clip-path="url(#clip-path-10)">
                  <path id="Path_1514" data-name="Path 1514" d="M369.456,225.886a2.213,2.213,0,0,0-1.734.257c-1.42,4.648-8.219,24.158-23.976,30.647-17.937,7.385-23.35,6.329-13.257-8.09a122,122,0,0,1-22.066,21.715,63.692,63.692,0,0,0,17.538-.94,60.2,60.2,0,0,0,29.177-14.807,55.626,55.626,0,0,0,15.9-26.012,2.257,2.257,0,0,0-1.579-2.77" transform="translate(-308.424 -225.809)" fill="#ed2f3c"/>
                </g>
              </g>
            </g>
            <g id="Group_409" data-name="Group 409" transform="translate(258.497 95.24)" style="mix-blend-mode: multiply;isolation: isolate">
              <g id="Group_408" data-name="Group 408">
                <g id="Group_407" data-name="Group 407" clip-path="url(#clip-path-11)">
                  <path id="Path_1515" data-name="Path 1515" d="M385.9,143.39a54.555,54.555,0,0,0-3.61-13.187,2.236,2.236,0,0,0-4.264,1.266c2.843-.9,8.119,26.884-4.894,45.876s-17.784,16.457-23.488,6.294a22.9,22.9,0,0,1,3.748,12.244,28.226,28.226,0,0,1-1.53,8.575c.418-.193.842-.372,1.255-.573a26.9,26.9,0,0,0,2.988-1.592l1.378-.813c.793-.464,1.584-.929,2.35-1.425l4.69-3.433,4.255-3.794,2.531-2.712A37.786,37.786,0,0,0,374.7,186c.446-.6.889-1.19,1.344-1.77a58.97,58.97,0,0,0,10.1-26.841,62.555,62.555,0,0,0-.242-14" transform="translate(-349.646 -128.823)" fill="#ed2f3c"/>
                </g>
              </g>
            </g>
            <g id="Group_412" data-name="Group 412" transform="translate(225.189 106.631)" style="mix-blend-mode: multiply;isolation: isolate">
              <g id="Group_411" data-name="Group 411">
                <g id="Group_410" data-name="Group 410" clip-path="url(#clip-path-12)">
                  <path id="Path_1516" data-name="Path 1516" d="M350.679,147.818a16.928,16.928,0,0,0,2.267-3.587c-3.725,4.037-11.967,10.795-18.574,16.016a28.079,28.079,0,0,1-21.213,5.8l-8.565-1.171a92.939,92.939,0,0,1,22.315,11.506Z" transform="translate(-304.593 -144.231)" fill="#ed2f3c"/>
                </g>
              </g>
            </g>
            <g id="Group_415" data-name="Group 415" transform="translate(187.256 224.858)" style="mix-blend-mode: multiply;isolation: isolate">
              <g id="Group_414" data-name="Group 414">
                <g id="Group_413" data-name="Group 413" clip-path="url(#clip-path-13)">
                  <path id="Path_1517" data-name="Path 1517" d="M288.872,312.29a45.005,45.005,0,0,1-14.537-7.252c-.377-.282-.73-.6-1.1-.892a134.839,134.839,0,0,1-19.951,8.469c1.047.631,2.112,1.215,3.184,1.779,7.514,2.523,23.126.633,32.4-2.1" transform="translate(-253.285 -304.146)" fill="#ed2f3c"/>
                </g>
              </g>
            </g>
            <path id="Path_1518" data-name="Path 1518" d="M347.229,209.23l-1.635-4.44a65.361,65.361,0,0,0,6.025-2.571,27.1,27.1,0,0,0,2.989-1.592l1.378-.814c.793-.464,1.584-.929,2.35-1.425l4.69-3.433,4.255-3.794,2.531-2.712a37.714,37.714,0,0,0,3.385-4.113c.446-.6.889-1.19,1.343-1.769a58.95,58.95,0,0,0,10.1-26.841,62.485,62.485,0,0,0-.241-14,54.613,54.613,0,0,0-3.61-13.187,2.237,2.237,0,0,0-4.265,1.266,48.936,48.936,0,0,1,.759,12.344,54.437,54.437,0,0,1-2.245,11.674,46.7,46.7,0,0,1-12.235,19.2,43.982,43.982,0,0,1-17.694,9.925l-1.22-4.57a39.188,39.188,0,0,0,15.718-8.844,41.816,41.816,0,0,0,10.92-17.136,49.569,49.569,0,0,0,2.036-10.571,44.086,44.086,0,0,0-.671-11.053,6.968,6.968,0,0,1,13.268-4.046,59.292,59.292,0,0,1,3.924,14.34,67.332,67.332,0,0,1,.265,15.126,63.85,63.85,0,0,1-11.005,29.183c-.514.661-.937,1.229-1.362,1.8a41.373,41.373,0,0,1-3.772,4.565l-2.63,2.809L366,198.63l-4.987,3.657c-.928.605-1.778,1.107-2.633,1.608l-1.374.809a29.98,29.98,0,0,1-3.419,1.814,68.205,68.205,0,0,1-6.359,2.713" transform="translate(-89.649 -31.915)"/>
            <path id="Path_1519" data-name="Path 1519" d="M311.531,273.7a69.334,69.334,0,0,1-11.879-1.023l.815-4.663a63.981,63.981,0,0,0,23.206-.214A60.2,60.2,0,0,0,352.852,253a55.632,55.632,0,0,0,15.9-26.012,2.258,2.258,0,0,0-4.086-1.8,47.689,47.689,0,0,1-19.383,17.524,43.354,43.354,0,0,1-19.155,4.367l.04-4.732a37.892,37.892,0,0,0,17.054-3.893,42.808,42.808,0,0,0,17.368-15.671,6.989,6.989,0,0,1,12.725,5.457,60.357,60.357,0,0,1-17.233,28.221,65,65,0,0,1-31.49,15.99,67.769,67.769,0,0,1-13.058,1.257" transform="translate(-78.116 -57.194)"/>
            <path id="Path_1520" data-name="Path 1520" d="M280.965,324.18a62.162,62.162,0,0,1-16.468-2.216,64.083,64.083,0,0,1-20.652-9.907l2.758-3.844a59.413,59.413,0,0,0,19.138,9.188,56.635,56.635,0,0,0,31.677-.432,2.284,2.284,0,0,0-.537-4.457,46.509,46.509,0,0,1-25.009-9.112c-.838-.628-1.655-1.294-2.44-1.982l3.126-3.553c.692.609,1.417,1.2,2.166,1.76a41.594,41.594,0,0,0,22.319,8.155,7.016,7.016,0,0,1,1.8,13.7,59.578,59.578,0,0,1-17.88,2.7" transform="translate(-63.568 -77.651)"/>
            <path id="Path_1521" data-name="Path 1521" d="M364.3,118.5a2.367,2.367,0,0,1-2.128-1.326,10.655,10.655,0,0,0-.915-1.487L344.165,91.065a12.121,12.121,0,0,0-3.759-3.475,2.366,2.366,0,0,1,2.375-4.094,16.973,16.973,0,0,1,5.258,4.851l17.091,24.623a15.024,15.024,0,0,1,1.292,2.123,2.367,2.367,0,0,1-1.086,3.165,2.342,2.342,0,0,1-1.037.24" transform="translate(-88.434 -21.684)"/>
            <path id="Path_1522" data-name="Path 1522" d="M331.635,127.741a2.365,2.365,0,0,1-2.156-1.388l-8.74-19.28a2.366,2.366,0,1,1,4.309-1.955l8.74,19.28a2.364,2.364,0,0,1-2.154,3.343" transform="translate(-83.559 -27.041)"/>
            <path id="Path_1523" data-name="Path 1523" d="M323.23,174.574a2.366,2.366,0,0,1-1.817-3.879l24.911-29.939c4.542-5.46,5.064-12.481,1.214-16.33s-10.871-3.322-16.327,1.215l-39.447,32.82a2.365,2.365,0,1,1-3.027-3.636L328.184,122c7.349-6.115,17.108-6.515,22.7-.924s5.194,15.35-.923,22.7l-24.911,29.94a2.365,2.365,0,0,1-1.819.852" transform="translate(-75.049 -30.537)"/>
            <path id="Path_1524" data-name="Path 1524" d="M258.192,83.9a2.355,2.355,0,0,1-1.459-.5c-14.354-11.258-22.165-23.452-22.587-35.263a2.366,2.366,0,0,1,3.464-2.181c12.745,6.689,26.889,9.658,36.913,7.763a2.366,2.366,0,0,1,.881,4.649c-10.125,1.922-23.342-.416-36.032-6.27,2.316,11.355,12.043,21.118,20.281,27.578a2.366,2.366,0,0,1-1.462,4.228" transform="translate(-61.039 -11.909)"/>
            <path id="Path_1525" data-name="Path 1525" d="M286.691,83.934c-10.651,0-22.041-4.38-30.911-12.573a2.366,2.366,0,0,1,1.232-4.073A23.211,23.211,0,0,0,267.1,63.6c5.092-4.494,6.944-9.761,5.667-16.1C269.47,31.19,246.457,13.573,232.679,9.082a2.366,2.366,0,0,1-.65-4.167c8.39-6.053,22.1-6.536,37.612-1.32,18.194,6.113,40.383,21.206,46.109,39.9a2.35,2.35,0,0,1,.1.58c3.568,15.945-.957,28.9-12.455,35.595a33.064,33.064,0,0,1-16.706,4.267M262.61,70.89c12.025,8.946,27.554,11,38.406,4.688,9.7-5.646,13.384-16.918,10.115-30.928-.015-.064-.027-.129-.037-.194-4.7-14.513-22.276-29.425-42.961-36.376C256.547,4.182,246.255,3.669,239,6.492c15.046,6.839,35.095,23.7,38.4,40.079,1.615,8.005-.943,15.188-7.4,20.772a2.3,2.3,0,0,1-.505.335,26.635,26.635,0,0,1-6.888,3.211m5.845-5.334h0Z" transform="translate(-60.232 0)"/>
            <path id="Path_1526" data-name="Path 1526" d="M42.467,209.245a69.708,69.708,0,0,1-6.512-2.777,29.513,29.513,0,0,1-3.313-1.765l-1.374-.808c-.855-.5-1.7-1-2.532-1.539l-4.937-3.6-4.584-4.061-2.829-3.008a41.269,41.269,0,0,1-3.722-4.514c-.425-.566-.848-1.135-1.281-1.686A63.891,63.891,0,0,1,.3,156.251,67.329,67.329,0,0,1,.562,141.07a59.294,59.294,0,0,1,3.924-14.347,6.969,6.969,0,0,1,13.287,3.951,44.206,44.206,0,0,0-.69,11.154,49.787,49.787,0,0,0,2.062,10.646,41.785,41.785,0,0,0,10.937,17.092,39.334,39.334,0,0,0,15.265,8.691l-1.28,4.556a44.148,44.148,0,0,1-17.181-9.757A46.677,46.677,0,0,1,14.632,153.9a54.658,54.658,0,0,1-2.27-11.745A48.705,48.705,0,0,1,13.1,129.9a2.271,2.271,0,0,0-1.324-2.569,2.235,2.235,0,0,0-2.922,1.208,54.536,54.536,0,0,0-3.61,13.194,62.528,62.528,0,0,0-.234,14.058,58.98,58.98,0,0,0,10.178,26.888c.373.471.817,1.065,1.263,1.66a37.447,37.447,0,0,0,3.335,4.062l2.73,2.911,4.255,3.768,4.641,3.379c.666.427,1.456.892,2.25,1.357l1.378.813a26.506,26.506,0,0,0,2.883,1.543,66.268,66.268,0,0,0,6.175,2.636Z" transform="translate(0 -31.915)"/>
            <path id="Path_1527" data-name="Path 1527" d="M68.192,273.7a67.8,67.8,0,0,1-13.059-1.257,65.008,65.008,0,0,1-31.5-15.994A60.359,60.359,0,0,1,6.409,228.236a6.989,6.989,0,0,1,12.653-5.574A42.928,42.928,0,0,0,36.5,238.448a38.685,38.685,0,0,0,16.2,3.89l-.072,4.732a43.383,43.383,0,0,1-18.188-4.364A47.588,47.588,0,0,1,15.129,225.3a2.328,2.328,0,0,0-2.575-1.086,2.26,2.26,0,0,0-1.581,2.772,55.627,55.627,0,0,0,15.891,26.007A60.211,60.211,0,0,0,56.047,267.8a64.038,64.038,0,0,0,23.15.224l.811,4.662A68.972,68.972,0,0,1,68.192,273.7" transform="translate(-1.606 -57.194)"/>
            <path id="Path_1528" data-name="Path 1528" d="M103.7,324.2a59.524,59.524,0,0,1-17.882-2.7,7.016,7.016,0,0,1,1.643-13.689,41.721,41.721,0,0,0,22.465-8.155c.734-.552,1.432-1.118,2.1-1.7l3.117,3.558q-1.139,1-2.368,1.921a46.379,46.379,0,0,1-24.859,9.094,2.325,2.325,0,0,0-2.165,1.6,2.287,2.287,0,0,0,1.489,2.865,56.593,56.593,0,0,0,31.668.435,59.468,59.468,0,0,0,18.889-9.006l2.738,3.859a64.105,64.105,0,0,1-20.382,9.71A62.157,62.157,0,0,1,103.7,324.2" transform="translate(-21.094 -77.674)"/>
            <path id="Path_1529" data-name="Path 1529" d="M30.124,121.766a2.442,2.442,0,0,1-.46-.044,2.367,2.367,0,0,1-1.863-2.78,15.711,15.711,0,0,1,2.535-6.182L47.629,88.354a16.955,16.955,0,0,1,5.219-4.829,2.365,2.365,0,1,1,2.387,4.085,12.181,12.181,0,0,0-3.744,3.48L34.2,115.5a11.1,11.1,0,0,0-1.754,4.362,2.365,2.365,0,0,1-2.318,1.908" transform="translate(-7.236 -21.69)"/>
            <path id="Path_1530" data-name="Path 1530" d="M69.367,127.927a2.365,2.365,0,0,1-2.154-3.343L75.8,105.642a2.366,2.366,0,1,1,4.309,1.955l-8.585,18.943a2.365,2.365,0,0,1-2.156,1.388" transform="translate(-17.467 -27.177)"/>
            <path id="Path_1531" data-name="Path 1531" d="M59.138,174.8a2.364,2.364,0,0,1-1.819-.852l-25.1-30.168c-6.117-7.352-6.514-17.111-.923-22.7s15.35-5.189,22.7.924l39.4,32.781a2.366,2.366,0,0,1-3.027,3.637l-39.4-32.781c-5.458-4.54-12.477-5.062-16.328-1.215s-3.328,10.87,1.215,16.329l25.1,30.168a2.366,2.366,0,0,1-1.817,3.879" transform="translate(-7.13 -30.537)"/>
            <path id="Path_1532" data-name="Path 1532" d="M132.363,83.9A2.367,2.367,0,0,1,130.9,79.67c8.238-6.459,17.965-16.223,20.281-27.578-12.69,5.854-25.905,8.187-36.032,6.27a2.366,2.366,0,0,1,.88-4.649c10.025,1.895,24.168-1.076,36.913-7.763a2.366,2.366,0,0,1,3.464,2.181c-.423,11.81-8.233,24-22.587,35.263a2.36,2.36,0,0,1-1.459.5" transform="translate(-29.517 -11.909)"/>
            <path id="Path_1533" data-name="Path 1533" d="M88.767,83.933a33.073,33.073,0,0,1-16.706-4.267c-11.5-6.7-16.022-19.649-12.454-35.6a2.355,2.355,0,0,1,.1-.577c5.726-18.69,27.916-33.784,46.109-39.9,15.511-5.22,29.223-4.734,37.612,1.319a2.366,2.366,0,0,1-.65,4.167C129,13.572,105.99,31.188,102.7,47.506c-1.279,6.337.577,11.6,5.671,16.1a23.213,23.213,0,0,0,10.08,3.682,2.366,2.366,0,0,1,1.232,4.073c-8.868,8.193-20.26,12.573-30.912,12.573m-24.4-39.478c-.009.064-.022.129-.037.194-3.27,14.01.416,25.282,10.114,30.928,10.852,6.319,26.382,4.256,38.406-4.687a26.811,26.811,0,0,1-6.915-3.228,2.214,2.214,0,0,1-.478-.319C99,61.759,96.444,54.576,98.06,46.571c3.3-16.38,23.353-33.241,38.4-40.079-7.256-2.82-17.55-2.307-29.133,1.587C86.642,15.03,69.062,29.941,64.366,44.455" transform="translate(-15.228 0)"/>
            <path id="Path_1534" data-name="Path 1534" d="M157.419,154.529a2.365,2.365,0,0,1-2.294-1.8l-4.182-16.872a9.272,9.272,0,1,1,18-4.459l4.624,18.66a2.366,2.366,0,1,1-4.593,1.137l-4.624-18.661a4.541,4.541,0,1,0-8.815,2.186l4.182,16.872a2.365,2.365,0,0,1-1.727,2.865,2.413,2.413,0,0,1-.571.069" transform="translate(-39.278 -32.418)"/>
            <path id="Path_1535" data-name="Path 1535" d="M239.964,154.442a2.409,2.409,0,0,1-.571-.07,2.365,2.365,0,0,1-1.727-2.865l4.159-16.784a4.541,4.541,0,1,0-8.815-2.185l-4.6,18.575a2.366,2.366,0,1,1-4.593-1.137l4.6-18.574a9.272,9.272,0,1,1,18,4.459l-4.16,16.785a2.365,2.365,0,0,1-2.294,1.8" transform="translate(-58.328 -32.419)"/>
            <path id="Path_1536" data-name="Path 1536" d="M159.952,142.9a9.264,9.264,0,1,1,9.266-9.264,9.275,9.275,0,0,1-9.266,9.264m0-13.8a4.533,4.533,0,1,0,4.534,4.533,4.538,4.538,0,0,0-4.534-4.533" transform="translate(-39.283 -32.424)"/>
            <path id="Path_1537" data-name="Path 1537" d="M238.95,142.9a9.264,9.264,0,1,1,9.266-9.264,9.275,9.275,0,0,1-9.266,9.264m0-13.8a4.533,4.533,0,1,0,4.534,4.533,4.537,4.537,0,0,0-4.534-4.533" transform="translate(-59.877 -32.424)"/>
            <path id="Path_1538" data-name="Path 1538" d="M163.181,280.245c-61.468,0-112.322-51.134-112.322-77.234,0-26.268,49.338-46.846,112.322-46.846S275.5,176.742,275.5,203.01c0,26.1-50.853,77.234-112.321,77.234m0-119.349c-58.32,0-107.59,19.286-107.59,42.115,0,23.872,49.8,72.5,107.59,72.5s107.589-48.63,107.589-72.5c0-22.828-49.27-42.115-107.589-42.115" transform="translate(-13.258 -40.71)"/>
          </g>
        </g>
      </g>
    </g>
  </g>
</svg>