<svg xmlns="http://www.w3.org/2000/svg" xmlns:xlink="http://www.w3.org/1999/xlink" width="300" height="300" viewBox="0 0 300 300">
  <defs>
    <clipPath id="clip-path">
      <rect id="Rectangle_251" data-name="Rectangle 251" width="215.225" height="300" fill="none"/>
    </clipPath>
    <clipPath id="clip-path-3">
      <rect id="Rectangle_249" data-name="Rectangle 249" width="50.179" height="80.887" fill="none"/>
    </clipPath>
  </defs>
  <g id="lead_image" data-name="lead image" transform="translate(-376 -51)">
    <rect id="Rectangle_346" data-name="Rectangle 346" width="300" height="300" transform="translate(376 51)" fill="none"/>
    <g id="icon" transform="translate(418 51)">
      <g id="Group_332" data-name="Group 332" clip-path="url(#clip-path)">
        <g id="Group_331" data-name="Group 331">
          <g id="Group_330" data-name="Group 330" clip-path="url(#clip-path)">
            <path id="Path_777" data-name="Path 777" d="M85.746,291.879A31.48,31.48,0,0,1,105,297.7c-4.125-9.771-12.733-14.23-20.6-15.15-2.421,2.536-4.765,5.208-7.074,7.85C70.539,298.17,64,305.634,56.388,308.351a27.863,27.863,0,0,0,14.6,7.566c11.116.312,16.268,8.692,16.346,16.385a18.467,18.467,0,0,1-2.2,8.893,27.354,27.354,0,0,0,11.474-16.821c2.049-9.037.173-21.88-11.859-28.325a2.217,2.217,0,0,1,.993-4.171" transform="translate(-17.336 -86.869)" fill="#fff"/>
            <path id="Path_778" data-name="Path 778" d="M198.468,217.758a2.215,2.215,0,0,1,2.5.822,102.311,102.311,0,0,1,11.584,21.588A111.529,111.529,0,0,0,186.549,161.9a112.965,112.965,0,0,0-81-40.763A29.881,29.881,0,0,1,101,124.781a99.263,99.263,0,0,1-17.727,9.341,2.187,2.187,0,0,1-.8.152,2.216,2.216,0,0,1-.8-4.281,95.277,95.277,0,0,0,16.922-8.93,25.1,25.1,0,0,0,11.219-24.956,141.8,141.8,0,0,0-2.959-14.213c-5.3,10.646-17.624,31.287-33.93,42.181l0,0c-3.078,2.162-6.1,4.019-7.9,5.127l-.87.537c-.026.017-.053.033-.08.048a121.063,121.063,0,0,1-28.707,13.137,45.809,45.809,0,0,0-4.207,6.469c-.246.448-.5.918-.8,1.444a78.678,78.678,0,0,0-7.3,31.818,2.257,2.257,0,0,1-.1.623c-1.4,4.525-4.134,9.631-7.032,15.035-7.138,13.306-14.517,27.066-5.25,36a2.221,2.221,0,0,1,.666,1.368c.409,3.957,2.592,8.023,5.077,9.458a3.465,3.465,0,0,0,3.16.3,2.111,2.111,0,0,1,.457-.2c2.188-.664,4.015-1.247,5.829-1.824l2.073-.659c1.414-2.839,6.114-11.965,10.338-16.576a2.217,2.217,0,0,1,3.268,3c-3.209,3.5-6.914,10.269-8.8,13.907,9.438,1.456,17.1-7.272,25.857-17.29,6.115-7,12.441-14.226,20.167-18.847,6.208-5,12.3-10.255,15.017-14.9a11.577,11.577,0,0,0,1.179-2.655,2.216,2.216,0,0,1,4.266,1.2,15.923,15.923,0,0,1-1.617,3.686c-2.422,4.148-6.749,8.37-12.481,13.172,20.089,4.224,34.711,16.309,41.434,34.441,7.367,19.872,3.146,43.694-10.5,59.276-9.456,10.795-22.246,16.8-37.11,17.679a98.922,98.922,0,0,0,74.793-15.294c28.2-18.993,43.944-49.483,43.2-83.647a2.216,2.216,0,0,1,1.521-2.151M21.9,223.191a2.216,2.216,0,0,1-4.073-1.749,1.936,1.936,0,0,0-.2-1.556c-1.319.45-2.586.768-3.078,6.906a2.215,2.215,0,0,1-2.206,2.038c-.06,0-.119,0-.178-.006a2.217,2.217,0,0,1-2.033-2.387c.549-6.874,2.268-9.692,6.567-10.767a4.144,4.144,0,0,1,4.313,1.353,6.289,6.289,0,0,1,.886,6.169m32.981-67.254a58.023,58.023,0,0,0-6.448,3.082,10.268,10.268,0,0,1-10.045,16.55L38,177.047a2.218,2.218,0,0,1-2.141,1.645,2.18,2.18,0,0,1-.572-.076,2.215,2.215,0,0,1-1.57-2.712l4-14.987a2.221,2.221,0,0,1,.945-1.294c.35-.223,8.629-5.521,14.642-7.824a2.216,2.216,0,0,1,1.587,4.138" transform="translate(-1.946 -25.178)" fill="#fff"/>
            <path id="Path_779" data-name="Path 779" d="M56.515,198.134l-2.227,8.352a5.815,5.815,0,0,0,4.924-9.984c-1.14.674-2.1,1.26-2.7,1.633" transform="translate(-16.69 -60.413)" fill="#fff"/>
            <path id="Path_780" data-name="Path 780" d="M67.16,92.47c-.679.063-1.359.091-2.033.091a33.48,33.48,0,0,1-9.634-1.592,122.087,122.087,0,0,0-5.423,24.081A116.321,116.321,0,0,0,75.208,103.2c.031-.019.063-.039.1-.056l.837-.515c1.692-1.04,4.176-2.577,6.822-4.395,2.847-42.563,32.771-78.4,71.821-90.515a116.4,116.4,0,0,0-46.779,16.668l2.239,1.866a2.217,2.217,0,0,1-2.837,3.407l-3.3-2.752c-2.819,1.9-5.583,3.914-8.272,6.072-.636.51-1.241,1.055-1.866,1.577a19.33,19.33,0,0,0,3.717,2.454,2.217,2.217,0,0,1-.927,4.232,2.183,2.183,0,0,1-.914-.2,23.3,23.3,0,0,1-5.282-3.567A124.937,124.937,0,0,0,79.544,48.746a17.342,17.342,0,0,0,6.389,2.409,2.216,2.216,0,0,1-.235,4.419,2.349,2.349,0,0,1-.241-.012,21.16,21.16,0,0,1-8.78-3.378,125.789,125.789,0,0,0-8.944,12.635,19.829,19.829,0,0,0,8.494,1.941,2.216,2.216,0,0,1,.2,4.428c-.037,0-.188.008-.436.008a24.108,24.108,0,0,1-10.512-2.552,125.152,125.152,0,0,0-8.518,18.145,26.7,26.7,0,0,0,9.79,1.267,2.217,2.217,0,0,1,.409,4.415" transform="translate(-15.393 -2.373)" fill="#fff"/>
            <path id="Path_781" data-name="Path 781" d="M77.329,290.405C70.54,298.17,64,305.634,56.389,308.351a27.864,27.864,0,0,0,14.6,7.566c11.117.312,16.268,8.692,16.346,16.385a18.451,18.451,0,0,1-2.2,8.893,27.355,27.355,0,0,0,11.474-16.82c2.049-9.038.173-21.88-11.859-28.325a2.217,2.217,0,0,1,.994-4.171,31.484,31.484,0,0,1,19.259,5.826c-4.125-9.771-12.734-14.229-20.6-15.15-2.422,2.536-4.765,5.208-7.074,7.85" transform="translate(-17.336 -86.869)" fill="#ed2f3c"/>
            <path id="Path_782" data-name="Path 782" d="M199.892,225.089a2.217,2.217,0,0,1,4.024-1.329A102.315,102.315,0,0,1,215.5,245.349a111.53,111.53,0,0,0-26.008-78.268,112.966,112.966,0,0,0-81-40.763,29.88,29.88,0,0,1-4.547,3.642A99.259,99.259,0,0,1,86.221,139.3a2.185,2.185,0,0,1-.8.152,2.216,2.216,0,0,1-.8-4.281,95.276,95.276,0,0,0,16.922-8.93,25.1,25.1,0,0,0,11.219-24.956c-.138-.868-.288-1.7-.435-2.544-6.4,11.07-16.848,25.926-29.84,34.607l0,0c-3.079,2.162-6.1,4.019-7.9,5.127l-.87.537c-.026.017-.053.033-.08.048A121.088,121.088,0,0,1,44.917,152.2a45.814,45.814,0,0,0-4.207,6.468c-.246.448-.5.918-.8,1.444a78.679,78.679,0,0,0-7.3,31.818,2.258,2.258,0,0,1-.1.623c-1.4,4.525-4.134,9.631-7.032,15.035-2.431,4.532-4.874,9.113-6.694,13.541.284-.1.552-.205.862-.283a4.144,4.144,0,0,1,4.313,1.353,6.289,6.289,0,0,1,.886,6.169,2.216,2.216,0,0,1-4.073-1.749,1.936,1.936,0,0,0-.2-1.556c-1.319.45-2.586.768-3.078,6.906a2.188,2.188,0,0,1-1.594,1.921,13.722,13.722,0,0,0,4.326,9.7,2.221,2.221,0,0,1,.666,1.368,15.673,15.673,0,0,0,1.731,5.613,2.129,2.129,0,0,1,.35-.154c2.188-.664,4.015-1.247,5.829-1.824l2.073-.659c1.413-2.839,6.114-11.965,10.338-16.576a2.217,2.217,0,1,1,3.268,3c-3.209,3.5-6.914,10.269-8.8,13.907,9.438,1.456,17.1-7.272,25.857-17.29,6.115-7,12.441-14.226,20.167-18.847,6.208-5,12.3-10.255,15.017-14.9a11.576,11.576,0,0,0,1.179-2.655,2.216,2.216,0,0,1,4.266,1.2,15.923,15.923,0,0,1-1.617,3.686c-2.422,4.148-6.749,8.37-12.481,13.172,20.089,4.224,34.711,16.309,41.434,34.441,7.367,19.872,3.146,43.694-10.5,59.276-9.456,10.795-22.246,16.8-37.11,17.679a98.921,98.921,0,0,0,74.793-15.294c28.2-18.993,43.944-49.483,43.2-83.647M57.83,161.117a58.025,58.025,0,0,0-6.448,3.082,10.268,10.268,0,0,1-10.045,16.55l-.394,1.478a2.218,2.218,0,0,1-2.141,1.645,2.18,2.18,0,0,1-.572-.076,2.215,2.215,0,0,1-1.57-2.712l4-14.987A2.221,2.221,0,0,1,41.6,164.8c.35-.223,8.629-5.521,14.642-7.824a2.216,2.216,0,0,1,1.587,4.138" transform="translate(-4.89 -30.357)" fill="#ccc"/>
            <path id="Path_783" data-name="Path 783" d="M54.287,206.486a5.815,5.815,0,0,0,4.924-9.984c-1.14.674-2.1,1.26-2.7,1.633Z" transform="translate(-16.69 -60.413)" fill="#fff"/>
            <path id="Path_784" data-name="Path 784" d="M115.364,26.528a2.184,2.184,0,0,1-1.642,3.643,2.217,2.217,0,0,1-1.418-.513l-.616-.514a107.247,107.247,0,0,0-9.343,7.746c.138.071.233.118.238.12a2.217,2.217,0,0,1-.927,4.231,2.185,2.185,0,0,1-.914-.2,18.237,18.237,0,0,1-1.7-.927A103.07,103.07,0,0,0,89.8,50.956c.618.141,1.018.2,1.031.2a2.216,2.216,0,0,1-.235,4.419,2.363,2.363,0,0,1-.242-.013,19.348,19.348,0,0,1-3.274-.751A111.791,111.791,0,0,0,80.1,66.73c.617.035,1.013.029,1.026.029a2.216,2.216,0,0,1,.2,4.428c-.037,0-.189.009-.436.009a22.287,22.287,0,0,1-2.848-.206,141.317,141.317,0,0,0-6.5,17.07c.035,0,.069,0,.1-.006a2.217,2.217,0,0,1,.409,4.415c-.612.057-1.226.078-1.835.082-1.716,6.114-3.077,12.2-4.225,18.149a116.413,116.413,0,0,0,14.107-7.5c.031-.019.063-.039.1-.057l.837-.515c1.692-1.041,4.175-2.578,6.822-4.4,2.847-42.563,32.771-78.4,71.822-90.515-1.734.22-3.455.5-5.175.8-15.706,4.674-28.574,10.821-39.143,18.013" transform="translate(-20.29 -2.373)" fill="#ed2f3c"/>
            <g id="Group_329" data-name="Group 329" transform="translate(61.562 18.864)" style="mix-blend-mode: multiply;isolation: isolate">
              <g id="Group_328" data-name="Group 328">
                <g id="Group_327" data-name="Group 327" clip-path="url(#clip-path-3)">
                  <path id="Path_785" data-name="Path 785" d="M139.07,27.238C93.44,54.664,89.243,98.343,88.89,108.125c1.632-1.009,3.744-2.337,6.008-3.891,2.125-31.77,19.34-59.789,44.172-77" transform="translate(-88.891 -27.238)" fill="#ed2f3c"/>
                </g>
              </g>
            </g>
            <path id="Path_786" data-name="Path 786" d="M137.79,138.56a29.8,29.8,0,0,1-4.547,3.642,107.253,107.253,0,0,1-13.909,7.718c90.675-1.146,115.329,75.04,115.329,75.04s-8.819-8.5-15.433-12.6c4.094,41.573-15.432,91.964-57.95,110.862,45.162-57.31,3.155-103.834-29.764-115.822a2.135,2.135,0,0,1-.046.616,15.963,15.963,0,0,1-1.616,3.686c-2.423,4.147-6.75,8.369-12.481,13.172,20.088,4.224,34.71,16.309,41.433,34.44,7.367,19.872,3.146,43.694-10.5,59.276-9.456,10.795-22.246,16.8-37.11,17.68a98.921,98.921,0,0,0,74.792-15.295c28.2-18.993,43.945-49.483,43.2-83.647A2.217,2.217,0,0,1,233.21,236a102.311,102.311,0,0,1,11.584,21.588,111.528,111.528,0,0,0-26.008-78.267,112.966,112.966,0,0,0-81-40.763" transform="translate(-34.186 -42.599)" fill="#999"/>
            <path id="Path_787" data-name="Path 787" d="M69.8,347.507a2.222,2.222,0,0,1-.867-.177,4.344,4.344,0,0,1-.572-.305,2.319,2.319,0,0,1-1.048-2.489,2.175,2.175,0,0,1,1.983-1.695c7.178-.294,10.87-6.514,10.808-12.507-.056-5.426-3.28-11.823-12.18-12a2.108,2.108,0,0,1-.335-.032,32.1,32.1,0,0,1-19.829-11.853,2.216,2.216,0,1,1,3.5-2.723,27.65,27.65,0,0,0,16.93,10.18c11.117.312,16.268,8.692,16.346,16.386a18.457,18.457,0,0,1-2.2,8.892,27.359,27.359,0,0,0,11.474-16.82c2.048-9.038.173-21.881-11.859-28.326a2.217,2.217,0,0,1,.994-4.171,31.481,31.481,0,0,1,19.259,5.827c-4.3-10.185-13.472-14.609-21.6-15.258a2.217,2.217,0,0,1,.353-4.419c14.473,1.157,25.319,11.435,27.633,26.182a2.216,2.216,0,0,1-3.891,1.764,27.269,27.269,0,0,0-13.884-8.789c7.641,7.78,9.388,19.034,7.316,28.169-3.182,14.036-14.265,23.521-28.232,24.164-.034,0-.069,0-.1,0" transform="translate(-14.541 -84.855)"/>
            <path id="Path_788" data-name="Path 788" d="M120.275,340.6a101.6,101.6,0,0,1-40.3-8.328,2.216,2.216,0,0,1,1.368-4.2c22.066,5,41.1-.115,53.617-14.4,12.608-14.394,16.5-36.422,9.678-54.813-6.655-17.955-21.822-29.479-42.7-32.453a2.217,2.217,0,1,1,.625-4.389c22.567,3.214,38.987,15.751,46.235,35.3,7.367,19.872,3.147,43.694-10.5,59.276-9.456,10.795-22.246,16.8-37.11,17.68a98.92,98.92,0,0,0,74.792-15.3c28.2-18.993,43.945-49.483,43.2-83.647a2.217,2.217,0,0,1,4.024-1.328A102.315,102.315,0,0,1,234.785,255.6a111.527,111.527,0,0,0-26.008-78.267A112.953,112.953,0,0,0,126.893,136.5a2.216,2.216,0,1,1,.184-4.428,117.4,117.4,0,0,1,85.108,42.416,116.089,116.089,0,0,1,26,91.681,2.216,2.216,0,0,1-4.317.323,105.622,105.622,0,0,0-10.345-23.872c-1.488,32.689-17.644,61.562-45.07,80.036A104.074,104.074,0,0,1,120.275,340.6" transform="translate(-24.176 -40.604)"/>
            <path id="Path_789" data-name="Path 789" d="M16.343,267.071a8.131,8.131,0,0,1-4.09-1.147c-3.536-2.043-6.412-6.915-7.168-12.042-10.821-11.251-2.069-27.568,4.986-40.722,2.727-5.086,5.306-9.9,6.61-13.951a82.042,82.042,0,0,1,7.793-33.476c.361-.647.608-1.1.844-1.528a51.5,51.5,0,0,1,4.983-7.579,2.224,2.224,0,0,1,1.125-.787,116.774,116.774,0,0,0,28.389-12.9c.031-.019.062-.039.095-.056l.838-.515c1.875-1.154,4.71-2.9,7.677-4.98a2.216,2.216,0,0,1,2.548,3.628c-3.079,2.162-6.1,4.019-7.9,5.127l-.87.537c-.026.017-.053.032-.08.048a121.044,121.044,0,0,1-28.706,13.137,45.766,45.766,0,0,0-4.207,6.469c-.246.448-.5.918-.8,1.443a78.684,78.684,0,0,0-7.3,31.819,2.284,2.284,0,0,1-.1.623c-1.4,4.525-4.134,9.631-7.032,15.035-7.138,13.305-14.516,27.066-5.249,36a2.221,2.221,0,0,1,.666,1.368c.409,3.956,2.592,8.023,5.077,9.458a3.462,3.462,0,0,0,3.159.3,2.1,2.1,0,0,1,.458-.2c2.188-.665,4.015-1.247,5.829-1.825l2.979-.946a2.224,2.224,0,0,1,1.379.018c10.631,3.61,18.855-5.8,28.38-16.693,6.142-7.027,12.494-14.293,20.265-18.911a2.22,2.22,0,1,1,2.106,3.9c-7.1,4.266-13.164,11.208-19.034,17.924-9.958,11.391-19.374,22.153-32.437,18.2l-2.294.727c-1.755.558-3.522,1.123-5.612,1.762a.024.024,0,0,0-.011,0,8.054,8.054,0,0,1-3.3.727" transform="translate(0 -42.115)"/>
            <path id="Path_790" data-name="Path 790" d="M45.327,118.06a2.02,2.02,0,0,1-.2-.009,2.215,2.215,0,0,1-2-2.411,129.353,129.353,0,0,1,47.8-88.491C117.158,6.091,149.691-3.2,182.521.979a2.216,2.216,0,0,1-.28,4.415,4.037,4.037,0,0,0-.743,0c-50.368,0-93.507,41.038-96.332,91.819A2.244,2.244,0,0,1,82.829,99.3a2.215,2.215,0,0,1-2.09-2.335c2.4-43.049,32.516-79.4,71.906-91.621A117.545,117.545,0,0,0,93.694,30.605a124.905,124.905,0,0,0-46.163,85.442,2.216,2.216,0,0,1-2.2,2.013" transform="translate(-13.254 0)"/>
            <path id="Path_791" data-name="Path 791" d="M38.81,310.536a2.215,2.215,0,0,1-2-3.177c.235-.492,5.831-12.06,10.764-17.442a2.217,2.217,0,0,1,3.268,3c-4.5,4.9-9.984,16.254-10.039,16.369a2.212,2.212,0,0,1-2,1.255" transform="translate(-11.251 -88.912)"/>
            <path id="Path_792" data-name="Path 792" d="M111.746,258.009a2.217,2.217,0,0,1-1.391-3.944c6.257-5.031,12.424-10.334,15.157-15.013a11.6,11.6,0,0,0,1.179-2.655,2.216,2.216,0,0,1,4.265,1.2,15.889,15.889,0,0,1-1.616,3.686c-2.925,5.009-8.594,10.111-16.207,16.234a2.209,2.209,0,0,1-1.389.489" transform="translate(-33.673 -72.181)"/>
            <path id="Path_793" data-name="Path 793" d="M14.038,288.151q-.089,0-.179-.006a2.218,2.218,0,0,1-2.033-2.387c.55-6.874,2.268-9.692,6.568-10.767a4.143,4.143,0,0,1,4.313,1.353,6.291,6.291,0,0,1,.886,6.168,2.216,2.216,0,0,1-4.073-1.749,1.934,1.934,0,0,0-.2-1.555c-1.319.449-2.587.768-3.078,6.906a2.215,2.215,0,0,1-2.206,2.039" transform="translate(-3.634 -84.499)"/>
            <path id="Path_794" data-name="Path 794" d="M47.98,209.659a2.186,2.186,0,0,1-.573-.076,2.216,2.216,0,0,1-1.57-2.712l4-14.987a2.215,2.215,0,0,1,.945-1.294c.35-.223,8.629-5.521,14.642-7.824a2.216,2.216,0,0,1,1.587,4.138,93.609,93.609,0,0,0-13.114,6.962l-3.773,14.148a2.218,2.218,0,0,1-2.141,1.645" transform="translate(-14.069 -56.144)"/>
            <path id="Path_795" data-name="Path 795" d="M53.008,208.922a10.189,10.189,0,0,1-4.574-1.069,2.216,2.216,0,0,1,1.972-3.969,5.8,5.8,0,0,0,2.6.606,5.868,5.868,0,0,0,3.249-10.754,2.217,2.217,0,0,1,2.461-3.688,10.3,10.3,0,0,1-5.71,18.874" transform="translate(-14.512 -58.315)"/>
            <path id="Path_796" data-name="Path 796" d="M110.484,130.5a2.215,2.215,0,0,1-.8-4.281,95.321,95.321,0,0,0,16.922-8.93,25.1,25.1,0,0,0,11.219-24.956,141.783,141.783,0,0,0-2.96-14.213c-5.308,10.657-17.648,31.329-33.978,42.216a2.216,2.216,0,0,1-2.459-3.688c17.7-11.8,31.7-37.551,34.792-45.6a2.337,2.337,0,0,1,2.112-1.42,2.217,2.217,0,0,1,2.055,1.5,127.348,127.348,0,0,1,4.813,20.5,29.524,29.524,0,0,1-13.184,29.371,99.241,99.241,0,0,1-17.727,9.341,2.185,2.185,0,0,1-.8.152" transform="translate(-29.957 -21.41)"/>
            <path id="Path_797" data-name="Path 797" d="M66.1,127.338a34.707,34.707,0,0,1-11.484-2.227,2.216,2.216,0,0,1,1.643-4.117c.06.024,5.974,2.364,11.464,1.838a2.217,2.217,0,0,1,.409,4.415c-.679.062-1.359.09-2.033.09" transform="translate(-16.361 -37.15)"/>
            <path id="Path_798" data-name="Path 798" d="M81.559,95.955a23.617,23.617,0,0,1-12.383-3.638,2.216,2.216,0,1,1,2.437-3.7,19.365,19.365,0,0,0,10.182,2.9,2.216,2.216,0,0,1,.2,4.428c-.037,0-.188.009-.435.009" transform="translate(-20.961 -27.131)"/>
            <path id="Path_799" data-name="Path 799" d="M96.369,72.962a2.194,2.194,0,0,1-.241-.013,20.779,20.779,0,0,1-10.613-4.811,2.215,2.215,0,1,1,2.959-3.3,16.577,16.577,0,0,0,8.13,3.7,2.216,2.216,0,0,1-.235,4.419" transform="translate(-26.064 -19.76)"/>
            <path id="Path_800" data-name="Path 800" d="M113.918,52.265a2.182,2.182,0,0,1-.914-.2,23.231,23.231,0,0,1-6.509-4.75,2.216,2.216,0,0,1,3.214-3.051,19.053,19.053,0,0,0,5.135,3.77,2.217,2.217,0,0,1-.926,4.231" transform="translate(-32.553 -13.396)"/>
            <path id="Path_801" data-name="Path 801" d="M132.034,36.6a2.214,2.214,0,0,1-1.418-.513l-4.258-3.549a2.216,2.216,0,1,1,2.837-3.406l4.258,3.549a2.216,2.216,0,0,1-1.42,3.919" transform="translate(-38.603 -8.797)"/>
          </g>
        </g>
      </g>
    </g>
  </g>
</svg>