<svg xmlns="http://www.w3.org/2000/svg" xmlns:xlink="http://www.w3.org/1999/xlink" width="300" height="300" viewBox="0 0 300 300">
  <defs>
    <clipPath id="clip-path">
      <rect id="Rectangle_301" data-name="Rectangle 301" width="283.072" height="300" fill="none"/>
    </clipPath>
    <clipPath id="clip-path-3">
      <rect id="Rectangle_298" data-name="Rectangle 298" width="58.643" height="92.89" fill="none"/>
    </clipPath>
    <clipPath id="clip-path-4">
      <path id="Path_1558" data-name="Path 1558" d="M25.144,115.1c6.7-24.03,23.475-47.044,39.553-58.473a2.539,2.539,0,0,1,3.98,2.46,102.517,102.517,0,0,0-.03,29.054c20.691-32.695,33.546-48.681,80.638-40.528,6.208,1.168,10.6,4.123,13.134,8.752.021.043.051.078.07.121.087.163.192.311.275.478C169,69.539,159.5,89.81,157.53,93.745c-3.58,7.16-15.552,15.879-31.5,18.694a2.407,2.407,0,0,1-.444.04c5.393,1.217,19.342,9.172,24.289,19.561-6.975-2.325-27.931-2.9-37.406,4.025a67.967,67.967,0,0,1,17.517,10.183,69.809,69.809,0,0,1,9.8,9.617,67.768,67.768,0,0,1,10.3,16.756,62.943,62.943,0,0,1,2.761,7.506,2.54,2.54,0,0,1-3.824,2.85,63.262,63.262,0,0,0-31.092-10.18,68.8,68.8,0,0,1,12.892,71.1A67.49,67.49,0,0,1,123.2,258.11a69.846,69.846,0,0,1-11.259,12.524s0,.007-.007.01C99.3,283.179,80.092,288.06,63.306,287.311c30.8,13.87,70.211,12.151,98.652-5.389a2.427,2.427,0,0,1,.263-.144,108.628,108.628,0,0,0,46.835-57.566,2.54,2.54,0,0,1,4.947.769c.346,21.778-9.286,43.81-25.186,58.932a107.641,107.641,0,0,0,70.241-71.791c11.515-38.228,1.194-78.245-27.61-107.046a2.54,2.54,0,0,1,2.482-4.241,81.148,81.148,0,0,1,44.8,31.981C224.5,7.726,119.935,25.052,87.46,34.655c-2.294,1.239-4.573,2.533-6.824,3.912a2.539,2.539,0,0,1-3.624-3.247A80.331,80.331,0,0,1,98.479,7.68C40.218,16.044,11.192,69.7,25.144,115.1" transform="translate(-21.685 -7.68)" fill="none"/>
    </clipPath>
    <clipPath id="clip-path-5">
      <rect id="Rectangle_300" data-name="Rectangle 300" width="107.886" height="220.356" fill="none"/>
    </clipPath>
  </defs>
  <g id="lead_image" data-name="lead image" transform="translate(-1022 -377)">
    <rect id="Rectangle_352" data-name="Rectangle 352" width="300" height="300" transform="translate(1022 377)" fill="none"/>
    <g id="icon" transform="translate(1030 377)">
      <g id="Group_429" data-name="Group 429" clip-path="url(#clip-path)">
        <g id="Group_423" data-name="Group 423">
          <g id="Group_422" data-name="Group 422" clip-path="url(#clip-path)">
            <path id="Path_1539" data-name="Path 1539" d="M55.641,166.946a2.44,2.44,0,0,1-.261-.235,23.807,23.807,0,0,0-.673,12.171c3.355-.939,5.453-2.653,5.757-4.757.351-2.423-1.543-5.242-4.823-7.18" transform="translate(-11.191 -34.412)" fill="#fff"/>
            <path id="Path_1540" data-name="Path 1540" d="M21.342,117.243c.054-.425.1-.829.16-1.259a2.435,2.435,0,0,1,.5-1.148C28.7,90.808,45.473,67.794,61.55,56.365a2.54,2.54,0,0,1,3.981,2.46A102.487,102.487,0,0,0,65.5,87.879C86.192,55.185,99.046,39.2,146.138,47.35c6.208,1.169,10.6,4.123,13.135,8.753.021.042.05.077.069.121.088.163.192.311.275.479,6.238,12.57-3.263,32.842-5.231,36.777-3.581,7.16-15.553,15.879-31.5,18.694a2.492,2.492,0,0,1-.444.04,2.539,2.539,0,0,1-.44-5.039c15.868-2.8,25.5-11.281,27.844-15.965,1.062-2.122,9.963-20.562,5.578-31.35-45.594,1.6-53.149,4.389-65.058,37.525a2.539,2.539,0,1,1-4.779-1.717c12.49-34.759,21.965-39.008,66.055-40.748a15.685,15.685,0,0,0-6.4-2.571c-46.2-8-55.869,7.076-78.776,43.54A2.494,2.494,0,0,1,64.7,97.41c-.016,0-.031,0-.047,0a2.486,2.486,0,0,1-3.106-2.593,108.531,108.531,0,0,1-1.77-30.612c-14.028,12.021-28.107,33.07-33.47,54.26-4.11,32.369-5.634,52.467-5.65,52.668a2.385,2.385,0,0,1-.051.352L11.941,211.33a2.7,2.7,0,0,1-.079.285,12.018,12.018,0,0,0,8.4,15.552l.069.021c-1.29-4.341-1.265-10.043.085-17.247a2.54,2.54,0,0,1,4.992.937c-1.682,8.974-1.119,15.121,1.621,18.355l12.822,3.915a9.964,9.964,0,0,0,8.914-2.261c3.866-3.231,6.008-8.844,5.594-14.644a2.54,2.54,0,0,1,5.066-.363,23.107,23.107,0,0,1-6.15,17.749l4.755,1.515a13.279,13.279,0,0,0,11.8-1.77,13.516,13.516,0,0,0,5.784-10.647A103.509,103.509,0,0,1,76.628,211.4c.89-6.007,2.456-12.447,7.322-14.666,4.492-2.039,10.681-.182,20.707,6.219.086.055.166.114.244.176a45.653,45.653,0,0,1,16.754,35.413,41.007,41.007,0,0,1-.23,4.459q-.151,1.614-.414,3.209,1.055-2.183,1.931-4.431A63.709,63.709,0,0,0,106.935,171.8a2.541,2.541,0,0,1,1.658-4.4,70.711,70.711,0,0,1,24.253,3.445,68.087,68.087,0,0,1,9.653,4.044q-.108-.249-.22-.5a62.747,62.747,0,0,0-9.544-15.534,64.817,64.817,0,0,0-9.083-8.913,62.926,62.926,0,0,0-17.15-9.825,2.539,2.539,0,1,1,1.8-4.746c.345.131.674.3,1.017.433a69.259,69.259,0,0,1,9.114,4.421c.184.108.359.231.543.34,1.262.748,2.509,1.52,3.72,2.35,1.414.972,2.8,1.991,4.137,3.07a69.8,69.8,0,0,1,9.8,9.617,67.787,67.787,0,0,1,10.3,16.757,62.8,62.8,0,0,1,2.761,7.506,2.539,2.539,0,0,1-3.823,2.85,63.268,63.268,0,0,0-31.093-10.18,68.8,68.8,0,0,1,12.892,71.1,67.45,67.45,0,0,1-7.623,14.212,69.814,69.814,0,0,1-11.259,12.523s0,.008-.007.011c-12.625,12.535-31.837,17.416-48.622,16.668,30.8,13.87,70.21,12.151,98.651-5.389a2.369,2.369,0,0,1,.263-.144,108.624,108.624,0,0,0,46.835-57.566,2.54,2.54,0,0,1,4.947.768c.346,21.779-9.286,43.81-25.186,58.933a107.637,107.637,0,0,0,70.24-71.791c11.516-38.228,1.2-78.244-27.609-107.045a2.54,2.54,0,0,1,2.482-4.241,81.024,81.024,0,0,1,47.955,36.9c-4.063-42.572-29.114-81.125-67.423-102.6C169.379,11.367,119.35,12.652,77.49,38.3a2.538,2.538,0,0,1-3.624-3.246A80.331,80.331,0,0,1,95.333,7.414c-27.518-5.191-58.072,9.7-75.885,37.6-13.831,21.659-20.532,54.02.013,82.221a82.038,82.038,0,0,1,1.882-10m34.289,24.515c-.611,4.228-4.1,7.468-9.572,8.958l-.238,6.445a2.541,2.541,0,0,1-2.537,2.445c-.031,0-.063,0-.1,0a2.54,2.54,0,0,1-2.443-2.631l.228-6.141a29.019,29.019,0,0,1,.91-21.895l2.325-5.111a2.539,2.539,0,0,1,4.623,2.1l-1.467,3.223a2.533,2.533,0,0,1,1,.326c5.139,3.035,7.924,7.74,7.268,12.281" transform="translate(-1.33 -1.319)" fill="#fff"/>
            <path id="Path_1541" data-name="Path 1541" d="M55.641,166.946a2.44,2.44,0,0,1-.261-.235,23.807,23.807,0,0,0-.673,12.171c3.355-.939,5.453-2.653,5.757-4.757.351-2.423-1.543-5.242-4.823-7.18" transform="translate(-11.191 -34.412)" fill="#ed2f3c"/>
            <path id="Path_1542" data-name="Path 1542" d="M233.93,100.835a81.153,81.153,0,0,1,44.8,31.981C224.5,7.726,119.935,25.052,87.461,34.655c-2.3,1.239-4.574,2.533-6.825,3.912a2.538,2.538,0,0,1-3.624-3.246A80.331,80.331,0,0,1,98.479,7.68C40.219,16.044,11.192,69.7,25.144,115.1,31.845,91.074,48.619,68.06,64.7,56.631a2.54,2.54,0,0,1,3.981,2.46,102.487,102.487,0,0,0-.031,29.054c20.692-32.695,33.546-48.681,80.638-40.529,6.208,1.169,10.6,4.123,13.135,8.753.021.042.05.077.069.121.088.163.192.311.275.479C169,69.539,159.5,89.81,157.531,93.745c-3.581,7.16-15.553,15.879-31.5,18.694a2.49,2.49,0,0,1-.444.04,2.539,2.539,0,0,1-.44-5.039c15.868-2.8,25.5-11.281,27.844-15.965,1.062-2.122,9.963-20.562,5.578-31.35-45.594,1.6-53.149,4.389-65.058,37.525a2.539,2.539,0,1,1-4.779-1.717c12.49-34.759,21.965-39.008,66.055-40.748a15.685,15.685,0,0,0-6.4-2.571c-46.2-8-55.869,7.076-78.776,43.54a2.494,2.494,0,0,1-1.759,1.523c-.016,0-.031,0-.047,0a2.486,2.486,0,0,1-3.106-2.593,108.532,108.532,0,0,1-1.77-30.612A98.6,98.6,0,0,0,49.094,79.342C33.122,108.35,37.4,145.829,31.473,173.5c-3.116,14.541-5.325,25.8-4.615,34.82a2.509,2.509,0,0,1,1.693,2.828c-.234,1.247-.414,2.426-.561,3.563,2.288,7.889,7.951,13.83,18.952,18.822a10.729,10.729,0,0,0,4.966-2.377c3.866-3.231,6.008-8.844,5.594-14.644a2.54,2.54,0,0,1,5.066-.363,23.107,23.107,0,0,1-6.15,17.749l4.755,1.515a13.279,13.279,0,0,0,11.795-1.77,13.516,13.516,0,0,0,5.784-10.647,103.507,103.507,0,0,1,1.021-11.325c.89-6.007,2.456-12.447,7.322-14.666,4.492-2.039,10.681-.182,20.707,6.219.086.055.166.114.244.176A45.653,45.653,0,0,1,124.8,238.811a41.007,41.007,0,0,1-.23,4.459q-.151,1.614-.414,3.209,1.055-2.183,1.931-4.431a63.709,63.709,0,0,0-16.007-69.981,2.541,2.541,0,0,1,1.658-4.4,70.71,70.71,0,0,1,24.253,3.445,68.085,68.085,0,0,1,9.653,4.044q-.108-.249-.22-.5a62.748,62.748,0,0,0-9.544-15.534,64.818,64.818,0,0,0-9.083-8.913,62.925,62.925,0,0,0-17.15-9.825,2.539,2.539,0,1,1,1.8-4.746,68,68,0,0,1,18.531,10.614,69.8,69.8,0,0,1,9.8,9.617,67.788,67.788,0,0,1,10.3,16.757,62.811,62.811,0,0,1,2.761,7.506,2.539,2.539,0,0,1-3.823,2.85,63.268,63.268,0,0,0-31.093-10.18,68.8,68.8,0,0,1,12.892,71.1A67.451,67.451,0,0,1,123.2,258.11a69.815,69.815,0,0,1-11.259,12.523s0,.008-.007.011C99.3,283.179,80.092,288.06,63.307,287.311c30.8,13.87,70.21,12.151,98.651-5.389a2.367,2.367,0,0,1,.263-.144,108.623,108.623,0,0,0,46.835-57.566,2.54,2.54,0,0,1,4.947.768c.346,21.779-9.286,43.81-25.186,58.933a107.637,107.637,0,0,0,70.24-71.791c11.516-38.228,1.2-78.244-27.609-107.045a2.54,2.54,0,0,1,2.482-4.241M58.777,142.025c-.611,4.228-4.1,7.468-9.572,8.958l-.238,6.445a2.541,2.541,0,0,1-2.537,2.445c-.031,0-.063,0-.1,0a2.54,2.54,0,0,1-2.443-2.631l.228-6.141a29.019,29.019,0,0,1,.91-21.895l2.325-5.111a2.539,2.539,0,0,1,4.623,2.1l-1.467,3.223a2.533,2.533,0,0,1,1,.326c5.139,3.035,7.924,7.74,7.268,12.281" transform="translate(-4.476 -1.585)" fill="#ccc"/>
            <path id="Path_1543" data-name="Path 1543" d="M233.93,100.835a81.155,81.155,0,0,1,44.8,31.981C224.5,7.726,119.935,25.052,87.461,34.655c-2.3,1.238-4.574,2.532-6.825,3.912a2.539,2.539,0,0,1-3.624-3.246A80.316,80.316,0,0,1,98.479,7.68C40.218,16.044,11.192,69.7,25.144,115.1,31.845,91.074,48.618,68.059,64.7,56.63a2.54,2.54,0,0,1,3.981,2.46,102.493,102.493,0,0,0-.031,29.055c20.691-32.7,33.546-48.681,80.638-40.529,6.208,1.169,10.6,4.123,13.134,8.752.022.043.051.078.07.121.087.163.192.311.275.478C169,69.539,159.5,89.809,157.531,93.745c-3.581,7.16-15.553,15.879-31.5,18.694a2.492,2.492,0,0,1-.444.04c5.393,1.217,19.342,9.172,24.289,19.561-6.975-2.325-27.93-2.9-37.406,4.025a67.957,67.957,0,0,1,17.517,10.183,69.847,69.847,0,0,1,9.8,9.617,67.746,67.746,0,0,1,10.3,16.757,62.807,62.807,0,0,1,2.762,7.506,2.54,2.54,0,0,1-3.824,2.85,63.262,63.262,0,0,0-31.092-10.18,68.795,68.795,0,0,1,12.892,71.1A67.476,67.476,0,0,1,123.2,258.11a69.842,69.842,0,0,1-11.259,12.523s0,.008-.007.01C99.3,283.179,80.092,288.06,63.306,287.31c30.8,13.87,70.211,12.152,98.652-5.388a2.368,2.368,0,0,1,.263-.144,108.626,108.626,0,0,0,46.835-57.567,2.54,2.54,0,0,1,4.947.769c.346,21.779-9.286,43.81-25.186,58.933a107.64,107.64,0,0,0,70.24-71.791c11.516-38.228,1.2-78.244-27.609-107.045a2.54,2.54,0,0,1,2.482-4.241" transform="translate(-4.476 -1.585)" fill="#ccc"/>
            <path id="Path_1544" data-name="Path 1544" d="M302.529,237.455c11.516-38.228,1.2-78.244-27.609-107.045,22.934,58.4,34.814,114.622-27.867,159.771a81.352,81.352,0,0,1-14.764,19.066,107.639,107.639,0,0,0,70.24-71.791" transform="translate(-47.949 -26.919)" fill="#ed2f3c"/>
            <path id="Path_1545" data-name="Path 1545" d="M172.784,338.721a2.363,2.363,0,0,1,.263-.144,108.753,108.753,0,0,0,46.17-55.733c-31.065,31.579-72.71,69.188-137.454,61.2a76.187,76.187,0,0,1-7.63.063c30.8,13.87,70.21,12.151,98.651-5.389" transform="translate(-15.302 -58.384)" fill="#ed2f3c"/>
            <g id="Group_421" data-name="Group 421" transform="translate(107.99 55.758)" style="mix-blend-mode: multiply;isolation: isolate">
              <g id="Group_420" data-name="Group 420">
                <g id="Group_419" data-name="Group 419" clip-path="url(#clip-path-3)">
                  <path id="Path_1546" data-name="Path 1546" d="M189.3,116.026c9.113-13.671,5.743-35.462-2.774-45.765,5.88,12.594-3.435,32.5-5.384,36.4-3.58,7.16-15.553,15.879-31.5,18.694a2.413,2.413,0,0,1-.444.04c5.393,1.217,19.342,9.172,24.288,19.561-6.975-2.325-27.929-2.9-37.406,4.025,10.6-6.412,43.678,3.431,53.819,14.168-4.773-20.878-29.229-33.405-29.229-33.405s17.9,2.386,28.633-13.719" transform="translate(-136.079 -70.261)" fill="#ed2f3c"/>
                </g>
              </g>
            </g>
            <path id="Path_1547" data-name="Path 1547" d="M177.834,70.778c-32.342,2.121-45.6,0-54.081,11.665s-13.785,23.329-15.657,29.763c9.3,13.713,32.826,11.2,32.826,11.2s22.6-2.789,27.9-11.8,14.315-25.98,11.135-36.584Z" transform="translate(-22.313 -14.61)" fill="#999"/>
            <path id="Path_1548" data-name="Path 1548" d="M82,279.659a13.513,13.513,0,0,0,5.784-10.646,103.893,103.893,0,0,1,1.021-11.326c.89-6.007,2.457-12.447,7.322-14.666,4.492-2.039,10.681-.181,20.707,6.219a2.906,2.906,0,0,1,.244.176,45.655,45.655,0,0,1,16.755,35.414,40.982,40.982,0,0,1-.231,4.458q-.151,1.615-.414,3.209c.29-.6.526-1.218.8-1.825,5.9-19.682-1.286-35.958-19.036-52.229-19.087-17.5-30.752-2.12-31.812,11.665-1.008,13.106-4.424,21.4-12.958,22.191a21.1,21.1,0,0,1-4.728,7.615l4.756,1.515A13.277,13.277,0,0,0,82,279.659" transform="translate(-13.51 -47.603)" fill="#999"/>
            <path id="Path_1549" data-name="Path 1549" d="M103.184,300c-21.2,0-42.418-5.619-59.573-16.8a2.54,2.54,0,0,1,2.064-4.575c17.036,4.7,43.229,1.7,58.2-13.169a2.54,2.54,0,0,1,3.579,3.606c-12.626,12.535-31.838,17.416-48.623,16.668,30.8,13.87,70.21,12.151,98.651-5.389a2.308,2.308,0,0,1,.263-.144,108.626,108.626,0,0,0,46.834-57.566,2.54,2.54,0,0,1,4.947.768c.346,21.779-9.286,43.81-25.186,58.933a107.639,107.639,0,0,0,70.241-71.791c11.515-38.228,1.2-78.243-27.609-107.045a2.54,2.54,0,0,1,2.482-4.241,81.027,81.027,0,0,1,47.955,36.9c-4.063-42.572-29.114-81.125-67.423-102.6C168.049,10.047,118.02,11.332,76.16,36.982a2.538,2.538,0,0,1-3.624-3.246A80.331,80.331,0,0,1,94,6.095C66.485.9,35.931,15.8,18.118,43.7c-13.831,21.659-20.531,54.02.013,82.221,3.412-28.2,23.254-57.485,42.09-70.873a2.54,2.54,0,0,1,3.981,2.46,102,102,0,0,0,1.106,35.562,2.54,2.54,0,0,1-4.962,1.086,108.2,108.2,0,0,1-1.9-31.267c-17.471,14.971-35.052,43.944-35.731,69.755a2.539,2.539,0,0,1-4.46,1.592C-8.854,102.823-1.8,65.459,13.837,40.965,33.952,9.457,69.584-6.389,100.47,2.409a2.54,2.54,0,0,1,.785,4.506A75.16,75.16,0,0,0,81.345,28.168c41.76-22.21,90.149-22.012,131.123.952,43.588,24.432,70.641,70.177,70.6,119.386a2.54,2.54,0,0,1-4.911.9,75.241,75.241,0,0,0-40.63-41.933c24.786,29.37,33,67.729,21.913,104.523a112.53,112.53,0,0,1-85.25,78.2,2.568,2.568,0,0,1-2.843-1.5,2.539,2.539,0,0,1,.9-3.085c15.454-10.611,26.522-27.651,30.541-45.982a114.324,114.324,0,0,1-42.678,45.053c-.052.029-.106.06-.161.086C143.388,294.941,123.3,300,103.184,300" transform="translate(0 0)"/>
            <path id="Path_1550" data-name="Path 1550" d="M106.936,299.022a2.54,2.54,0,0,1-1.829-4.3,40.616,40.616,0,0,0,11.186-24.3,35.8,35.8,0,0,0,.2-3.946,40.588,40.588,0,0,0-14.781-31.391c-7.991-5.089-13.134-6.981-15.739-5.8-2.053.935-3.453,4.365-4.4,10.788a99.046,99.046,0,0,0-.972,10.774,18.558,18.558,0,0,1-7.945,14.615A18.345,18.345,0,0,1,56.4,267.914l-8.471-2.7a14.58,14.58,0,0,1-9.529.754l-19.59-5.981A17.092,17.092,0,0,1,6.928,238.041l8.6-39.532c.163-2.116,1.8-22.647,5.895-54.593a2.539,2.539,0,1,1,5.036.644c-4.29,33.464-5.865,54.3-5.88,54.506a2.488,2.488,0,0,1-.052.352l-8.664,39.843a2.778,2.778,0,0,1-.079.286,12.017,12.017,0,0,0,8.4,15.551l19.589,5.982a9.962,9.962,0,0,0,8.914-2.262c3.866-3.231,6.008-8.844,5.594-14.644a2.54,2.54,0,0,1,5.066-.362,23.105,23.105,0,0,1-6.15,17.748l4.755,1.515a13.279,13.279,0,0,0,11.795-1.77,13.516,13.516,0,0,0,5.784-10.646,103.507,103.507,0,0,1,1.021-11.326c.89-6.007,2.456-12.446,7.322-14.666,4.492-2.039,10.681-.181,20.707,6.219a2.9,2.9,0,0,1,.244.176,45.655,45.655,0,0,1,16.754,35.414,41,41,0,0,1-.23,4.458q-.151,1.615-.414,3.209,1.055-2.183,1.931-4.431a63.709,63.709,0,0,0-16.007-69.981,2.541,2.541,0,0,1,1.659-4.4,70.745,70.745,0,0,1,24.252,3.445,68.1,68.1,0,0,1,9.653,4.045c-.071-.167-.145-.332-.219-.5a62.759,62.759,0,0,0-9.544-15.534,64.73,64.73,0,0,0-9.083-8.913,62.906,62.906,0,0,0-17.15-9.826,2.539,2.539,0,1,1,1.8-4.746,68.023,68.023,0,0,1,18.531,10.614,69.81,69.81,0,0,1,9.8,9.617,67.789,67.789,0,0,1,10.3,16.756,62.817,62.817,0,0,1,2.761,7.507,2.539,2.539,0,0,1-3.823,2.849,63.29,63.29,0,0,0-31.093-10.18,68.791,68.791,0,0,1,12.892,71.1,67.411,67.411,0,0,1-7.623,14.212,69.825,69.825,0,0,1-11.364,12.62,2.53,2.53,0,0,1-1.669.628" transform="translate(-1.25 -29.25)"/>
            <path id="Path_1551" data-name="Path 1551" d="M136.759,122.32a2.539,2.539,0,0,1-.439-5.039c15.868-2.8,25.5-11.282,27.844-15.965,1.091-2.18,10.5-21.613,5.225-32.247-1.755-3.536-4.971-5.7-9.833-6.614-46.38-8.035-55.94,7.187-79.04,43.959a2.539,2.539,0,1,1-4.3-2.7c22.953-36.537,34.476-54.868,84.243-46.253,6.48,1.221,11,4.365,13.479,9.352,6.237,12.57-3.264,32.842-5.231,36.777-3.581,7.16-15.553,15.879-31.5,18.694a2.485,2.485,0,0,1-.444.04" transform="translate(-15.652 -11.426)"/>
            <path id="Path_1552" data-name="Path 1552" d="M108.518,111.634a2.535,2.535,0,0,1-2.39-3.4c12.977-36.115,22.68-39.294,71.357-40.945a2.539,2.539,0,1,1,.171,5.075c-47.126,1.6-54.693,4.038-66.75,37.586a2.539,2.539,0,0,1-2.389,1.681" transform="translate(-21.876 -13.89)"/>
            <path id="Path_1553" data-name="Path 1553" d="M51.818,189.765c-.031,0-.063,0-.1,0a2.54,2.54,0,0,1-2.444-2.631l.229-6.141a29.015,29.015,0,0,1,.909-21.895l2.325-5.111a2.539,2.539,0,0,1,4.623,2.1L55.039,161.2a23.925,23.925,0,0,0-.638,18.394,3.152,3.152,0,0,1,.2,1.091l-.245,6.637a2.54,2.54,0,0,1-2.537,2.445" transform="translate(-9.865 -31.478)"/>
            <path id="Path_1554" data-name="Path 1554" d="M54.412,182.842a2.539,2.539,0,0,1-.617-5c3.615-.908,5.869-2.689,6.187-4.883.351-2.423-1.543-5.242-4.823-7.18A2.54,2.54,0,1,1,57.74,161.4c5.139,3.035,7.924,7.74,7.268,12.28-.626,4.335-4.263,7.646-9.975,9.082a2.533,2.533,0,0,1-.621.077" transform="translate(-10.708 -33.244)"/>
            <path id="Path_1555" data-name="Path 1555" d="M28.977,286.456a2.529,2.529,0,0,1-1.8-.744c-4.412-4.412-5.527-12.053-3.407-23.364a2.54,2.54,0,0,1,4.992.937c-1.763,9.4-1.089,15.743,2.005,18.836a2.539,2.539,0,0,1-1.8,4.334" transform="translate(-4.693 -53.726)"/>
          </g>
        </g>
        <g id="Group_428" data-name="Group 428" transform="translate(17.209 6.095)">
          <g id="Group_427" data-name="Group 427" clip-path="url(#clip-path-4)">
            <path id="Path_1556" data-name="Path 1556" d="M65.453,295.589s95.5,30.491,124.068-77.384c0,0,6.625-34.791-6.211-66.9,0,0,31.053,11.193,26.5,58.394,0,0,32.71-61.435-15.734-125.741,0,0,21.116-1.7,45.959,10.267,0,0-50.888-55.526-105.354-31.925S65.453,295.589,65.453,295.589" transform="translate(-30.72 -17.749)" fill="#ed2f3c"/>
            <g id="Group_426" data-name="Group 426" transform="translate(45.491 44.572)" style="mix-blend-mode: multiply;isolation: isolate">
              <g id="Group_425" data-name="Group 425">
                <g id="Group_424" data-name="Group 424" clip-path="url(#clip-path-5)">
                  <path id="Path_1557" data-name="Path 1557" d="M79.876,282.544s71.425,19.814,82.074-77.6c0,0,1.574-31.223-10.591-58.627,0,0,23.342,7.572,24.393,49.6,0,0,17.879-56.7-22.826-109.89,0,0,15.019-3.073,33.969,5.642,0,0-41.658-45.252-78.639-20.346s-28.38,211.216-28.38,211.216" transform="translate(-79.009 -63.845)" fill="#ed2f3c"/>
                </g>
              </g>
            </g>
          </g>
        </g>
      </g>
    </g>
  </g>
</svg>