<svg xmlns="http://www.w3.org/2000/svg" xmlns:xlink="http://www.w3.org/1999/xlink" width="300" height="300" viewBox="0 0 300 300">
  <defs>
    <clipPath id="clip-path">
      <rect id="Rectangle_226" data-name="Rectangle 226" width="300" height="248.436" fill="none"/>
    </clipPath>
    <clipPath id="clip-path-3">
      <rect id="Rectangle_222" data-name="Rectangle 222" width="16.236" height="16.235" fill="none"/>
    </clipPath>
    <clipPath id="clip-path-4">
      <rect id="Rectangle_223" data-name="Rectangle 223" width="32.071" height="15.775" fill="none"/>
    </clipPath>
  </defs>
  <g id="lead_image" data-name="lead image" transform="translate(-376 -377)">
    <rect id="Rectangle_350" data-name="Rectangle 350" width="300" height="300" transform="translate(376 377)" fill="none"/>
    <g id="icon" transform="translate(376 403)">
      <g id="Group_266" data-name="Group 266" clip-path="url(#clip-path)">
        <g id="Group_265" data-name="Group 265">
          <g id="Group_264" data-name="Group 264" clip-path="url(#clip-path)">
            <path id="Path_578" data-name="Path 578" d="M399.4,156.927a8.117,8.117,0,1,0,8.118-8.118,8.129,8.129,0,0,0-8.118,8.118" transform="translate(-147.188 -54.84)" fill="#fff"/>
            <path id="Path_579" data-name="Path 579" d="M235.508,93.286a3.821,3.821,0,0,0,3.815-3.817V71.035a3.816,3.816,0,1,0-7.633,0V89.469a3.822,3.822,0,0,0,3.818,3.817" transform="translate(-85.384 -24.772)" fill="#fff"/>
            <path id="Path_580" data-name="Path 580" d="M247.594,366.785H163.545a11.791,11.791,0,0,0-11.052,7.554l-2.038,5.226H260.685l-2.038-5.226a11.793,11.793,0,0,0-11.053-7.554" transform="translate(-55.447 -135.17)" fill="#fff"/>
            <path id="Path_581" data-name="Path 581" d="M58.09,165.045a8.118,8.118,0,1,0-8.118-8.118,8.128,8.128,0,0,0,8.118,8.118" transform="translate(-18.416 -54.84)" fill="#fff"/>
            <path id="Path_582" data-name="Path 582" d="M241.109,321.038a8.118,8.118,0,1,0-8.118,8.116,8.128,8.128,0,0,0,8.118-8.116" transform="translate(-82.872 -115.319)" fill="#fff"/>
            <path id="Path_583" data-name="Path 583" d="M217.285,114.8c-.2.016-.4.062-.605.062s-.4-.045-.607-.062c-3.861,58.31-13.165,130.26-35.473,155.079h34.055V260a12.143,12.143,0,0,1,0-23.954v-67.9a2.021,2.021,0,0,1,4.042,0v67.9a12.144,12.144,0,0,1,0,23.954v9.879H252.76c-22.313-24.826-31.615-96.817-35.476-155.079" transform="translate(-66.556 -42.308)" fill="#fff"/>
            <path id="Path_584" data-name="Path 584" d="M348.5,117.27a146.647,146.647,0,0,0-98.422-44.931c.015.2.059.383.059.583V91.357c0,.21-.045.407-.062.613a185.044,185.044,0,0,1,92.757,29.406,12.194,12.194,0,0,1,5.667-4.107" transform="translate(-92.161 -26.659)" fill="#fff"/>
            <path id="Path_585" data-name="Path 585" d="M74.987,121.484A185.026,185.026,0,0,1,167.91,91.973c-.016-.206-.062-.4-.062-.616V72.922c0-.2.045-.388.059-.583a146.667,146.667,0,0,0-98.487,45,12.2,12.2,0,0,1,5.567,4.148" transform="translate(-25.583 -26.659)" fill="#fff"/>
            <path id="Path_586" data-name="Path 586" d="M59.045,266.593a6.272,6.272,0,0,0-6.221,5.338l-.366,2.333H65.632l-.366-2.333a6.272,6.272,0,0,0-6.221-5.338" transform="translate(-19.332 -98.247)" fill="#fff"/>
            <path id="Path_587" data-name="Path 587" d="M15.716,271.891a6.35,6.35,0,0,0-6.3-5.85c-.079,0-.157.009-.237.017l-.033,0a6.3,6.3,0,0,0-5.976,5.831l-.159,2.168h12.87Z" transform="translate(-1.108 -98.043)" fill="#fff"/>
            <path id="Path_588" data-name="Path 588" d="M108.616,266.593a6.273,6.273,0,0,0-6.221,5.338l-.364,2.333H115.2l-.366-2.333a6.273,6.273,0,0,0-6.221-5.338" transform="translate(-37.601 -98.247)" fill="#fff"/>
            <path id="Path_589" data-name="Path 589" d="M49.942,319.23a8.269,8.269,0,0,0,15.676,0l.916-2.676H49.026Z" transform="translate(-18.067 -116.658)" fill="#fff"/>
            <path id="Path_590" data-name="Path 590" d="M10.1,295.07a15.2,15.2,0,0,0,12.32,5.94H59.129a15.208,15.208,0,0,0,12.323-5.94l7.214-9.835H2.889Z" transform="translate(-1.065 -105.117)" fill="#fff"/>
            <path id="Path_591" data-name="Path 591" d="M408.406,266.593a6.274,6.274,0,0,0-6.221,5.338l-.365,2.333h13.172l-.365-2.333a6.274,6.274,0,0,0-6.221-5.338" transform="translate(-148.081 -98.247)" fill="#fff"/>
            <path id="Path_592" data-name="Path 592" d="M358.774,266.04c-.079,0-.156.01-.238.018l-.033,0a6.306,6.306,0,0,0-5.976,5.831l-.158,2.169h12.87l-.16-2.169a6.35,6.35,0,0,0-6.3-5.85" transform="translate(-129.857 -98.043)" fill="#fff"/>
            <path id="Path_593" data-name="Path 593" d="M457.977,266.593a6.272,6.272,0,0,0-6.22,5.338l-.365,2.333h13.171l-.366-2.333a6.272,6.272,0,0,0-6.22-5.338" transform="translate(-166.35 -98.247)" fill="#fff"/>
            <path id="Path_594" data-name="Path 594" d="M399.3,319.23a8.269,8.269,0,0,0,15.676,0l.916-2.676H398.387Z" transform="translate(-146.816 -116.658)" fill="#fff"/>
            <path id="Path_595" data-name="Path 595" d="M359.465,295.07a15.2,15.2,0,0,0,12.32,5.94h36.705a15.207,15.207,0,0,0,12.323-5.94l7.214-9.835H352.251Z" transform="translate(-129.814 -105.117)" fill="#fff"/>
            <g id="Group_257" data-name="Group 257" transform="translate(142.001 197.601)" style="mix-blend-mode: multiply;isolation: isolate">
              <g id="Group_256" data-name="Group 256">
                <g id="Group_255" data-name="Group 255" clip-path="url(#clip-path-3)">
                  <path id="Path_596" data-name="Path 596" d="M241.109,321.038a8.118,8.118,0,1,0-8.118,8.116,8.128,8.128,0,0,0,8.118-8.116" transform="translate(-224.873 -312.92)" fill="#ed2f3c"/>
                </g>
              </g>
            </g>
            <path id="Path_597" data-name="Path 597" d="M283.647,85.961a141.442,141.442,0,0,0-33.47-3.463V91.66a189.1,189.1,0,0,1,90.638,27.371,142.531,142.531,0,0,0-57.168-33.07" transform="translate(-92.197 -30.389)" fill="#ccc"/>
            <path id="Path_598" data-name="Path 598" d="M417.241,159.92a6.736,6.736,0,1,0-6.735,6.737,6.744,6.744,0,0,0,6.735-6.737" transform="translate(-148.799 -56.452)" fill="#ccc"/>
            <path id="Path_599" data-name="Path 599" d="M240.84,91.461V74.954c0-1.883-1.129-3.417-2.516-3.417s-2.517,1.534-2.517,3.417V91.461c0,1.884,1.129,3.417,2.517,3.417s2.516-1.533,2.516-3.417" transform="translate(-86.901 -26.363)" fill="#ed2f3c"/>
            <path id="Path_600" data-name="Path 600" d="M173.114,372.221c-4.633,0-8.714,2.169-10.4,5.525l-1.917,3.822H264.5l-1.917-3.822c-1.684-3.356-5.764-5.525-10.4-5.525Z" transform="translate(-59.259 -137.173)" fill="#ccc"/>
            <path id="Path_601" data-name="Path 601" d="M61.137,153.262a6.712,6.712,0,1,0,6.712,6.713,6.721,6.721,0,0,0-6.712-6.713" transform="translate(-20.057 -56.481)" fill="#ccc"/>
            <path id="Path_602" data-name="Path 602" d="M178.722,83.418a142.425,142.425,0,0,0-79.795,29.857,189.2,189.2,0,0,1,79.795-21.26Z" transform="translate(-36.457 -30.742)" fill="#ccc"/>
            <path id="Path_603" data-name="Path 603" d="M250.178,90.087v4.382a189.1,189.1,0,0,1,90.637,27.372,144.165,144.165,0,0,0-16.1-13.133,189.274,189.274,0,0,0-74.533-18.621" transform="translate(-92.197 -33.199)" fill="#999"/>
            <path id="Path_604" data-name="Path 604" d="M218.251,278.29v-9.879a12.143,12.143,0,0,1,0-23.954v-67.9a2.021,2.021,0,0,1,4.041,0v67.9a12.144,12.144,0,0,1,0,23.954v9.879h34.064c-20.5-22.813-30.022-85.454-34.426-140.67-3.861,58.31-9.264,115.851-31.572,140.67Z" transform="translate(-70.152 -50.717)" fill="#ccc"/>
            <path id="Path_605" data-name="Path 605" d="M362.515,272.534H362.5c-.069,0-.133.017-.2.02a2.087,2.087,0,0,0,.215-.019" transform="translate(-133.517 -100.435)" fill="#f68362"/>
            <path id="Path_606" data-name="Path 606" d="M348.5,117.27a146.647,146.647,0,0,0-98.422-44.931c.015.2.059.383.059.583v3.469a142.513,142.513,0,0,1,90.637,38.91,189.1,189.1,0,0,0-90.637-27.371v3.428c0,.21-.045.407-.062.613a185.044,185.044,0,0,1,92.757,29.406,12.194,12.194,0,0,1,5.667-4.107" transform="translate(-92.161 -26.659)" fill="#fbca82"/>
            <path id="Path_607" data-name="Path 607" d="M59.045,266.593a6.272,6.272,0,0,0-6.221,5.338l-.366,2.333H65.632l-.366-2.333a6.272,6.272,0,0,0-6.221-5.338" transform="translate(-19.332 -98.247)" fill="#ccc"/>
            <path id="Path_608" data-name="Path 608" d="M9.412,266.04c-.079,0-.157.01-.238.018l-.033,0a6.306,6.306,0,0,0-5.976,5.831l-.158,2.169h12.87l-.16-2.169a6.351,6.351,0,0,0-6.3-5.85" transform="translate(-1.108 -98.043)" fill="#ccc"/>
            <path id="Path_609" data-name="Path 609" d="M114.837,271.931a6.293,6.293,0,0,0-12.441,0l-.365,2.333H115.2Z" transform="translate(-37.601 -98.247)" fill="#ccc"/>
            <path id="Path_610" data-name="Path 610" d="M49.026,316.555l.916,2.676a8.27,8.27,0,0,0,15.676,0l.916-2.676Z" transform="translate(-18.067 -116.659)" fill="#999"/>
            <path id="Path_611" data-name="Path 611" d="M78.381,295.07l7.214-9.835h-63.9l7.215,9.835a15.2,15.2,0,0,0,12.32,5.94h24.83a15.207,15.207,0,0,0,12.323-5.94" transform="translate(-7.995 -105.117)" fill="#ed2f3c"/>
            <g id="Group_260" data-name="Group 260" transform="translate(45.529 180.118)" style="mix-blend-mode: multiply;isolation: isolate">
              <g id="Group_259" data-name="Group 259">
                <g id="Group_258" data-name="Group 258" clip-path="url(#clip-path-4)">
                  <path id="Path_612" data-name="Path 612" d="M91.637,285.235l-7.214,9.835A15.208,15.208,0,0,1,72.1,301.01H84.635a15.209,15.209,0,0,0,12.323-5.94l7.214-9.835Z" transform="translate(-72.1 -285.235)" fill="#ed2f3c"/>
                </g>
              </g>
            </g>
            <path id="Path_613" data-name="Path 613" d="M427.855,295.07l7.214-9.835h-63.9l7.215,9.835a15.2,15.2,0,0,0,12.32,5.94h24.83a15.208,15.208,0,0,0,12.323-5.94" transform="translate(-136.785 -105.117)" fill="#ed2f3c"/>
            <g id="Group_263" data-name="Group 263" transform="translate(266.212 180.118)" style="mix-blend-mode: multiply;isolation: isolate">
              <g id="Group_262" data-name="Group 262">
                <g id="Group_261" data-name="Group 261" clip-path="url(#clip-path-4)">
                  <path id="Path_614" data-name="Path 614" d="M441.109,285.235l-7.214,9.835a15.209,15.209,0,0,1-12.323,5.94h12.536a15.21,15.21,0,0,0,12.323-5.94l7.213-9.835Z" transform="translate(-421.572 -285.235)" fill="#ed2f3c"/>
                </g>
              </g>
            </g>
            <path id="Path_615" data-name="Path 615" d="M13.1,272.535l-.023,0c-.069,0-.134.017-.2.02a1.8,1.8,0,0,0,.225-.018" transform="translate(-4.746 -100.435)" fill="#f68362"/>
            <path id="Path_616" data-name="Path 616" d="M408.406,266.593a6.274,6.274,0,0,0-6.221,5.338l-.365,2.333h13.172l-.365-2.333a6.274,6.274,0,0,0-6.221-5.338" transform="translate(-148.081 -98.247)" fill="#ccc"/>
            <path id="Path_617" data-name="Path 617" d="M358.774,266.04c-.079,0-.156.01-.238.018l-.033,0a6.306,6.306,0,0,0-5.976,5.831l-.158,2.169h12.87l-.16-2.169a6.35,6.35,0,0,0-6.3-5.85" transform="translate(-129.857 -98.043)" fill="#ccc"/>
            <path id="Path_618" data-name="Path 618" d="M464.2,271.931a6.293,6.293,0,0,0-12.441,0l-.365,2.333h13.171Z" transform="translate(-166.35 -98.247)" fill="#ccc"/>
            <path id="Path_619" data-name="Path 619" d="M398.387,316.555l.916,2.676a8.27,8.27,0,0,0,15.676,0l.916-2.676Z" transform="translate(-146.816 -116.659)" fill="#999"/>
            <path id="Path_620" data-name="Path 620" d="M362.463,272.535l-.023,0c-.07,0-.134.017-.2.02a1.8,1.8,0,0,0,.225-.018" transform="translate(-133.494 -100.435)" fill="#f68362"/>
            <path id="Path_621" data-name="Path 621" d="M261.565,270.521a3.244,3.244,0,0,1-2.521,4.923l-18.3,1.464v1.666H274.8c-20.445-22.746-29.965-85.085-34.386-140.182-.008.508-.008,1.039.008,1.61,1.369,49.837,6.33,106.09,21.139,130.518" transform="translate(-88.598 -51.001)" fill="#999"/>
            <path id="Path_622" data-name="Path 622" d="M224.734,359.6v-1.343L207.949,359.6Z" transform="translate(-76.635 -132.027)" fill="#eca870"/>
            <path id="Path_623" data-name="Path 623" d="M192.908,94.67V90.623c-16.367.608-39.785,7.608-55.487,14.74A189.456,189.456,0,0,1,192.908,94.67" transform="translate(-50.643 -33.397)" fill="#999"/>
            <path id="Path_624" data-name="Path 624" d="M238.205,319.585a6.666,6.666,0,1,0-6.666,6.665,6.674,6.674,0,0,0,6.666-6.665" transform="translate(-82.872 -115.319)" fill="#ed2f3c"/>
            <path id="Path_625" data-name="Path 625" d="M74.7,236.491a2.019,2.019,0,0,1-1.779-1.058l-29.564-54.6-29.564,54.6a2.021,2.021,0,0,1-3.554-1.926l31.341-57.882a2.1,2.1,0,0,1,3.554,0l31.341,57.882a2.022,2.022,0,0,1-1.775,2.984" transform="translate(-3.684 -64.363)"/>
            <path id="Path_626" data-name="Path 626" d="M61.649,236.764a2.02,2.02,0,0,1-2.021-2.021v-58.2a2.021,2.021,0,1,1,4.041,0v58.2a2.02,2.02,0,0,1-2.021,2.021" transform="translate(-21.974 -64.316)"/>
            <path id="Path_627" data-name="Path 627" d="M56.86,322.568a10.342,10.342,0,0,1-10.33-10.33,2.021,2.021,0,0,1,4.041,0,6.289,6.289,0,0,0,12.578,0,2.021,2.021,0,0,1,4.041,0,10.342,10.342,0,0,1-10.33,10.33" transform="translate(-17.148 -114.323)"/>
            <path id="Path_628" data-name="Path 628" d="M64.213,278.305a2.209,2.209,0,0,1-.4-.039,2.022,2.022,0,0,1-1.579-2.384,4.351,4.351,0,0,0,.087-.863,4.292,4.292,0,0,0-8.584,0,4.35,4.35,0,0,0,.078.821,2.02,2.02,0,1,1-3.966.77,8.333,8.333,0,1,1,16.514-1.591,8.406,8.406,0,0,1-.167,1.667,2.022,2.022,0,0,1-1.978,1.619" transform="translate(-18.313 -98.281)"/>
            <path id="Path_629" data-name="Path 629" d="M14.414,278.189a2.021,2.021,0,0,1-1.947-2.568,4.291,4.291,0,1,0-8.268,0,2.021,2.021,0,0,1-3.894,1.085,8.333,8.333,0,1,1,16.053.006,2.022,2.022,0,0,1-1.945,1.474" transform="translate(0 -98.077)"/>
            <path id="Path_630" data-name="Path 630" d="M101.427,278.395a2.02,2.02,0,0,1-1.972-1.593,8.333,8.333,0,1,1,16.283,0,2.021,2.021,0,0,1-3.949-.86,4.36,4.36,0,0,0,.1-.922,4.292,4.292,0,0,0-8.584,0,4.421,4.421,0,0,0,.1.926,2.019,2.019,0,0,1-1.977,2.449" transform="translate(-36.581 -98.282)"/>
            <path id="Path_631" data-name="Path 631" d="M56.182,302.693H23.495a17.093,17.093,0,0,1-14.356-7.771L.672,281.961a2.021,2.021,0,0,1,1.692-3.126H77.313a2.022,2.022,0,0,1,1.692,3.126l-8.467,12.961a17.1,17.1,0,0,1-14.357,7.771M6.1,282.876l6.425,9.835a13.063,13.063,0,0,0,10.972,5.94H56.182a13.069,13.069,0,0,0,10.974-5.94l6.425-9.835Z" transform="translate(-0.127 -102.758)"/>
            <path id="Path_632" data-name="Path 632" d="M424.123,236.491a2.019,2.019,0,0,1-1.778-1.058l-29.564-54.6-29.566,54.6a2.02,2.02,0,1,1-3.552-1.926L391,175.625a2.1,2.1,0,0,1,3.552,0L425.9,233.507a2.021,2.021,0,0,1-1.774,2.984" transform="translate(-132.454 -64.363)"/>
            <path id="Path_633" data-name="Path 633" d="M411.072,236.764a2.019,2.019,0,0,1-2.021-2.021v-58.2a2.021,2.021,0,1,1,4.041,0v58.2a2.019,2.019,0,0,1-2.021,2.021" transform="translate(-150.746 -64.316)"/>
            <path id="Path_634" data-name="Path 634" d="M406.282,322.568a10.341,10.341,0,0,1-10.33-10.33,2.021,2.021,0,0,1,4.042,0,6.289,6.289,0,0,0,12.578,0,2.021,2.021,0,1,1,4.041,0,10.341,10.341,0,0,1-10.33,10.33" transform="translate(-145.919 -114.323)"/>
            <path id="Path_635" data-name="Path 635" d="M401.21,278.033a2.02,2.02,0,0,1-1.993-1.705,8.124,8.124,0,0,1-.1-1.308,8.333,8.333,0,0,1,16.667,0,8.04,8.04,0,0,1-.1,1.3,2.02,2.02,0,1,1-3.99-.636,4.372,4.372,0,0,0,.051-.667,4.292,4.292,0,0,0-8.584,0,4.437,4.437,0,0,0,.052.677,2.018,2.018,0,0,1-1.68,2.31,1.872,1.872,0,0,1-.318.026" transform="translate(-147.084 -98.282)"/>
            <path id="Path_636" data-name="Path 636" d="M363.839,278.189a2.071,2.071,0,0,1-.542-.073,2.021,2.021,0,0,1-1.407-2.488,4.362,4.362,0,0,0,.158-1.163,4.291,4.291,0,1,0-8.426,1.154,2.021,2.021,0,0,1-3.892,1.094,8.334,8.334,0,1,1,16.36-2.248,8.42,8.42,0,0,1-.3,2.244,2.022,2.022,0,0,1-1.946,1.48" transform="translate(-128.772 -98.077)"/>
            <path id="Path_637" data-name="Path 637" d="M450.85,278.395a2.022,2.022,0,0,1-1.972-1.583,8.334,8.334,0,1,1,16.28-.01,2.02,2.02,0,1,1-3.947-.86,4.423,4.423,0,0,0,.1-.922,4.292,4.292,0,0,0-8.584,0,4.22,4.22,0,0,0,.1.916,2.023,2.023,0,0,1-1.535,2.412,2.113,2.113,0,0,1-.44.047" transform="translate(-165.352 -98.282)"/>
            <path id="Path_638" data-name="Path 638" d="M405.6,302.693H372.918a17.094,17.094,0,0,1-14.356-7.771l-8.468-12.961a2.02,2.02,0,0,1,1.692-3.126h74.951a2.02,2.02,0,0,1,1.691,3.126l-8.467,12.961a17.1,17.1,0,0,1-14.356,7.771m-50.085-19.816,6.425,9.835a13.07,13.07,0,0,0,10.974,5.94H405.6a13.07,13.07,0,0,0,10.974-5.94L423,282.876Z" transform="translate(-128.897 -102.758)"/>
            <path id="Path_639" data-name="Path 639" d="M345.771,121.507a2.014,2.014,0,0,1-1.466-.63,142.7,142.7,0,0,0-98.12-44.667,2.019,2.019,0,0,1-1.936-2.1,2.063,2.063,0,0,1,2.1-1.935,146.718,146.718,0,0,1,100.888,45.921,2.021,2.021,0,0,1-1.466,3.412" transform="translate(-90.011 -26.597)"/>
            <path id="Path_640" data-name="Path 640" d="M343.661,131.922a2.017,2.017,0,0,1-1.113-.335,185.081,185.081,0,0,0-96.23-30.648,2.02,2.02,0,0,1,.063-4.04h.067a189.09,189.09,0,0,1,98.33,31.315,2.02,2.02,0,0,1-1.117,3.705" transform="translate(-90.054 -35.71)"/>
            <path id="Path_641" data-name="Path 641" d="M72.629,131.941a2.021,2.021,0,0,1-1.118-3.706A189.081,189.081,0,0,1,169.981,96.9c.021,0,.044,0,.065,0a2.02,2.02,0,0,1,.063,4.039,185.071,185.071,0,0,0-96.366,30.67,2.018,2.018,0,0,1-1.114.335" transform="translate(-26.02 -35.709)"/>
            <path id="Path_642" data-name="Path 642" d="M69.372,121.436a2.02,2.02,0,0,1-1.465-3.412A146.735,146.735,0,0,1,168.689,72.172a1.967,1.967,0,0,1,2.1,1.934,2.021,2.021,0,0,1-1.935,2.1,142.714,142.714,0,0,0-98.02,44.6,2.011,2.011,0,0,1-1.465.63" transform="translate(-24.821 -26.593)"/>
            <path id="Path_643" data-name="Path 643" d="M405.155,166.728a12.16,12.16,0,1,1,12.158-12.16,12.172,12.172,0,0,1-12.158,12.16m0-20.278a8.118,8.118,0,1,0,8.116,8.118,8.129,8.129,0,0,0-8.116-8.118" transform="translate(-144.829 -52.481)"/>
            <path id="Path_644" data-name="Path 644" d="M55.732,166.728a12.16,12.16,0,1,1,12.16-12.16,12.173,12.173,0,0,1-12.16,12.16m0-20.278a8.118,8.118,0,1,0,8.118,8.118,8.128,8.128,0,0,0-8.118-8.118" transform="translate(-16.057 -52.481)"/>
            <path id="Path_645" data-name="Path 645" d="M236.94,42.058a2.015,2.015,0,0,1-1.053-.3,1.868,1.868,0,0,1-.856.152,2.019,2.019,0,0,1-1.939-2.1c.736-18.638.879-32.647.907-37.805a2.024,2.024,0,0,1,4.048,0c.028,5.2.175,19.317.913,37.947a2.019,2.019,0,0,1-1.939,2.1c-.027,0-.054,0-.081,0" transform="translate(-85.9)"/>
            <path id="Path_646" data-name="Path 646" d="M279.032,271.685a2,2,0,0,1-1.287-.466c-25.2-20.884-35.244-98.722-39.235-160.341a2.022,2.022,0,0,1,1.887-2.147,2.048,2.048,0,0,1,2.147,1.886c3.94,60.827,13.69,137.526,37.779,157.493a2.02,2.02,0,0,1-1.291,3.575" transform="translate(-87.896 -40.07)"/>
            <path id="Path_647" data-name="Path 647" d="M171.606,271.556a2.02,2.02,0,0,1-1.291-3.575c24.112-19.986,33.861-96.8,37.792-157.711a2.043,2.043,0,0,1,2.147-1.887,2.023,2.023,0,0,1,1.887,2.147c-3.983,61.708-14.026,139.657-39.247,160.56a2.007,2.007,0,0,1-1.289.466" transform="translate(-62.496 -39.941)"/>
            <path id="Path_648" data-name="Path 648" d="M260.737,381.247H144.6a2.021,2.021,0,0,1-1.883-2.755l3.111-7.98a15.8,15.8,0,0,1,14.817-10.127H244.69a15.8,15.8,0,0,1,14.817,10.127l3.112,7.98a2.021,2.021,0,0,1-1.882,2.755m-113.185-4.042H257.781l-2.038-5.225a11.793,11.793,0,0,0-11.053-7.554H160.642a11.791,11.791,0,0,0-11.051,7.554Z" transform="translate(-52.543 -132.811)"/>
            <path id="Path_649" data-name="Path 649" d="M236.55,356.523a2.02,2.02,0,0,1-2.021-2.021V340.959a2.021,2.021,0,0,1,4.041,0V354.5a2.02,2.02,0,0,1-2.021,2.021" transform="translate(-86.43 -124.908)"/>
            <path id="Path_650" data-name="Path 650" d="M236.55,269.5a2.02,2.02,0,0,1-2.021-2.021V198.1a2.021,2.021,0,1,1,4.041,0v69.385a2.02,2.02,0,0,1-2.021,2.021" transform="translate(-86.43 -72.26)"/>
            <path id="Path_651" data-name="Path 651" d="M230.633,330.838a12.159,12.159,0,1,1,12.159-12.158,12.173,12.173,0,0,1-12.159,12.158m0-20.276a8.117,8.117,0,1,0,8.118,8.118,8.128,8.128,0,0,0-8.118-8.118" transform="translate(-80.513 -112.961)"/>
            <path id="Path_652" data-name="Path 652" d="M233.149,94.97a7.867,7.867,0,0,1-7.859-7.858V68.677a7.858,7.858,0,1,1,15.715,0V87.112a7.865,7.865,0,0,1-7.856,7.858m0-30.109a3.822,3.822,0,0,0-3.818,3.817V87.112a3.816,3.816,0,1,0,7.633,0V68.677a3.821,3.821,0,0,0-3.815-3.817" transform="translate(-83.025 -22.413)"/>
          </g>
        </g>
      </g>
    </g>
  </g>
</svg>