<svg xmlns="http://www.w3.org/2000/svg" xmlns:xlink="http://www.w3.org/1999/xlink" width="300" height="300" viewBox="0 0 300 300">
  <defs>
    <clipPath id="clip-path">
      <rect id="Rectangle_265" data-name="Rectangle 265" width="236.075" height="300" fill="none"/>
    </clipPath>
    <clipPath id="clip-path-3">
      <rect id="Rectangle_256" data-name="Rectangle 256" width="14.137" height="7.521" fill="none"/>
    </clipPath>
    <clipPath id="clip-path-4">
      <rect id="Rectangle_257" data-name="Rectangle 257" width="11.129" height="4.778" fill="none"/>
    </clipPath>
    <clipPath id="clip-path-5">
      <rect id="Rectangle_258" data-name="Rectangle 258" width="19.482" height="12.065" fill="none"/>
    </clipPath>
    <clipPath id="clip-path-6">
      <rect id="Rectangle_259" data-name="Rectangle 259" width="15.476" height="6.936" fill="none"/>
    </clipPath>
    <clipPath id="clip-path-7">
      <rect id="Rectangle_260" data-name="Rectangle 260" width="28.913" height="15.042" fill="none"/>
    </clipPath>
    <clipPath id="clip-path-8">
      <rect id="Rectangle_261" data-name="Rectangle 261" width="42.525" height="122.549" fill="none"/>
    </clipPath>
    <clipPath id="clip-path-9">
      <rect id="Rectangle_262" data-name="Rectangle 262" width="29.678" height="15.189" fill="none"/>
    </clipPath>
    <clipPath id="clip-path-10">
      <rect id="Rectangle_263" data-name="Rectangle 263" width="24.014" height="33.007" fill="none"/>
    </clipPath>
  </defs>
  <g id="lead_image" data-name="lead image" transform="translate(-53 -51)">
    <rect id="Rectangle_345" data-name="Rectangle 345" width="300" height="300" transform="translate(53 51)" fill="none"/>
    <g id="icon" transform="translate(85 51)">
      <g id="Group_368" data-name="Group 368" clip-path="url(#clip-path)">
        <g id="Group_367" data-name="Group 367">
          <g id="Group_366" data-name="Group 366" clip-path="url(#clip-path)">
            <path id="Path_846" data-name="Path 846" d="M132.821,14.511c4.786,2.605,12.776,8.647,19.844,17.162a96.636,96.636,0,0,1,10.479,1.376c-10.978-10.995-19.124-18.615-24.25-23.26a13.238,13.238,0,0,0-17.376-.281c-9.569,8.1-22.984,21.6-36.229,41.979,1.973-1.483,3.986-2.923,6.08-4.268,1.219-.783,2.46-1.521,3.707-2.247a2.274,2.274,0,0,1,.483-.293A100.134,100.134,0,0,1,115.9,35.83c-1.8-.975-3.445-1.741-4.791-2.351L110.057,33a2.357,2.357,0,0,1,1.985-4.275l1.015.465a62.062,62.062,0,0,1,9.106,4.933q4.7-1.126,9.476-1.79a59.607,59.607,0,0,0-11.861-6.708,2.355,2.355,0,1,1,1.731-4.381c4,1.577,11.777,5.717,16.615,10.4q4-.289,8.017-.253a67.643,67.643,0,0,0-15.57-12.74,2.356,2.356,0,1,1,2.253-4.138" transform="translate(-22.485 -1.686)" fill="#fff"/>
            <path id="Path_847" data-name="Path 847" d="M33.067,131.766a2.356,2.356,0,0,1,1.468,2.991C32.1,141.9,31.094,151.493,32.03,157.6c.186-.02.369-.053.557-.064a12.184,12.184,0,0,1,9.557,3.762c.867.913,1.7,1.855,2.451,2.786.017.019.049.06.069.085a61.147,61.147,0,0,1-6.978-22.639A2.355,2.355,0,0,1,39.856,139a2.326,2.326,0,0,1,2.53,2.17c.608,7.912,4.983,24.153,17.528,34.846a2.24,2.24,0,0,1,.336.427,52.719,52.719,0,0,0,20.91,5.16C61.2,171.674,48.9,144.086,42.879,126.662a2.36,2.36,0,0,1,.088-1.758c4.621-9.987,13.207-18.608,23.31-24.567a7.656,7.656,0,0,1-2.1-8.861,7.759,7.759,0,0,1,.8-1.43,7.7,7.7,0,0,1,5.675-13.767,2.356,2.356,0,0,1-.619,4.671,2.961,2.961,0,0,0-1.513.2,2.991,2.991,0,0,0,1.526,5.739c.05-.008.1-.032.146-.04a2.361,2.361,0,0,1,.848.052,2.329,2.329,0,0,1,1.927,1.856,2.357,2.357,0,0,1-1.868,2.759c-.126.024-.251.018-.377.035a2.991,2.991,0,0,0-2.23,4.068,3.062,3.062,0,0,0,3.092,1.865A56.891,56.891,0,0,1,95.223,91.8a9.147,9.147,0,0,1,2.122-12.671,9.211,9.211,0,0,1,5.477-15.453,9.356,9.356,0,0,1,4.677.559,2.356,2.356,0,1,1-1.733,4.381,4.541,4.541,0,1,0-2.457,8.694c.161.008.323,0,.481.021a2.621,2.621,0,0,1,2.262,2.54,2.357,2.357,0,0,1-2.351,2.223c-.045,0-.09,0-.134,0-.164-.01-.318-.052-.48-.07a4.629,4.629,0,0,0-.9.017,4.547,4.547,0,0,0,.054,9.013,2.237,2.237,0,0,1,.361.122l.662-.361c3.211-1.747,6.532-3.549,10.106-5.714a2.357,2.357,0,0,1,2.441,4.032c-3.669,2.221-7.191,4.135-10.3,5.822-10.068,5.468-17.326,9.418-21.106,18.787,9.08-5.077,19.964-13.9,24.739-17.919a2.357,2.357,0,1,1,3.033,3.608c-5.6,4.71-19.41,15.872-29.57,20.511-.318,1.563-.591,3.214-.779,5.034a125.028,125.028,0,0,0,33.687-26.714c.018-.016.029-.038.047-.054a112.386,112.386,0,0,0,7.7-9.687,2.358,2.358,0,1,1,3.852,2.72c-1.942,2.75-3.951,5.336-5.993,7.774a145.1,145.1,0,0,0,25.517,7.076c-.515-.755-.927-1.454-1.233-1.978-2.311-3.949-2.741-9.838-1.153-15.752a46.839,46.839,0,0,1,8.192-15.889,2.357,2.357,0,0,1,3.585,3.061,42.075,42.075,0,0,0-7.226,14.053c-1.25,4.65-.992,9.305.67,12.148,1.367,2.335,3.242,5.03,5.635,5.117a94.493,94.493,0,0,0,11.171-.26,93.353,93.353,0,0,0,28.1-6.73,4.258,4.258,0,0,0,2.322-5.5c-6.294-15.705-14.948-27.54-25.72-35.17-6.789-4.807-15.1-7.382-23.064-9.446l0,0h-.005a92.173,92.173,0,0,0-22.566-3,5.033,5.033,0,0,0,1.351,8.69c.163.041.33.068.489.117a2.389,2.389,0,0,1-.534,4.711,2.406,2.406,0,0,1-.582-.071c-.174-.044-.331-.122-.5-.176a5.358,5.358,0,0,0-.978-.172,5.076,5.076,0,0,0-.546,10.137,2.356,2.356,0,0,1-.126,4.708,1.108,1.108,0,0,1-.131-.005,9.746,9.746,0,0,1-3.465-18.642,9.361,9.361,0,0,1-.775-9.189A95.107,95.107,0,0,0,77.4,59.223a4.262,4.262,0,0,0-.1,4.086,4.307,4.307,0,0,0,5.026,2.142,2.356,2.356,0,1,1,1.333,4.52,8.911,8.911,0,0,1-2.53.366,8.963,8.963,0,0,1-8.943-7.889C50.4,76.8,35.454,99.272,31.13,124.289a2.347,2.347,0,0,1-.9,1.479A58.337,58.337,0,0,0,6.437,170.392a57.277,57.277,0,0,0,7.527,30.642,55.827,55.827,0,0,1,.083-14.634,2.3,2.3,0,0,1-.242-.431c-5.9-15.926-1.546-33.139,4.494-43.936a2.356,2.356,0,1,1,4.112,2.3c-4.541,8.118-8.041,20.165-6.184,32.205a49.958,49.958,0,0,1,2.98-7.472,57.008,57.008,0,0,1,4.259-6.577,12.24,12.24,0,0,1,4.024-3.5c-1.227-6.886-.194-17.622,2.585-25.757a2.362,2.362,0,0,1,2.991-1.468m134.356-51.35a7.4,7.4,0,1,1,7.393,7.8c-.135,0-.273,0-.412-.011a7.4,7.4,0,0,1-6.984-7.783Z" transform="translate(-1.687 -12.321)" fill="#fff"/>
            <path id="Path_848" data-name="Path 848" d="M170.255,378.2c10.068-9.5,24.092-25.261,37.446-48.721-2.32,1.99-4.711,3.914-7.212,5.72q-1.872,1.351-3.795,2.61a2.308,2.308,0,0,1-.765.486,108.63,108.63,0,0,1-21.752,10.855c2.172,1.049,4.148,1.846,5.742,2.469l1.174.463a2.357,2.357,0,0,1-1.754,4.376l-1.136-.448a67.27,67.27,0,0,1-10.2-4.834,107.821,107.821,0,0,1-10.744,2.623,63.544,63.544,0,0,0,13.727,6.859,2.356,2.356,0,1,1-1.491,4.469c-4.433-1.477-13.129-5.517-18.626-10.314-3.061.392-6.137.664-9.221.789,6.789,6.62,13.711,11.2,18.017,13.245a2.357,2.357,0,0,1-2.025,4.257c-5.342-2.544-14.372-8.635-22.535-17.469a104.944,104.944,0,0,1-12.162-.959c12.809,11.526,22.251,19.446,28.169,24.251a14.581,14.581,0,0,0,19.138-.727" transform="translate(-32.413 -86.861)" fill="#fff"/>
            <path id="Path_849" data-name="Path 849" d="M71.88,313.958a3.118,3.118,0,1,0-3.118-3.118,3.122,3.122,0,0,0,3.118,3.118" transform="translate(-18.128 -81.126)" fill="#fff"/>
            <path id="Path_850" data-name="Path 850" d="M233.992,94.736a2.506,2.506,0,0,0,1.937-.679,2.69,2.69,0,0,0,.207-3.79,2.683,2.683,0,1,0-2.144,4.469" transform="translate(-61.019 -23.562)" fill="#fff"/>
            <path id="Path_851" data-name="Path 851" d="M69.28,284.95c7.681,4.836,16.864,7.145,25.645,8.917l.005,0h.005a100.256,100.256,0,0,0,24.778,1.931,5.675,5.675,0,0,0-2.016-9.755c-.174-.034-.353-.054-.525-.1a2.388,2.388,0,1,1,.849-4.7c.183.037.35.109.53.154a5.707,5.707,0,1,0,1.131-11.3,2.356,2.356,0,1,1,0-4.713,10.4,10.4,0,0,1,4.569,19.76,10.3,10.3,0,0,1,1.415,10.215,103.52,103.52,0,0,0,45.415-16,4.837,4.837,0,0,0-.112-4.685,4.9,4.9,0,0,0-5.827-2.119,2.355,2.355,0,0,1-1.571-4.441,9.574,9.574,0,0,1,12.682,7.657c22.986-16.89,38.013-42.29,41.253-69.85a2.356,2.356,0,0,1,.822-1.526,63.574,63.574,0,0,0,23.257-49.969,62.418,62.418,0,0,0-10.571-33.778,60.1,60.1,0,0,1,.951,16.936,2.261,2.261,0,0,1,.32.459c7.306,16.865,3.61,35.729-2.285,47.762a2.358,2.358,0,0,1-4.234-2.076c4.562-9.306,7.685-23.01,4.634-36.276a54.853,54.853,0,0,1-2.982,9.079A60.809,60.809,0,0,1,223.2,163.9a13.079,13.079,0,0,1-4.222,4.039c1.773,7.353,1.292,19.125-1.252,28.149a2.357,2.357,0,1,1-4.537-1.279c2.258-8,2.768-18.634,1.337-25.223-.259.046-.515.1-.778.133a13,13,0,0,1-10.431-3.465c-1.047-.992-1.993-1.956-2.81-2.864-.083-.085-.194-.205-.3-.334a.865.865,0,0,1-.06-.066l0,0a14.3,14.3,0,0,0-1.052-1.068l-.03-.029a66.572,66.572,0,0,1,9.911,25.719,2.355,2.355,0,0,1-2.03,2.642,2.42,2.42,0,0,1-.308.021,2.353,2.353,0,0,1-2.334-2.051c-1.127-8.579-6.85-26.007-21.147-36.91a2.253,2.253,0,0,1-.378-.431,57.7,57.7,0,0,0-24.226-4.392c23.78,9.736,39.476,42.375,45.675,57.611a2.354,2.354,0,0,1,.007,1.76c-4.433,11.13-13.319,21.034-24.014,28.089a8.089,8.089,0,0,1,2.071,11.151,8.158,8.158,0,0,1-.937,14.269,8.217,8.217,0,0,1-3.479.775c-.205,0-.41-.007-.615-.023a2.356,2.356,0,0,1-2.17-2.529,2.322,2.322,0,0,1,2.529-2.17,3.41,3.41,0,0,0,1.737-.32,3.454,3.454,0,0,0-2.113-6.523c-.052.012-.1.039-.152.05a2.534,2.534,0,0,1-.471.046,2.234,2.234,0,0,1-.311-.055,2.269,2.269,0,0,1-.418-.073c-.042-.014-.082-.029-.124-.045a2.313,2.313,0,0,1-1.575-1.63,2.357,2.357,0,0,1,1.719-2.856c.135-.034.272-.037.407-.063a3.708,3.708,0,0,0,.647-.211,3.471,3.471,0,0,0-2.02-6.57c-.018,0-.035,0-.054,0a61.4,61.4,0,0,1-25.609,7.579,9.772,9.772,0,0,1-1.465,14.037,9.839,9.839,0,0,1-9.774,16.576,2.356,2.356,0,0,1,1.492-4.469,5.139,5.139,0,1,0,2.306-9.967c-.034,0-.066.01-.1.01-.166,0-.331,0-.5-.011a2.385,2.385,0,0,1-.055-4.77h.005c.174,0,.339.037.511.046a5.31,5.31,0,0,0,1.021-.072,5.146,5.146,0,0,0-.61-10.182,2.217,2.217,0,0,1-.444-.123l-.769.475c-3.385,2.083-6.885,4.237-10.641,6.8a2.357,2.357,0,0,1-2.655-3.894c3.848-2.625,7.393-4.809,10.825-6.919,10.824-6.664,18.567-11.456,22.048-22.268-9.663,6.007-21.261,16.5-26.294,21.218a2.356,2.356,0,1,1-3.222-3.438c5.817-5.453,20.2-18.428,30.93-24.013a57.163,57.163,0,0,0,.577-6.008,134.252,134.252,0,0,0-43.2,42.249,2.356,2.356,0,0,1-3.993-2.5c2-3.182,4.082-6.176,6.213-9.006a156.028,156.028,0,0,0-28.913-6.325c.741.929,1.338,1.81,1.758,2.445,2.708,4.1,3.512,10.406,2.146,16.865a50.644,50.644,0,0,1-7.915,17.638,2.356,2.356,0,0,1-3.747-2.858,45.959,45.959,0,0,0,7.05-15.756c1.094-5.173.531-10.265-1.468-13.294-1.648-2.5-3.813-5.386-6.59-5.313a103.272,103.272,0,0,0-42.283,9.915,4.826,4.826,0,0,0-2.295,6.376C47,264.923,57.11,277.283,69.28,284.95m-5.3-31.257a7.831,7.831,0,1,1-7.83,7.831,7.84,7.84,0,0,1,7.83-7.831" transform="translate(-10.224 -31.81)" fill="#fff"/>
            <path id="Path_852" data-name="Path 852" d="M71.88,313.958a3.118,3.118,0,1,0-3.118-3.118,3.122,3.122,0,0,0,3.118,3.118" transform="translate(-18.128 -81.126)" fill="#fff"/>
            <path id="Path_853" data-name="Path 853" d="M233.992,94.736a2.506,2.506,0,0,0,1.937-.679,2.69,2.69,0,0,0,.207-3.79,2.683,2.683,0,1,0-2.144,4.469" transform="translate(-61.019 -23.562)" fill="#fff"/>
            <path id="Path_854" data-name="Path 854" d="M200.048,96.157c-6.293-15.705-14.947-27.54-25.719-35.17a45.979,45.979,0,0,0-7.706-4.332c-14.964-2.751-27.956-3.574-39.676-2.786a5.092,5.092,0,0,0,3.093,3.363c.163.04.329.068.489.117A2.389,2.389,0,0,1,130,62.059a2.4,2.4,0,0,1-.582-.071c-.175-.044-.331-.122-.5-.175a5.3,5.3,0,0,0-.978-.172,5.075,5.075,0,0,0-.546,10.136,2.356,2.356,0,0,1-.127,4.708,1.12,1.12,0,0,1-.131-.005,9.746,9.746,0,0,1-3.464-18.641,9.962,9.962,0,0,1-1.419-3.543,113.391,113.391,0,0,0-40.34,12.279,4.283,4.283,0,0,0,3.76.683A2.356,2.356,0,1,1,87,71.777a8.883,8.883,0,0,1-2.53.366,9.048,9.048,0,0,1-6.9-3.232C47.943,86.382,38.043,128.8,38.043,128.8s-8.588,7.452-13.362,14.076c.053.024.11.023.162.052a2.357,2.357,0,0,1,.906,3.208c-4.541,8.118-8.041,20.165-6.184,32.2a50.081,50.081,0,0,1,2.979-7.473A57.121,57.121,0,0,1,26.8,164.3a12.224,12.224,0,0,1,4.024-3.5c-1.227-6.887-.194-17.623,2.584-25.758a2.357,2.357,0,1,1,4.46,1.524c-2.44,7.141-3.442,16.735-2.505,22.845.186-.019.369-.053.557-.064a12.187,12.187,0,0,1,9.558,3.762c.867.914,1.7,1.855,2.451,2.786.017.019.048.06.069.085a61.163,61.163,0,0,1-6.979-22.638,2.356,2.356,0,0,1,2.169-2.529,2.327,2.327,0,0,1,2.53,2.17c.607,7.912,4.983,24.153,17.528,34.846a2.267,2.267,0,0,1,.336.426,52.716,52.716,0,0,0,20.909,5.16c-19.955-9.934-32.264-37.522-38.28-54.946a2.357,2.357,0,0,1,.088-1.758c4.621-9.987,13.207-18.608,23.31-24.567a7.655,7.655,0,0,1-2.1-8.861,7.783,7.783,0,0,1,.8-1.43A7.7,7.7,0,0,1,74,78.084a2.356,2.356,0,1,1-.619,4.672,2.966,2.966,0,0,0-1.513.2,2.991,2.991,0,0,0,1.526,5.739c.049-.008.1-.032.146-.04a2.378,2.378,0,0,1,.848.052,2.33,2.33,0,0,1,1.927,1.856,2.357,2.357,0,0,1-1.869,2.759c-.125.024-.25.018-.376.036a2.915,2.915,0,0,0-.565.152,3,3,0,0,0-1.666,3.914,3.062,3.062,0,0,0,3.092,1.865A56.888,56.888,0,0,1,98.56,93.6a9.149,9.149,0,0,1,2.123-12.671,9.21,9.21,0,0,1,5.477-15.453,9.353,9.353,0,0,1,4.677.559,2.356,2.356,0,1,1-1.733,4.381,4.541,4.541,0,1,0-2.456,8.694c.16.008.322,0,.48.021a2.617,2.617,0,0,1,2.262,2.54,2.356,2.356,0,0,1-2.351,2.222c-.045,0-.09,0-.135,0-.163-.009-.318-.052-.479-.07a4.627,4.627,0,0,0-.9.017,4.547,4.547,0,0,0,.054,9.014,2.185,2.185,0,0,1,.361.121l.662-.361c3.211-1.747,6.532-3.549,10.105-5.714a2.357,2.357,0,0,1,2.442,4.032c-3.669,2.221-7.191,4.135-10.3,5.822-10.068,5.468-17.327,9.417-21.106,18.786,9.081-5.077,19.965-13.9,24.74-17.919a2.357,2.357,0,0,1,3.033,3.608c-5.6,4.709-19.41,15.872-29.57,20.511-.319,1.564-.591,3.214-.78,5.034a125.022,125.022,0,0,0,33.687-26.713c.017-.017.029-.038.047-.054a112.656,112.656,0,0,0,7.7-9.688,2.358,2.358,0,1,1,3.852,2.72c-1.942,2.75-3.951,5.336-5.993,7.774a145.17,145.17,0,0,0,25.517,7.077c-.515-.755-.927-1.454-1.234-1.979-2.31-3.948-2.741-9.837-1.152-15.751a46.819,46.819,0,0,1,8.192-15.889,2.357,2.357,0,1,1,3.585,3.06,42.094,42.094,0,0,0-7.225,14.053c-1.25,4.651-.992,9.305.669,12.148,1.367,2.336,3.242,5.03,5.635,5.118a94.8,94.8,0,0,0,11.172-.26,93.321,93.321,0,0,0,28.1-6.731,4.257,4.257,0,0,0,2.322-5.5m-16.966-8.029a7.338,7.338,0,0,1-4.929,1.89c-.135,0-.274,0-.412-.012a7.4,7.4,0,0,1-6.984-7.783l0,0a7.394,7.394,0,1,1,12.322,5.907" transform="translate(-5.024 -14.126)" fill="#ccc"/>
            <path id="Path_855" data-name="Path 855" d="M115.417,42.088a2.328,2.328,0,0,1-1.149-1.211c-3.169,3.775-6.272,7.5-8.646,10.361a100.63,100.63,0,0,1,15.638-6.318c-1.8-.975-3.445-1.741-4.792-2.351Z" transform="translate(-27.845 -10.777)" fill="#ed2f3c"/>
            <path id="Path_856" data-name="Path 856" d="M131.588,18.12c-2.062,2.21-6.2,7.046-10.6,12.252a2.293,2.293,0,0,1,.463.112l1.015.465a62.211,62.211,0,0,1,9.106,4.933q4.7-1.126,9.476-1.79a59.6,59.6,0,0,0-11.861-6.707A2.355,2.355,0,1,1,130.92,23c4,1.576,11.777,5.716,16.615,10.4q4-.289,8.017-.253a67.662,67.662,0,0,0-15.57-12.74,2.356,2.356,0,1,1,2.253-4.138c4.786,2.605,12.776,8.648,19.844,17.162a96.8,96.8,0,0,1,10.479,1.376c-8.5-8.517-15.287-14.987-20.3-19.639-9.05-3.58-15.548-2.535-20.665,2.948" transform="translate(-31.898 -3.449)" fill="#ed2f3c"/>
            <path id="Path_857" data-name="Path 857" d="M233.836,120.658a60.106,60.106,0,0,1,.951,16.936,2.259,2.259,0,0,1,.32.459c7.306,16.865,3.61,35.729-2.285,47.762a2.358,2.358,0,0,1-4.234-2.076c4.562-9.305,7.685-23.009,4.634-36.276a54.827,54.827,0,0,1-2.982,9.079,60.9,60.9,0,0,1-4.218,7.356,13.08,13.08,0,0,1-4.223,4.039c1.773,7.353,1.292,19.125-1.252,28.15a2.357,2.357,0,0,1-4.538-1.28c2.258-8,2.768-18.634,1.337-25.223-.258.046-.514.1-.778.133a13,13,0,0,1-10.431-3.465c-1.047-.992-1.993-1.956-2.81-2.864-.082-.085-.193-.2-.3-.334-.021-.021-.041-.044-.06-.067l0,0a14.2,14.2,0,0,0-1.052-1.068l-.03-.029a66.561,66.561,0,0,1,9.911,25.719,2.354,2.354,0,0,1-2.029,2.642,2.438,2.438,0,0,1-.308.021,2.354,2.354,0,0,1-2.334-2.051c-1.127-8.578-6.85-26.007-21.147-36.91a2.249,2.249,0,0,1-.378-.431,57.7,57.7,0,0,0-24.226-4.392c23.78,9.736,39.476,42.375,45.675,57.611a2.351,2.351,0,0,1,.007,1.76c-4.432,11.13-13.319,21.033-24.013,28.089a8.091,8.091,0,0,1,2.07,11.151,8.158,8.158,0,0,1-.937,14.269,8.214,8.214,0,0,1-3.479.776c-.2,0-.409-.007-.615-.024a2.355,2.355,0,0,1-2.169-2.529,2.321,2.321,0,0,1,2.529-2.17,3.412,3.412,0,0,0,1.737-.32,3.454,3.454,0,0,0-2.113-6.523c-.052.012-.1.04-.152.05a2.532,2.532,0,0,1-.471.046,2.224,2.224,0,0,1-.311-.054,2.275,2.275,0,0,1-.418-.073c-.042-.014-.082-.029-.124-.045a2.314,2.314,0,0,1-1.575-1.63,2.358,2.358,0,0,1,1.719-2.856c.135-.034.272-.037.407-.063a3.729,3.729,0,0,0,.647-.211,3.471,3.471,0,0,0-2.021-6.57c-.018,0-.035,0-.054,0a61.409,61.409,0,0,1-25.609,7.58,9.771,9.771,0,0,1-1.465,14.036,9.838,9.838,0,0,1-9.773,16.576,2.356,2.356,0,0,1,1.491-4.469,5.139,5.139,0,1,0,2.306-9.966c-.034,0-.066.01-.1.01-.166,0-.331-.005-.5-.012a2.385,2.385,0,0,1-.055-4.77h0c.174,0,.339.037.511.047a5.32,5.32,0,0,0,1.021-.072,5.146,5.146,0,0,0-.61-10.182,2.313,2.313,0,0,1-.444-.123l-.769.475c-3.385,2.082-6.885,4.236-10.64,6.8a2.356,2.356,0,1,1-2.655-3.893c3.848-2.626,7.394-4.81,10.825-6.92,10.824-6.664,18.568-11.456,22.048-22.268-9.663,6.007-21.261,16.5-26.294,21.218a2.356,2.356,0,1,1-3.222-3.438c5.818-5.453,20.2-18.428,30.93-24.013a57.177,57.177,0,0,0,.577-6.007,134.249,134.249,0,0,0-43.2,42.248,2.356,2.356,0,1,1-3.992-2.5c2-3.181,4.082-6.176,6.213-9.006a156,156,0,0,0-28.913-6.325c.742.928,1.339,1.81,1.758,2.445,2.708,4.1,3.512,10.406,2.146,16.865a50.644,50.644,0,0,1-7.914,17.638,2.356,2.356,0,1,1-3.746-2.858,45.958,45.958,0,0,0,7.049-15.756c1.094-5.173.532-10.265-1.468-13.294-1.205-1.828-2.692-3.854-4.489-4.786-19.1,4.635-30.862,8.908-36.658,11.288a4.14,4.14,0,0,0-1.959,6.026c2.054,3.287,5.248,8.182,9,13.2a7.867,7.867,0,1,1,4.507,5.7c3.925,4.691,8.16,8.983,12.21,11.56,8.687,5.529,26.139,11.024,48.7,11.339,0-.028.009-.055.009-.083a5.711,5.711,0,0,0-4.018-5.437c-.175-.034-.353-.054-.526-.1a2.387,2.387,0,1,1,.849-4.7c.183.036.35.108.53.154a5.707,5.707,0,1,0,1.131-11.3,2.356,2.356,0,1,1,0-4.713,10.4,10.4,0,0,1,4.569,19.76,10.391,10.391,0,0,1,2.176,6.33c0,.024-.007.048-.007.072a155.081,155.081,0,0,0,25.9-2.666,103.5,103.5,0,0,0,18.763-9.519,4.835,4.835,0,0,0-.112-4.685,4.9,4.9,0,0,0-5.827-2.119,2.355,2.355,0,0,1-1.571-4.441,9.575,9.575,0,0,1,12.682,7.657c22.986-16.89,38.013-42.29,41.253-69.85a2.356,2.356,0,0,1,.822-1.526,63.572,63.572,0,0,0,23.257-49.969,62.422,62.422,0,0,0-10.571-33.778" transform="translate(-13.046 -31.81)" fill="#ed2f3c"/>
            <path id="Path_858" data-name="Path 858" d="M167.487,371.967a8.361,8.361,0,0,0,7.179-1.143c6.393-4.452,18.885-14.121,32.964-30.184,2.261-3.515,4.523-7.221,6.768-11.164-2.32,1.99-4.711,3.914-7.212,5.72q-1.872,1.351-3.794,2.61a2.311,2.311,0,0,1-.765.487,108.682,108.682,0,0,1-21.752,10.854c2.172,1.049,4.148,1.847,5.742,2.47l1.173.463a2.358,2.358,0,0,1-1.753,4.377l-1.137-.449a67.274,67.274,0,0,1-10.194-4.833,108.424,108.424,0,0,1-10.744,2.623,63.588,63.588,0,0,0,13.727,6.859,2.355,2.355,0,1,1-1.491,4.468c-4.433-1.476-13.129-5.517-18.626-10.313-3.061.392-6.137.664-9.221.789,6.79,6.62,13.711,11.2,18.017,13.245a2.357,2.357,0,0,1,1.121,3.122" transform="translate(-39.11 -86.861)" fill="#ccc"/>
            <path id="Path_859" data-name="Path 859" d="M54.851,143.7a2.355,2.355,0,0,1,.088-1.758c4.621-9.987,13.207-18.609,23.31-24.568a7.6,7.6,0,0,1-2.7-6.012c-14.8,11.373-23.708,31.485-23.708,31.485a81.762,81.762,0,0,0,.783,13.285,2.324,2.324,0,0,1,1.738,2.082c.608,7.911,4.983,24.153,17.528,34.846a2.214,2.214,0,0,1,.336.427,52.716,52.716,0,0,0,20.909,5.16c-19.955-9.934-32.264-37.522-38.28-54.946" transform="translate(-13.658 -29.358)" fill="#999"/>
            <path id="Path_860" data-name="Path 860" d="M247.093,116.463c-14.7,2.889-32.843,2.333-48.142-.56a11.086,11.086,0,0,0,1.292,4.061c1.367,2.336,3.242,5.03,5.635,5.118a94.838,94.838,0,0,0,11.172-.26,93.328,93.328,0,0,0,28.1-6.731,4.2,4.2,0,0,0,1.94-1.628" transform="translate(-52.45 -30.556)" fill="#999"/>
            <path id="Path_861" data-name="Path 861" d="M162.2,114.942a145.155,145.155,0,0,0,25.516,7.077c-.515-.755-.927-1.454-1.234-1.979a16.765,16.765,0,0,1-2.046-7.451,78.427,78.427,0,0,1-16.243-5.422c-1.942,2.75-3.951,5.336-5.993,7.774" transform="translate(-42.762 -28.253)" fill="#999"/>
            <path id="Path_862" data-name="Path 862" d="M93.259,105.188c-.126.024-.25.018-.376.036a2.884,2.884,0,0,0-.565.152,3,3,0,0,0-1.666,3.915,3.062,3.062,0,0,0,3.092,1.865,56.883,56.883,0,0,1,23.631-5.68,9.21,9.21,0,0,1-1.574-3.986,9.041,9.041,0,0,1,.075-2.879c-6.822.3-14.266,1.356-20.751,3.95a2.342,2.342,0,0,1-1.867,2.627" transform="translate(-23.841 -25.997)" fill="#999"/>
            <path id="Path_863" data-name="Path 863" d="M131.212,100.806a4.552,4.552,0,0,0,3.928,3.884,2.235,2.235,0,0,1,.361.121l.662-.361c2.9-1.576,5.894-3.211,9.074-5.1a117.572,117.572,0,0,0-13.715-.871,4.493,4.493,0,0,0-.309,2.328" transform="translate(-34.581 -25.962)" fill="#999"/>
            <g id="Group_344" data-name="Group 344" transform="translate(109.518 22.433)" style="mix-blend-mode: multiply;isolation: isolate">
              <g id="Group_343" data-name="Group 343">
                <g id="Group_342" data-name="Group 342" clip-path="url(#clip-path-3)">
                  <path id="Path_864" data-name="Path 864" d="M162.864,37.733a79.267,79.267,0,0,0-7.735-7.269c-2.1.782-4.223,1.691-6.4,2.733a42.987,42.987,0,0,1,6.121,4.789q4-.289,8.016-.253" transform="translate(-148.727 -30.464)" fill="#ed2f3c"/>
                </g>
              </g>
            </g>
            <g id="Group_347" data-name="Group 347" transform="translate(98.024 27.656)" style="mix-blend-mode: multiply;isolation: isolate">
              <g id="Group_346" data-name="Group 346">
                <g id="Group_345" data-name="Group 345" clip-path="url(#clip-path-4)">
                  <path id="Path_865" data-name="Path 865" d="M144.248,40.545c-1.435-1.058-2.992-2.068-4.535-2.988-2.108,1.136-4.3,2.381-6.595,3.745.548.336,1.089.655,1.654,1.033q4.7-1.126,9.476-1.79" transform="translate(-133.119 -37.557)" fill="#ed2f3c"/>
                </g>
              </g>
            </g>
            <g id="Group_350" data-name="Group 350" transform="translate(121.177 19.297)" style="mix-blend-mode: multiply;isolation: isolate">
              <g id="Group_349" data-name="Group 349">
                <g id="Group_348" data-name="Group 348" clip-path="url(#clip-path-5)">
                  <path id="Path_866" data-name="Path 866" d="M173.564,36.894a96.828,96.828,0,0,1,10.48,1.376c-4.611-4.618-8.7-8.614-12.29-12.065a54.821,54.821,0,0,0-7.193,1.437,83.863,83.863,0,0,1,9,9.251" transform="translate(-164.561 -26.206)" fill="#ed2f3c"/>
                </g>
              </g>
            </g>
            <g id="Group_353" data-name="Group 353" transform="translate(121.179 214.017)" style="mix-blend-mode: multiply;isolation: isolate">
              <g id="Group_352" data-name="Group 352">
                <g id="Group_351" data-name="Group 351" clip-path="url(#clip-path-6)">
                  <path id="Path_867" data-name="Path 867" d="M175.276,290.763a2.227,2.227,0,0,1-.444-.123l-.769.475c-3.036,1.868-6.176,3.81-9.5,6.037a120.262,120.262,0,0,0,15.21.313,5.086,5.086,0,0,0,.177-2.551,5.153,5.153,0,0,0-4.676-4.151" transform="translate(-164.564 -290.64)" fill="#ed2f3c"/>
                </g>
              </g>
            </g>
            <g id="Group_356" data-name="Group 356" transform="translate(82.349 200.385)" style="mix-blend-mode: multiply;isolation: isolate">
              <g id="Group_355" data-name="Group 355">
                <g id="Group_354" data-name="Group 354" clip-path="url(#clip-path-7)">
                  <path id="Path_868" data-name="Path 868" d="M140.745,278.452a156.031,156.031,0,0,0-28.913-6.325c13.447,6.629,20.339,12.557,22.891,15.042,1.94-3.071,3.958-5.975,6.022-8.716" transform="translate(-111.832 -272.127)" fill="#ed2f3c"/>
                </g>
              </g>
            </g>
            <g id="Group_359" data-name="Group 359" transform="translate(188.837 88.848)" style="mix-blend-mode: multiply;isolation: isolate">
              <g id="Group_358" data-name="Group 358">
                <g id="Group_357" data-name="Group 357" clip-path="url(#clip-path-8)">
                  <path id="Path_869" data-name="Path 869" d="M288.4,120.658a60.105,60.105,0,0,1,.951,16.936,2.263,2.263,0,0,1,.32.459c7.306,16.865,3.61,35.729-2.285,47.762a2.358,2.358,0,0,1-4.234-2.076c4.562-9.305,7.685-23.009,4.634-36.276a54.818,54.818,0,0,1-2.982,9.079,60.905,60.905,0,0,1-4.218,7.356,13.083,13.083,0,0,1-4.223,4.039c1.773,7.353,1.292,19.125-1.252,28.15a2.357,2.357,0,0,1-4.538-1.28c2.258-8,2.768-18.634,1.337-25.223-.258.046-.514.1-.778.133a13,13,0,0,1-10.431-3.465c-1.047-.992-1.993-1.956-2.81-2.864-.083-.085-.193-.2-.3-.334-.021-.021-.041-.044-.06-.067l0,0a14.216,14.216,0,0,0-1.052-1.068c-.009-.01-.02-.019-.03-.029a66.563,66.563,0,0,1,9.912,25.719,2.343,2.343,0,0,1-1.928,2.607c3.23,16.03,5.654,15,5.654,15a98.564,98.564,0,0,1-7.494,37.986,99.233,99.233,0,0,0,12.3-37.276,2.356,2.356,0,0,1,.822-1.526,63.572,63.572,0,0,0,23.257-49.969A62.42,62.42,0,0,0,288.4,120.658" transform="translate(-256.444 -120.658)" fill="#ed2f3c"/>
                </g>
              </g>
            </g>
            <g id="Group_362" data-name="Group 362" transform="translate(139.057 205.318)" style="mix-blend-mode: multiply;isolation: isolate">
              <g id="Group_361" data-name="Group 361">
                <g id="Group_360" data-name="Group 360" clip-path="url(#clip-path-9)">
                  <path id="Path_870" data-name="Path 870" d="M215.471,285.718c.135-.033.272-.037.407-.063a3.717,3.717,0,0,0,.646-.211,3.471,3.471,0,0,0-2.02-6.57c-.019,0-.035,0-.054,0a61.423,61.423,0,0,1-25.609,7.58,9.814,9.814,0,0,1,2.135,4.448,9.655,9.655,0,0,1,.079,3.115c7.658-.706,15.937-2.4,22.668-6.038a2.326,2.326,0,0,1,1.745-2.259" transform="translate(-188.842 -278.826)" fill="#ed2f3c"/>
                </g>
              </g>
            </g>
            <g id="Group_365" data-name="Group 365" transform="translate(169.994 174.053)" style="mix-blend-mode: multiply;isolation: isolate">
              <g id="Group_364" data-name="Group 364">
                <g id="Group_363" data-name="Group 363" clip-path="url(#clip-path-10)">
                  <path id="Path_871" data-name="Path 871" d="M230.855,264.455a8.156,8.156,0,0,1,2.68,3.18,8.006,8.006,0,0,1,.571,1.739c13.668-13.857,18.78-25.72,20.763-33.007-4.433,11.13-13.319,21.033-24.014,28.088" transform="translate(-230.855 -236.367)" fill="#ed2f3c"/>
                </g>
              </g>
            </g>
            <path id="Path_872" data-name="Path 872" d="M263.075,233.059a2.3,2.3,0,0,1,.117.591,6.272,6.272,0,0,0-1.183-3.151c.38.895.739,1.757,1.066,2.56" transform="translate(-69.074 -60.767)" fill="#e66754"/>
            <path id="Path_873" data-name="Path 873" d="M157.571,363.882c-3.061.392-6.136.664-9.221.789,1.481,1.443,2.964,2.771,4.429,4.015a25.235,25.235,0,0,0,14.816,1.754,52.505,52.505,0,0,1-10.024-6.558" transform="translate(-39.11 -95.932)" fill="#999"/>
            <path id="Path_874" data-name="Path 874" d="M169.551,361.566a64.876,64.876,0,0,0,10.441,5.593,58.18,58.18,0,0,0,8.361-4.239,62.012,62.012,0,0,1-8.058-3.977,107.822,107.822,0,0,1-10.744,2.623" transform="translate(-44.699 -94.63)" fill="#999"/>
            <path id="Path_875" data-name="Path 875" d="M215.036,337.807a2.31,2.31,0,0,1-.765.486,108.63,108.63,0,0,1-21.752,10.855c2.172,1.049,4.148,1.846,5.742,2.469l1,.395c7.517-5.184,16.243-12.574,26.782-22.535-2.32,1.99-4.71,3.914-7.212,5.719-1.248.9-2.515,1.768-3.795,2.611" transform="translate(-50.754 -86.861)" fill="#999"/>
            <path id="Path_876" data-name="Path 876" d="M156.8,381.709a19.167,19.167,0,0,1-12.107-4.278c-6.815-5.532-18.262-15.16-34.091-29.609a2.356,2.356,0,1,1,3.177-3.479c15.746,14.37,27.117,23.936,33.883,29.429a14.582,14.582,0,0,0,19.138-.727c11.839-11.169,29.153-30.959,44.41-61.8a2.357,2.357,0,1,1,4.225,2.09c-15.568,31.468-33.282,51.7-45.4,63.138a19.254,19.254,0,0,1-13.236,5.235" transform="translate(-28.955 -81.709)"/>
            <path id="Path_877" data-name="Path 877" d="M140.29,277.654a2.332,2.332,0,0,1-.814-.145c-12.958-4.777-33.466-8.3-39.308-7.474a2.356,2.356,0,0,1-.674-4.664c7.237-1.029,28.612,2.925,41.611,7.716a2.357,2.357,0,0,1-.814,4.568" transform="translate(-25.697 -69.917)"/>
            <path id="Path_878" data-name="Path 878" d="M134.25,295.759a104.751,104.751,0,0,1-21.179-2.154,2.357,2.357,0,1,1,.953-4.616,102.693,102.693,0,0,0,80.607-17.546c23.4-16.886,38.691-42.543,41.966-70.391a2.354,2.354,0,0,1,.822-1.525,63.576,63.576,0,0,0,23.257-49.969A62.416,62.416,0,0,0,250.1,115.779a61.738,61.738,0,0,1-3.6,35.884,60.965,60.965,0,0,1-4.218,7.357,13.07,13.07,0,0,1-19.884,2.354c-1.047-.992-1.993-1.956-2.809-2.865-.083-.085-.194-.2-.3-.334a.831.831,0,0,1-.06-.067l0,0a14.463,14.463,0,0,0-1.052-1.068c-11.372-11.7-27.133-15.908-40.541-15.431,23.779,9.736,39.476,42.376,45.675,57.611a2.356,2.356,0,0,1,.007,1.761c-9.131,22.926-37.087,40.753-61.037,38.873a2.356,2.356,0,1,1,.364-4.7c21.4,1.673,47.27-14.637,55.938-35.049-7.182-17.378-26.065-55.535-53.681-56.562a2.356,2.356,0,0,1-.568-4.618c16.1-4.658,40.834-2.027,57.126,14.734a16.752,16.752,0,0,1,1.229,1.244,2.423,2.423,0,0,1,.17.186l.186.208c.838.929,1.705,1.8,2.6,2.653a8.268,8.268,0,0,0,6.648,2.2,8.392,8.392,0,0,0,6.059-3.727,57.328,57.328,0,0,0,3.859-6.708c4.938-11.216,6.715-29.257-.49-44.189a2.356,2.356,0,0,1,3.783-2.694,67.179,67.179,0,0,1,19.882,46.676,68.971,68.971,0,0,1-24.224,53.01c-3.654,28.8-19.569,55.271-43.774,72.741a108.126,108.126,0,0,1-63.14,20.494" transform="translate(-29.313 -26.931)"/>
            <path id="Path_879" data-name="Path 879" d="M92.774,336.681a2.381,2.381,0,0,1-.468-.046c-9.221-1.862-18.9-4.309-27.224-9.552-12.95-8.157-23.653-21.189-31.811-38.733a9.556,9.556,0,0,1,4.542-12.621,108.043,108.043,0,0,1,44.225-10.372h.155c5.55,0,8.98,5.2,10.453,7.431,2.708,4.1,3.512,10.406,2.146,16.865a50.645,50.645,0,0,1-7.914,17.638,2.356,2.356,0,0,1-3.747-2.858,45.966,45.966,0,0,0,7.05-15.756c1.094-5.173.531-10.266-1.468-13.294-1.648-2.5-3.813-5.387-6.59-5.314a103.306,103.306,0,0,0-42.284,9.916,4.827,4.827,0,0,0-2.294,6.376c7.769,16.709,17.88,29.068,30.049,36.735,7.681,4.837,16.865,7.145,25.645,8.917a2.356,2.356,0,0,1-.464,4.666" transform="translate(-8.538 -69.957)"/>
            <path id="Path_880" data-name="Path 880" d="M156.193,282.4a2.356,2.356,0,0,1-1.33-4.3c3.848-2.625,7.393-4.809,10.825-6.919,14.233-8.763,23.16-14.258,24.039-34.508a134.251,134.251,0,0,0-43.2,42.249,2.356,2.356,0,0,1-3.993-2.5c19.6-31.215,47.4-45.339,48.571-45.923a2.354,2.354,0,0,1,3.408,2.091c.184,26.27-10.947,33.122-26.35,42.608-3.385,2.083-6.885,4.237-10.64,6.8a2.347,2.347,0,0,1-1.326.409" transform="translate(-37.481 -60.701)"/>
            <path id="Path_881" data-name="Path 881" d="M70.193,316.985a7.831,7.831,0,1,1,7.831-7.831,7.84,7.84,0,0,1-7.831,7.831m0-10.949a3.118,3.118,0,1,0,3.118,3.118,3.122,3.122,0,0,0-3.118-3.118" transform="translate(-16.441 -79.439)"/>
            <path id="Path_882" data-name="Path 882" d="M216.98,336.029A2.356,2.356,0,0,1,215,332.4a4.885,4.885,0,0,0-5.738-7.239,2.356,2.356,0,0,1-1.572-4.441,9.6,9.6,0,0,1,11.283,14.216,2.353,2.353,0,0,1-1.988,1.088" transform="translate(-54.339 -84.409)"/>
            <path id="Path_883" data-name="Path 883" d="M148.375,357.646a2.357,2.357,0,0,1-1.465-4.2,5.717,5.717,0,0,0-2.437-10.088,2.357,2.357,0,0,1,.909-4.625,10.432,10.432,0,0,1,4.455,18.409,2.345,2.345,0,0,1-1.463.509" transform="translate(-37.587 -89.288)"/>
            <path id="Path_884" data-name="Path 884" d="M147.1,338.07a10.425,10.425,0,0,1-2.51-.3,2.356,2.356,0,1,1,1.132-4.574,5.719,5.719,0,1,0,1.379-11.269,2.356,2.356,0,1,1,0-4.713,10.43,10.43,0,1,1,0,20.86" transform="translate(-37.648 -83.627)"/>
            <path id="Path_885" data-name="Path 885" d="M176.121,324.383a9.857,9.857,0,0,1-3.118-.506,2.356,2.356,0,1,1,1.491-4.469,5.145,5.145,0,1,0,1.65-10.026,2.356,2.356,0,0,1,.005-4.713h0a9.857,9.857,0,0,1-.032,19.714" transform="translate(-45.185 -80.321)"/>
            <path id="Path_886" data-name="Path 886" d="M177.621,304.112c-.166,0-.331,0-.5-.012a2.358,2.358,0,0,1-2.236-2.471,2.335,2.335,0,0,1,2.471-2.236,5.291,5.291,0,0,0,1.247-.088,5.146,5.146,0,0,0-.61-10.182,2.355,2.355,0,1,1,.336-4.7,9.857,9.857,0,0,1,1.176,19.506,9.752,9.752,0,0,1-1.887.182" transform="translate(-46.106 -74.982)"/>
            <path id="Path_887" data-name="Path 887" d="M226.327,304.226c-.2,0-.41-.006-.614-.023a2.356,2.356,0,0,1-2.17-2.529,2.321,2.321,0,0,1,2.529-2.17,3.4,3.4,0,0,0,1.737-.319,3.47,3.47,0,0,0-2.308-6.51,2.357,2.357,0,1,1-1.136-4.575,8.183,8.183,0,1,1,1.962,16.126" transform="translate(-58.678 -75.89)"/>
            <path id="Path_888" data-name="Path 888" d="M224.389,288.689a2.357,2.357,0,0,1-.467-4.666,3.731,3.731,0,0,0,.812-.265,3.471,3.471,0,0,0-2.021-6.57,2.356,2.356,0,1,1-.75-4.652,8.183,8.183,0,0,1,4.77,15.489,8.442,8.442,0,0,1-1.873.619,2.611,2.611,0,0,1-.472.046" transform="translate(-57.995 -71.822)"/>
            <path id="Path_889" data-name="Path 889" d="M162.588,381.073a2.369,2.369,0,0,1-1.01-.228c-5.465-2.6-14.794-8.9-23.1-18.062a2.357,2.357,0,0,1,3.493-3.166c7.845,8.659,16.556,14.554,21.633,16.97a2.357,2.357,0,0,1-1.015,4.485" transform="translate(-36.347 -94.604)"/>
            <path id="Path_890" data-name="Path 890" d="M179.679,372.6a2.346,2.346,0,0,1-.746-.122c-4.655-1.551-14.056-5.918-19.468-11.032a2.356,2.356,0,0,1,3.236-3.424c4.6,4.344,13.134,8.457,17.722,9.988a2.356,2.356,0,0,1-.744,4.59" transform="translate(-41.846 -94.218)"/>
            <path id="Path_891" data-name="Path 891" d="M195.633,362.65a2.361,2.361,0,0,1-.877-.168l-1.136-.448a64.436,64.436,0,0,1-11.085-5.344,2.357,2.357,0,0,1,2.49-4,59.247,59.247,0,0,0,10.311,4.957l1.174.462a2.357,2.357,0,0,1-.877,4.545" transform="translate(-47.829 -92.887)"/>
            <path id="Path_892" data-name="Path 892" d="M165.311,274.948a2.356,2.356,0,0,1-1.611-4.075c6-5.624,21.117-19.27,31.935-24.537a2.357,2.357,0,1,1,2.062,4.238c-10.238,4.984-24.933,18.26-30.776,23.736a2.346,2.346,0,0,1-1.61.638" transform="translate(-42.96 -64.88)"/>
            <path id="Path_893" data-name="Path 893" d="M294.739,192.853a2.355,2.355,0,0,1-2.115-3.394c5.435-11.087,8.864-28.419,2.193-43.814a2.357,2.357,0,0,1,4.326-1.873c7.306,16.865,3.61,35.73-2.285,47.762a2.359,2.359,0,0,1-2.119,1.319" transform="translate(-77.082 -37.529)"/>
            <path id="Path_894" data-name="Path 894" d="M257.99,199.735a2.355,2.355,0,0,1-2.333-2.05c-1.127-8.579-6.85-26.008-21.147-36.91a2.356,2.356,0,1,1,2.858-3.746c15.528,11.841,21.739,30.74,22.961,40.044a2.355,2.355,0,0,1-2.029,2.642,2.3,2.3,0,0,1-.309.021" transform="translate(-61.58 -41.27)"/>
            <path id="Path_895" data-name="Path 895" d="M277.868,213.7a2.354,2.354,0,0,1-2.271-3c2.432-8.615,2.867-20.355,1-26.727a2.355,2.355,0,1,1,4.519-1.33c2.124,7.221,1.7,19.833-.978,29.337a2.361,2.361,0,0,1-2.267,1.716" transform="translate(-72.633 -47.705)"/>
            <path id="Path_896" data-name="Path 896" d="M71.5,63.3a2.358,2.358,0,0,1-2.049-3.516C85.3,31.758,102.545,14.1,114.219,4.223A17.961,17.961,0,0,1,137.8,4.61c5.948,5.389,15.914,14.736,29.62,28.667a2.356,2.356,0,1,1-3.359,3.3C150.436,22.731,140.541,13.45,134.639,8.1a13.237,13.237,0,0,0-17.376-.281c-11.38,9.628-28.2,26.861-43.706,54.277A2.356,2.356,0,0,1,71.5,63.3" transform="translate(-18.23 0)"/>
            <path id="Path_897" data-name="Path 897" d="M192.232,129.742c-7.769,0-26.311-4.653-37.2-9.458a2.357,2.357,0,0,1,1.9-4.312c11.464,5.058,30.69,9.518,36.158,9.025a2.356,2.356,0,0,1,.418,4.694q-.577.052-1.277.051" transform="translate(-40.501 -30.522)"/>
            <path id="Path_898" data-name="Path 898" d="M17.786,213.278a2.357,2.357,0,0,1-1.751-.778A62.022,62.022,0,0,1,.042,168.482a63.651,63.651,0,0,1,24.919-47.605C29.778,94.567,45.746,71.02,68.884,56.155a99.073,99.073,0,0,1,78.549-12.677,2.356,2.356,0,0,1-1.2,4.557,94.367,94.367,0,0,0-74.8,12.085c-22.3,14.325-37.6,37.094-41.988,62.471a2.35,2.35,0,0,1-.9,1.479A58.337,58.337,0,0,0,4.75,168.694a57.27,57.27,0,0,0,7.527,30.642,57.109,57.109,0,0,1,5.243-31.967,57.1,57.1,0,0,1,4.259-6.577A12.218,12.218,0,0,1,40.458,159.6c.866.913,1.7,1.855,2.451,2.786.066.074.168.2.269.331l.044.055h0a12.973,12.973,0,0,0,.9,1.013c9.569,10.974,23.292,15.673,35.351,16.122-19.956-9.934-32.264-37.522-38.28-54.946a2.353,2.353,0,0,1,.088-1.758c9.629-20.811,36.4-35.824,58.472-32.757a2.356,2.356,0,1,1-.647,4.667C79.552,92.434,55,106,45.963,124.335c5.743,16.328,21.15,52.152,46.33,54.456a2.357,2.357,0,0,1,.317,4.643c-15.067,3.482-37.757-.17-51.948-16.448a15.928,15.928,0,0,1-1.087-1.229c-.045-.051-.088-.1-.129-.159l-.209-.255c-.675-.84-1.423-1.68-2.2-2.5a7.434,7.434,0,0,0-5.85-2.3,7.541,7.541,0,0,0-5.617,3.049,53,53,0,0,0-3.868,5.951c-5.073,10.019-7.595,26.449-1.742,40.472a2.356,2.356,0,0,1-2.173,3.263" transform="translate(0 -10.622)"/>
            <path id="Path_899" data-name="Path 899" d="M207.584,111.034q-1.8,0-3.622-.067c-5.29-.193-8.264-5.276-9.533-7.446-2.311-3.948-2.741-9.837-1.153-15.752a46.836,46.836,0,0,1,8.192-15.889,2.357,2.357,0,1,1,3.585,3.06,42.085,42.085,0,0,0-7.225,14.053c-1.25,4.651-.992,9.305.67,12.148,1.367,2.336,3.242,5.03,5.635,5.118A94.807,94.807,0,0,0,215.3,106a93.331,93.331,0,0,0,28.1-6.731,4.258,4.258,0,0,0,2.322-5.5c-6.294-15.705-14.948-27.54-25.72-35.17-6.789-4.807-15.1-7.382-23.064-9.446a2.356,2.356,0,0,1,1.183-4.561c8.4,2.177,17.2,4.915,24.606,10.16,11.524,8.166,20.733,20.7,27.369,37.264a8.981,8.981,0,0,1-4.906,11.616A98.036,98.036,0,0,1,215.69,110.7c-2.651.225-5.368.338-8.107.338" transform="translate(-50.705 -11.733)"/>
            <path id="Path_900" data-name="Path 900" d="M104.394,144.89a2.359,2.359,0,0,1-2.354-2.467c1.145-24.261,11.755-30.025,26.442-38,3.211-1.747,6.532-3.548,10.106-5.713a2.357,2.357,0,0,1,2.441,4.032c-3.669,2.22-7.191,4.135-10.3,5.822-13.375,7.265-21.8,11.841-23.683,30.02a123.409,123.409,0,0,0,41.434-36.454,2.358,2.358,0,0,1,3.852,2.719c-19.592,27.751-45.893,39.368-47,39.849a2.389,2.389,0,0,1-.937.193" transform="translate(-26.901 -25.933)"/>
            <path id="Path_901" data-name="Path 901" d="M232.461,97.766c-.135,0-.274,0-.412-.011a7.4,7.4,0,0,1-6.984-7.783l0,0a7.4,7.4,0,1,1,7.393,7.8m-2.69-7.538a2.684,2.684,0,0,0,2.534,2.821,2.506,2.506,0,0,0,1.937-.679,2.69,2.69,0,0,0,.207-3.79,2.684,2.684,0,0,0-4.678,1.648" transform="translate(-59.332 -21.875)"/>
            <path id="Path_902" data-name="Path 902" d="M104.655,73.321a9.021,9.021,0,0,1-7.339-14.28,2.356,2.356,0,1,1,3.828,2.747,4.309,4.309,0,0,0,4.708,6.648,2.356,2.356,0,1,1,1.332,4.519,8.88,8.88,0,0,1-2.53.366" transform="translate(-25.208 -15.305)"/>
            <path id="Path_903" data-name="Path 903" d="M166.866,58.655a2.408,2.408,0,0,1-.583-.071,9.788,9.788,0,0,1-3.24-17.475,2.355,2.355,0,1,1,2.725,3.843,5.075,5.075,0,0,0,1.675,9.062,2.357,2.357,0,0,1-.577,4.641" transform="translate(-41.894 -10.723)"/>
            <path id="Path_904" data-name="Path 904" d="M162.641,77.681a1.3,1.3,0,0,1-.131,0,9.787,9.787,0,1,1,3.4-19.132,2.355,2.355,0,1,1-1.376,4.505,5.33,5.33,0,0,0-1.22-.214,5.075,5.075,0,0,0-.545,10.136,2.356,2.356,0,0,1-.127,4.708" transform="translate(-40.403 -15.322)"/>
            <path id="Path_905" data-name="Path 905" d="M135.365,88.127c-.045,0-.09,0-.135,0a9.259,9.259,0,1,1,3.931-17.855,2.356,2.356,0,1,1-1.733,4.381,4.547,4.547,0,1,0-1.935,8.769,2.356,2.356,0,0,1-.13,4.708" transform="translate(-33.35 -18.355)"/>
            <path id="Path_906" data-name="Path 906" d="M133.159,106.68a2.559,2.559,0,0,1-.3-.018A9.26,9.26,0,0,1,135,88.266a2.355,2.355,0,1,1-.495,4.685,4.548,4.548,0,0,0-1.05,9.034,2.357,2.357,0,0,1-.292,4.694" transform="translate(-32.892 -23.257)"/>
            <path id="Path_907" data-name="Path 907" d="M89.54,102.2a7.719,7.719,0,1,1,1-15.372,2.356,2.356,0,0,1-.619,4.671,2.969,2.969,0,0,0-1.513.2A3,3,0,0,0,90.1,97.435a2.358,2.358,0,0,1,.891,4.63,7.766,7.766,0,0,1-1.45.138" transform="translate(-21.571 -22.874)"/>
            <path id="Path_908" data-name="Path 908" d="M91.761,116.562a7.761,7.761,0,0,1-7.165-4.828,7.715,7.715,0,0,1,4.263-10.047,7.515,7.515,0,0,1,1.806-.49,2.357,2.357,0,1,1,.663,4.666,2.9,2.9,0,0,0-.7.189,3.006,3.006,0,0,0-1.666,3.915,3.064,3.064,0,0,0,3.1,1.866,2.356,2.356,0,1,1,.493,4.685,7.283,7.283,0,0,1-.8.043" transform="translate(-22.153 -26.673)"/>
            <path id="Path_909" data-name="Path 909" d="M167.15,38.95a2.355,2.355,0,0,1-1.832-.87c-6.763-8.328-14.451-14.163-18.979-16.63a2.356,2.356,0,1,1,2.253-4.138c4.907,2.672,13.19,8.935,20.386,17.794a2.356,2.356,0,0,1-1.827,3.843" transform="translate(-38.255 -4.488)"/>
            <path id="Path_910" data-name="Path 910" d="M149.021,41.629a2.349,2.349,0,0,1-1.708-.734c-3.95-4.158-11.716-8.434-15.721-10.017a2.355,2.355,0,1,1,1.73-4.381c4.214,1.662,12.666,6.163,17.407,11.154a2.356,2.356,0,0,1-1.708,3.979" transform="translate(-34.298 -6.942)"/>
            <path id="Path_911" data-name="Path 911" d="M130.04,46.871a2.344,2.344,0,0,1-1.348-.426,54.3,54.3,0,0,0-9.206-5.053l-1.05-.482a2.357,2.357,0,0,1,1.985-4.275l1.015.465a59.389,59.389,0,0,1,9.956,5.484,2.356,2.356,0,0,1-1.353,4.287" transform="translate(-30.864 -9.6)"/>
            <path id="Path_912" data-name="Path 912" d="M106.394,137.974a2.356,2.356,0,0,1-.917-4.526c9.643-4.068,23.783-15.519,29.415-20.254a2.357,2.357,0,0,1,3.033,3.608c-5.8,4.872-20.381,16.669-30.617,20.986a2.341,2.341,0,0,1-.915.186" transform="translate(-27.427 -29.696)"/>
            <path id="Path_913" data-name="Path 913" d="M17.666,221.192a2.358,2.358,0,0,1-2.211-1.537c-5.9-15.926-1.546-33.139,4.495-43.936a2.356,2.356,0,1,1,4.112,2.3c-5.526,9.879-9.528,25.575-4.186,40a2.355,2.355,0,0,1-1.392,3.028,2.311,2.311,0,0,1-.818.147" transform="translate(-3.337 -46.008)"/>
            <path id="Path_914" data-name="Path 914" d="M69.585,213.2a2.334,2.334,0,0,1-1.526-.564C54.333,200.942,49.549,183.2,48.886,174.565a2.355,2.355,0,0,1,2.169-2.529,2.327,2.327,0,0,1,2.53,2.17c.608,7.911,4.983,24.153,17.529,34.846a2.356,2.356,0,0,1-1.529,4.149" transform="translate(-12.886 -45.352)"/>
            <path id="Path_915" data-name="Path 915" d="M37.363,192.473a2.357,2.357,0,0,1-2.291-1.813c-1.6-6.775-.585-18.4,2.363-27.029a2.356,2.356,0,0,1,4.46,1.523c-2.655,7.771-3.637,18.5-2.237,24.419a2.36,2.36,0,0,1-1.751,2.838,2.458,2.458,0,0,1-.544.062" transform="translate(-9.047 -42.719)"/>
          </g>
        </g>
      </g>
    </g>
  </g>
</svg>