<svg xmlns="http://www.w3.org/2000/svg" xmlns:xlink="http://www.w3.org/1999/xlink" width="300" height="300" viewBox="0 0 300 300">
  <defs>
    <clipPath id="clip-path">
      <rect id="Rectangle_248" data-name="Rectangle 248" width="300" height="299.881" fill="none"/>
    </clipPath>
    <clipPath id="clip-path-3">
      <rect id="Rectangle_241" data-name="Rectangle 241" width="37.89" height="38.834" fill="none"/>
    </clipPath>
    <clipPath id="clip-path-4">
      <rect id="Rectangle_242" data-name="Rectangle 242" width="54.763" height="37.828" fill="none"/>
    </clipPath>
    <clipPath id="clip-path-5">
      <rect id="Rectangle_243" data-name="Rectangle 243" width="35.047" height="23.875" fill="none"/>
    </clipPath>
    <clipPath id="clip-path-6">
      <rect id="Rectangle_244" data-name="Rectangle 244" width="10.699" height="13.037" fill="none"/>
    </clipPath>
    <clipPath id="clip-path-7">
      <rect id="Rectangle_245" data-name="Rectangle 245" width="20.349" height="32.14" fill="none"/>
    </clipPath>
    <clipPath id="clip-path-8">
      <rect id="Rectangle_246" data-name="Rectangle 246" width="8.66" height="20.662" fill="none"/>
    </clipPath>
  </defs>
  <g id="lead_image" data-name="lead image" transform="translate(-1022 -51)">
    <rect id="Rectangle_348" data-name="Rectangle 348" width="300" height="300" transform="translate(1022 51)" fill="none"/>
    <g id="icon" transform="translate(1022 51)">
      <g id="Group_326" data-name="Group 326" clip-path="url(#clip-path)">
        <g id="Group_325" data-name="Group 325">
          <g id="Group_324" data-name="Group 324" clip-path="url(#clip-path)">
            <path id="Path_732" data-name="Path 732" d="M191.249,22.486a142.383,142.383,0,0,1,77.457,21.287A138.442,138.442,0,0,0,171.591,6.41a144.682,144.682,0,0,0-39.375,5.969l11.8,18.463a148.348,148.348,0,0,1,47.234-8.356" transform="translate(-21.508 -1.041)" fill="#fff"/>
            <path id="Path_733" data-name="Path 733" d="M31.036,143.425,12.48,131.786a144.616,144.616,0,0,0-6.068,39.728,138.722,138.722,0,0,0,37.452,97.218l.008.011a142.547,142.547,0,0,1-21.38-77.565,148.323,148.323,0,0,1,8.545-47.753" transform="translate(-1.041 -21.438)" fill="#fff"/>
            <path id="Path_734" data-name="Path 734" d="M93.441,78.059l-.375-4.929c-.852.722-1.687,1.469-2.525,2.212l2.968,2.968a2.528,2.528,0,0,1-.069-.251" transform="translate(-14.728 -11.896)" fill="#fff"/>
            <path id="Path_735" data-name="Path 735" d="M96.589,26.49,98.63,53.326a150.535,150.535,0,0,1,34.455-19.079L121.146,15.566A146.06,146.06,0,0,0,96.589,26.49" transform="translate(-15.712 -2.532)" fill="#fff"/>
            <path id="Path_736" data-name="Path 736" d="M43.716,143.056l-.016-.208c-.021.053-.039.107-.06.16Z" transform="translate(-7.099 -23.237)" fill="#fff"/>
            <path id="Path_737" data-name="Path 737" d="M43.069,27.664,11.329,11.059,27.934,42.8,39.95,39.69Z" transform="translate(-1.843 -1.799)" fill="#fff"/>
            <path id="Path_738" data-name="Path 738" d="M65.534,47.752,82.675,64.893q2.859-2.548,5.827-4.934L86.394,32.235a148.254,148.254,0,0,0-20.86,15.517" transform="translate(-10.66 -5.244)" fill="#fff"/>
            <path id="Path_739" data-name="Path 739" d="M252.03,290.3l22.694-1.331-53.453-53.454Z" transform="translate(-35.994 -38.312)" fill="#ed2f3c"/>
            <path id="Path_740" data-name="Path 740" d="M50.45,48.271a2.676,2.676,0,0,1-1.921,1.921l-2.1.545,5.523,5.522.054.054L253.44,257.75l4.313-.253.248-4.329-207-207Z" transform="translate(-7.552 -7.51)" fill="#fff"/>
            <path id="Path_741" data-name="Path 741" d="M34.461,129.947c1.167-2.944,2.451-5.843,3.8-8.712L35.1,80.423a146.471,146.471,0,0,0-19.405,37.753Z" transform="translate(-2.553 -13.082)" fill="#fff"/>
            <path id="Path_742" data-name="Path 742" d="M289.207,274.437l1.3-22.715-54.763-30.748Z" transform="translate(-38.349 -35.946)" fill="#fff"/>
            <path id="Path_743" data-name="Path 743" d="M46.073,60.728c-.7.784-1.408,1.567-2.093,2.364l.6,7.693,2.958,38.14A151.75,151.75,0,0,1,67.008,81.663l-17.14-17.14Z" transform="translate(-7.154 -9.879)" fill="#fff"/>
            <path id="Path_744" data-name="Path 744" d="M93.509,78.311a2.13,2.13,0,0,1-.069-.251l-.375-4.929c-.852.722-1.688,1.469-2.525,2.212Z" transform="translate(-14.728 -11.896)" fill="#e6e6e6"/>
            <path id="Path_745" data-name="Path 745" d="M43.716,143.056l-.016-.208c-.021.053-.039.107-.06.16Z" transform="translate(-7.099 -23.237)" fill="#e6e6e6"/>
            <path id="Path_746" data-name="Path 746" d="M41.662,41.4l2.159-8.326L21.854,21.583,33.348,43.555Z" transform="translate(-3.555 -3.511)" fill="#ed2f3c"/>
            <g id="Group_308" data-name="Group 308" transform="translate(200.84 212.77)" style="mix-blend-mode: multiply;isolation: isolate">
              <g id="Group_307" data-name="Group 307">
                <g id="Group_306" data-name="Group 306" clip-path="url(#clip-path-3)">
                  <path id="Path_747" data-name="Path 747" d="M277.748,292l-37.89-37.89,21.8,38.834Z" transform="translate(-239.858 -254.106)" fill="#ed2f3c"/>
                </g>
              </g>
            </g>
            <path id="Path_748" data-name="Path 748" d="M50.45,48.271a2.676,2.676,0,0,1-1.921,1.921l-2.1.545,5.523,5.522c.008.007.018.008.027.016s.015.027.027.038L253.44,257.75l4.313-.253.248-4.329-207-207Z" transform="translate(-7.552 -7.51)" fill="#ccc"/>
            <path id="Path_749" data-name="Path 749" d="M289.207,274.437l1.3-22.715-54.763-30.748Z" transform="translate(-38.349 -35.946)" fill="#ed2f3c"/>
            <g id="Group_311" data-name="Group 311" transform="translate(197.395 185.028)" style="mix-blend-mode: multiply;isolation: isolate">
              <g id="Group_310" data-name="Group 310">
                <g id="Group_309" data-name="Group 309" clip-path="url(#clip-path-4)">
                  <path id="Path_750" data-name="Path 750" d="M290.1,258.8l.405-7.08-54.763-30.748,16.665,16.665Z" transform="translate(-235.744 -220.974)" fill="#ed2f3c"/>
                </g>
              </g>
            </g>
            <path id="Path_751" data-name="Path 751" d="M49.868,64.524l-3.795-3.795c-.7.784-1.408,1.567-2.093,2.363l.6,7.693q2.552-3.194,5.292-6.261" transform="translate(-7.154 -9.879)" fill="#e6e6e6"/>
            <path id="Path_752" data-name="Path 752" d="M53.022,58.22l.054.054c-.011-.011-.015-.026-.027-.037s-.018-.009-.027-.017" transform="translate(-8.625 -9.471)" fill="#e6e6e6"/>
            <path id="Path_753" data-name="Path 753" d="M137.182,19.681l7.641,11.958a148.33,148.33,0,0,1,47.235-8.356,142.383,142.383,0,0,1,77.457,21.287A137.812,137.812,0,0,0,218.7,14.309a158.019,158.019,0,0,0-81.517,5.371" transform="translate(-22.315 -1.837)" fill="#ccc"/>
            <path id="Path_754" data-name="Path 754" d="M98.773,54.619A150.529,150.529,0,0,1,133.228,35.54l-7.686-12.027a157.248,157.248,0,0,0-28.07,13.993Z" transform="translate(-15.856 -3.825)" fill="#ed2f3c"/>
            <path id="Path_755" data-name="Path 755" d="M83.918,66.842q2.857-2.548,5.826-4.934L88.4,44.214a158.6,158.6,0,0,0-15.229,11.88Z" transform="translate(-11.902 -7.192)" fill="#ed2f3c"/>
            <path id="Path_756" data-name="Path 756" d="M45.888,85.641l1.958,25.24A151.764,151.764,0,0,1,67.319,83.619L56.454,72.755A158.515,158.515,0,0,0,45.888,85.641" transform="translate(-7.465 -11.835)" fill="#ed2f3c"/>
            <path id="Path_757" data-name="Path 757" d="M35.6,132.556c1.167-2.944,2.451-5.843,3.8-8.712L37.277,96.461a157.415,157.415,0,0,0-14.606,27.988Z" transform="translate(-3.688 -15.691)" fill="#ed2f3c"/>
            <path id="Path_758" data-name="Path 758" d="M9.753,202.471a137.74,137.74,0,0,0,34.562,66.942l.008.01a142.55,142.55,0,0,1-21.381-77.564,148.363,148.363,0,0,1,8.545-47.753l-12.977-8.14a157.637,157.637,0,0,0-9.33,53.556c0,4.364.224,8.674.572,12.949" transform="translate(-1.493 -22.118)" fill="#ccc"/>
            <path id="Path_759" data-name="Path 759" d="M142.759,28.772l2.972,4.651a148.329,148.329,0,0,1,47.235-8.356A146.152,146.152,0,0,1,230.721,29.5a144.23,144.23,0,0,0-87.962-.727" transform="translate(-23.223 -3.621)" fill="#999"/>
            <g id="Group_314" data-name="Group 314" transform="translate(82.325 26.919)" style="mix-blend-mode: multiply;isolation: isolate">
              <g id="Group_313" data-name="Group 313">
                <g id="Group_312" data-name="Group 312" clip-path="url(#clip-path-5)">
                  <path id="Path_760" data-name="Path 760" d="M98.911,56.024a150.531,150.531,0,0,1,34.454-19.079l-3.065-4.8A143.323,143.323,0,0,0,98.319,48.237Z" transform="translate(-98.319 -32.149)" fill="#ed2f3c"/>
                </g>
              </g>
            </g>
            <g id="Group_317" data-name="Group 317" transform="translate(67.143 46.612)" style="mix-blend-mode: multiply;isolation: isolate">
              <g id="Group_316" data-name="Group 316">
                <g id="Group_315" data-name="Group 315" clip-path="url(#clip-path-6)">
                  <path id="Path_761" data-name="Path 761" d="M85.059,68.705q2.857-2.548,5.826-4.934l-.616-8.1q-5.231,3.853-10.082,8.165Z" transform="translate(-80.187 -55.668)" fill="#ed2f3c"/>
                </g>
              </g>
            </g>
            <g id="Group_320" data-name="Group 320" transform="translate(39.506 66.906)" style="mix-blend-mode: multiply;isolation: isolate">
              <g id="Group_319" data-name="Group 319">
                <g id="Group_318" data-name="Group 318" clip-path="url(#clip-path-7)">
                  <path id="Path_762" data-name="Path 762" d="M48.056,112.044A151.752,151.752,0,0,1,67.529,84.782L62.65,79.9a144.307,144.307,0,0,0-15.47,20.854Z" transform="translate(-47.181 -79.904)" fill="#ed2f3c"/>
                </g>
              </g>
            </g>
            <g id="Group_323" data-name="Group 323" transform="translate(27.053 96.202)" style="mix-blend-mode: multiply;isolation: isolate">
              <g id="Group_322" data-name="Group 322">
                <g id="Group_321" data-name="Group 321" clip-path="url(#clip-path-8)">
                  <path id="Path_763" data-name="Path 763" d="M37.164,135.554c1.167-2.944,2.451-5.843,3.8-8.712l-.927-11.95a143,143,0,0,0-7.733,17.617Z" transform="translate(-32.308 -114.892)" fill="#ed2f3c"/>
                </g>
              </g>
            </g>
            <path id="Path_764" data-name="Path 764" d="M29.794,231.719a146,146,0,0,1-4.733-38.854,148.322,148.322,0,0,1,8.545-47.753L28.9,142.16a144.049,144.049,0,0,0,.9,89.559" transform="translate(-3.612 -23.125)" fill="#999"/>
            <path id="Path_765" data-name="Path 765" d="M47.082,309.216a2.679,2.679,0,0,1-1.9-4.573c10.406-10.41,10.789-26.954,1.037-37.07a2.579,2.579,0,0,1-.178-.2c-.664-.67-1.18-1.156-1.724-1.609-2.159-2.069-3.889-3.82-5.419-5.476A144.034,144.034,0,0,1,.012,159.345a151.283,151.283,0,0,1,40.626-101.1,2.679,2.679,0,0,1,3.93,3.642,145.922,145.922,0,0,0-39.2,97.525,138.715,138.715,0,0,0,37.451,97.218l.008.011a142.543,142.543,0,0,1-21.38-77.565A149.635,149.635,0,0,1,61.228,79.556a2.68,2.68,0,0,1,3.945,3.627A144.262,144.262,0,0,0,26.809,179.14a136.941,136.941,0,0,0,28.149,85.632c.5.66,1,1.325,1.539,1.958a2.659,2.659,0,0,1,.217.291l.016.023a28.084,28.084,0,0,1,2.865,5.278,29.96,29.96,0,0,1-6.7,32.847,30.715,30.715,0,0,1-4.291,3.574,2.659,2.659,0,0,1-1.517.474" transform="translate(0 -9.335)"/>
            <path id="Path_766" data-name="Path 766" d="M81.639,65.714a2.679,2.679,0,0,1-1.81-4.655,149.643,149.643,0,0,1,99.335-39.613,142.38,142.38,0,0,1,77.457,21.286A138.445,138.445,0,0,0,159.5,5.369,146.008,146.008,0,0,0,62.412,44.163a2.68,2.68,0,0,1-3.627-3.946A151.384,151.384,0,0,1,159.438.01,144.408,144.408,0,0,1,260.52,39.042c2.166,2.028,4.294,4.156,6.322,6.322l.5.5c10.127,10.118,26.847,9.888,37.272-.531l.235-.236a2.679,2.679,0,0,1,4.092,3.426,31.536,31.536,0,0,1-3.631,4.349,29.9,29.9,0,0,1-33.019,6.62c-.065-.026-.128-.058-.188-.089a28.5,28.5,0,0,1-6.674-4.043,136.545,136.545,0,0,0-86.2-28.555,144.285,144.285,0,0,0-95.781,38.2,2.667,2.667,0,0,1-1.811.7" transform="translate(-9.422 0)"/>
            <path id="Path_767" data-name="Path 767" d="M247.773,292.341a2.68,2.68,0,0,1-2.339-1.368l-40.7-72.494a2.679,2.679,0,0,1,4.673-2.622l40.7,72.494a2.679,2.679,0,0,1-2.334,3.991" transform="translate(-33.248 -34.891)"/>
            <path id="Path_768" data-name="Path 768" d="M289.613,250a2.656,2.656,0,0,1-1.308-.343l-71.966-40.406a2.679,2.679,0,1,1,2.622-4.673l71.965,40.405A2.68,2.68,0,0,1,289.613,250" transform="translate(-34.969 -33.223)"/>
            <path id="Path_769" data-name="Path 769" d="M250.86,263.262a2.669,2.669,0,0,1-1.894-.785L37.892,51.4a2.679,2.679,0,1,1,3.789-3.789L252.754,258.688a2.679,2.679,0,0,1-1.895,4.573" transform="translate(-6.036 -7.618)"/>
            <path id="Path_770" data-name="Path 770" d="M260.851,253.285a2.668,2.668,0,0,1-1.894-.785L47.914,41.46A2.679,2.679,0,0,1,51.7,37.671l211.041,211.04a2.679,2.679,0,0,1-1.894,4.573" transform="translate(-7.667 -6)"/>
            <path id="Path_771" data-name="Path 771" d="M24.795,46.854a2.68,2.68,0,0,1-2.374-1.436L.86,4.206A2.679,2.679,0,0,1,4.476.59l41.21,21.56a2.676,2.676,0,0,1,1.35,3.046L42.988,40.808a2.673,2.673,0,0,1-1.921,1.92l-15.6,4.04a2.7,2.7,0,0,1-.672.086M9.576,9.306,26.181,41.048,38.2,37.937l3.119-12.026Z" transform="translate(-0.09 -0.046)"/>
            <path id="Path_772" data-name="Path 772" d="M67.687,277.24a2.679,2.679,0,0,1-.154-5.354l193.243-11.34L271.824,67.435a2.752,2.752,0,0,1,2.826-2.522,2.676,2.676,0,0,1,2.522,2.826L265.988,263.233a2.676,2.676,0,0,1-2.517,2.523L67.847,277.235c-.053,0-.108.005-.16.005" transform="translate(-10.575 -10.559)"/>
            <path id="Path_773" data-name="Path 773" d="M34.666,143.744a2.641,2.641,0,0,1-1.421-.411L10.632,129.144a2.678,2.678,0,0,1,2.847-4.537L36.092,138.8a2.679,2.679,0,0,1-1.426,4.948" transform="translate(-1.525 -20.203)"/>
            <path id="Path_774" data-name="Path 774" d="M141.188,36.868a2.672,2.672,0,0,1-2.271-1.256l-14.1-22.466a2.678,2.678,0,0,1,4.538-2.847l14.1,22.466a2.675,2.675,0,0,1-.845,3.692,2.64,2.64,0,0,1-1.421.411" transform="translate(-20.238 -1.47)"/>
            <path id="Path_775" data-name="Path 775" d="M44.427,121.927a2.679,2.679,0,0,1-2.669-2.481L38.184,71.484a2.679,2.679,0,1,1,5.343-.4L47.1,119.049a2.679,2.679,0,0,1-2.473,2.87c-.069.005-.137.008-.2.008" transform="translate(-6.21 -11.16)"/>
            <path id="Path_776" data-name="Path 776" d="M95.269,61.782A2.68,2.68,0,0,1,92.6,59.3L90.178,26.774A2.677,2.677,0,0,1,92.65,23.9a2.632,2.632,0,0,1,2.87,2.473L97.944,58.9a2.68,2.68,0,0,1-2.473,2.871c-.069.005-.137.008-.2.008" transform="translate(-14.668 -3.886)"/>
          </g>
        </g>
      </g>
    </g>
  </g>
</svg>