<svg xmlns="http://www.w3.org/2000/svg" xmlns:xlink="http://www.w3.org/1999/xlink" width="300" height="300" viewBox="0 0 300 300">
  <defs>
    <clipPath id="clip-path">
      <rect id="Rectangle_240" data-name="Rectangle 240" width="300" height="278.157" fill="none"/>
    </clipPath>
    <clipPath id="clip-path-3">
      <rect id="Rectangle_227" data-name="Rectangle 227" width="50.697" height="22.784" fill="none"/>
    </clipPath>
    <clipPath id="clip-path-4">
      <rect id="Rectangle_228" data-name="Rectangle 228" width="37.638" height="22.48" fill="none"/>
    </clipPath>
    <clipPath id="clip-path-5">
      <rect id="Rectangle_229" data-name="Rectangle 229" width="28.544" height="20.47" fill="none"/>
    </clipPath>
    <clipPath id="clip-path-6">
      <rect id="Rectangle_230" data-name="Rectangle 230" width="27.619" height="13.506" fill="none"/>
    </clipPath>
    <clipPath id="clip-path-7">
      <rect id="Rectangle_231" data-name="Rectangle 231" width="50.175" height="38.223" fill="none"/>
    </clipPath>
    <clipPath id="clip-path-8">
      <rect id="Rectangle_232" data-name="Rectangle 232" width="53.762" height="39.581" fill="none"/>
    </clipPath>
    <clipPath id="clip-path-9">
      <rect id="Rectangle_233" data-name="Rectangle 233" width="39.778" height="46.958" fill="none"/>
    </clipPath>
    <clipPath id="clip-path-10">
      <rect id="Rectangle_234" data-name="Rectangle 234" width="49.78" height="39.557" fill="none"/>
    </clipPath>
    <clipPath id="clip-path-11">
      <rect id="Rectangle_235" data-name="Rectangle 235" width="50.7" height="34.851" fill="none"/>
    </clipPath>
    <clipPath id="clip-path-12">
      <rect id="Rectangle_236" data-name="Rectangle 236" width="42.004" height="16.56" fill="none"/>
    </clipPath>
    <clipPath id="clip-path-13">
      <rect id="Rectangle_237" data-name="Rectangle 237" width="16.493" height="8.146" fill="none"/>
    </clipPath>
    <clipPath id="clip-path-14">
      <rect id="Rectangle_238" data-name="Rectangle 238" width="40.06" height="19.472" fill="none"/>
    </clipPath>
  </defs>
  <g id="lead_image" data-name="lead image" transform="translate(-53 -377)">
    <rect id="Rectangle_349" data-name="Rectangle 349" width="300" height="300" transform="translate(53 377)" fill="none"/>
    <g id="icon" transform="translate(53 388)">
      <g id="Group_305" data-name="Group 305" clip-path="url(#clip-path)">
        <g id="Group_304" data-name="Group 304">
          <g id="Group_303" data-name="Group 303" clip-path="url(#clip-path)">
            <path id="Path_653" data-name="Path 653" d="M164.072,271.032c5.185,3.81,9.242,4.2,14.05,3.28a23.648,23.648,0,0,0,1.132-7.006c-.4-11.918-7.841-21.685-19.909-26.041-13.687-4.937-29.313-1.553-38.006,8.236-.158.179-.295.372-.441.558,20.875-2.672,38.888,9.848,43.174,20.973" transform="translate(-30.679 -60.651)" fill="#fff"/>
            <path id="Path_654" data-name="Path 654" d="M63.283,216.577c.8,3.864-3.266,7.738-12.435,11.837a140.392,140.392,0,0,1-23.537,7.68c8.474,2.67,20.319,2.9,32.267.422C81.332,232,97.965,219.772,95.9,209.81s-22.193-14.567-43.948-10.053C40,202.235,29.216,207.166,22.5,212.993c16.693-2.864,39.1-4.517,40.781,3.584" transform="translate(-5.71 -50.248)" fill="#fff"/>
            <path id="Path_655" data-name="Path 655" d="M197.165,234.316l.733,7.45a95.389,95.389,0,0,0,11.556,1.8l-5.568-15.828a3.682,3.682,0,0,0-3.034-2.441l-15.158-1.8h-.08c-.043,0-.079-.022-.122-.024L163,220.809a3.762,3.762,0,0,0-2.975,6.56l.755.516a3.752,3.752,0,0,0,1.278.407l33,3.885a2.388,2.388,0,0,1,2.1,2.139" transform="translate(-40.285 -56.024)" fill="#fff"/>
            <path id="Path_656" data-name="Path 656" d="M106.513,334.006a14.957,14.957,0,0,1-1.571,8.231l21.075-3.9a10.465,10.465,0,0,1-2.808-7.488Z" transform="translate(-26.63 -83.955)" fill="#fff"/>
            <path id="Path_657" data-name="Path 657" d="M175.151,284.642c-.574.046-1.136.126-1.725.126-4.083,0-8.554-1.2-13.625-5.1a2.4,2.4,0,0,1-.809-1.138c-2.836-8.509-19.858-22.29-41.177-17.963a10.287,10.287,0,0,0,.1,3.605c1.5,7.069,6.216,13.294,14.323,18.975a12.321,12.321,0,1,1,22.728,9.489l-.692,2.006c.767.332,1.545.671,2.3.993,1.642.707,3.237,1.395,4.763,2.069a30.236,30.236,0,0,0,13.814-13.059" transform="translate(-29.868 -65.911)" fill="#fff"/>
            <path id="Path_658" data-name="Path 658" d="M150.351,287.148a7.544,7.544,0,0,0-9.515,6.507l-4.957,25.319a5.678,5.678,0,0,0,4.042,6.538h0a5.666,5.666,0,0,0,6.851-3.6l8.308-24.057c.028-.079.059-.156.094-.233a7.544,7.544,0,0,0-4.822-10.469" transform="translate(-34.453 -72.796)" fill="#fff"/>
            <path id="Path_659" data-name="Path 659" d="M264.028,220.647a2.4,2.4,0,0,1,2.6,1.43l5.364,12.76a80.809,80.809,0,0,0,10.006-5.355L271.217,213.95a3.739,3.739,0,0,0-3.67-1.544l-23.19,3.895,5.193-.04a8.474,8.474,0,0,1,7.651,5.531Z" transform="translate(-62.007 -53.887)" fill="#fff"/>
            <path id="Path_660" data-name="Path 660" d="M52.7,288.5c-10.1-6.859-21.14-11.173-30-11.942,13.681,10,30.449,24.943,25.8,31.785s-24.722-3.246-39.054-12.273C13.424,304.02,21.5,312.7,31.6,319.553c9.289,6.31,19.18,10.474,27.852,11.721,7.945,1.148,14-.392,16.6-4.213s1.8-10.016-2.2-16.987C69.5,302.471,61.987,294.808,52.7,288.5" transform="translate(-2.397 -70.178)" fill="#fff"/>
            <path id="Path_661" data-name="Path 661" d="M125.057,222.762l10.587,6.934a41.016,41.016,0,0,1,10.6-1.633l-19.46-13.27a15.073,15.073,0,0,1-1.728,7.969" transform="translate(-31.734 -54.505)" fill="#fff"/>
            <path id="Path_662" data-name="Path 662" d="M237.883,231.235a2.391,2.391,0,0,1,2.272,2.379l.035,10.841a80.975,80.975,0,0,0,11.385-1.69l-4.125-16.007a3.689,3.689,0,0,0-3.41-2.772l-21.008.163a8.466,8.466,0,0,1,1.667,2.813l1.3,3.695Z" transform="translate(-56.596 -56.837)" fill="#fff"/>
            <path id="Path_663" data-name="Path 663" d="M206.631,229.053a11.332,11.332,0,0,1,2.624.081l20.755,3.181a8.5,8.5,0,0,1,2.451.776,11.343,11.343,0,0,1,4.957-4.607,11.648,11.648,0,0,1,2.676-.877l22.68-4.405a8.408,8.408,0,0,1,4.424.334,10.933,10.933,0,0,1,6.259-6.038,11.393,11.393,0,0,1,2.182-.555l19.313-2.819a9.821,9.821,0,0,1-.389-1.4,9.708,9.708,0,0,1,8.053-11.1,11.018,11.018,0,0,1,1.279-.119l14.4-.34c14.48-18.946,22.217-42.279,22.362-67.553A112.321,112.321,0,0,0,270.715,29.474c-.014.068-.021.137-.041.2,0,.012-.01.022-.013.034A7.478,7.478,0,0,1,269.9,32.3a103.581,103.581,0,0,1,18,14.526,7.051,7.051,0,0,1,4.056-2.645,2.387,2.387,0,1,1,.884,4.692,2.34,2.34,0,0,0-1.533,1.6,87.708,87.708,0,0,1,8.2,10.855,10.3,10.3,0,0,1,9.422-3.387,2.387,2.387,0,1,1-1.157,4.631,5.976,5.976,0,0,0-5.569,3.048c-.022.033-.051.055-.072.087a83.3,83.3,0,0,1,6.2,14.047c5.837-3.7,11.809-3.286,14.444-1.967a2.388,2.388,0,0,1-2.134,4.272c-1.47-.735-6.193-1.072-10.861,2.482a86.637,86.637,0,0,1,2.895,18.23,22.986,22.986,0,0,1,16.968.907,2.411,2.411,0,0,1,1.281,3.146,2.36,2.36,0,0,1-3.107,1.266c-2.435-1.041-7.314-3.069-15.039-.295a94.394,94.394,0,0,1-2.72,21.979c8.361-.228,15.7,1.761,19.914,5.5a2.388,2.388,0,0,1-3.171,3.572c-2.757-2.448-8.948-4.784-18.066-4.248a96.456,96.456,0,0,1-6.97,17.114c-.685,1.3-1.409,2.59-2.157,3.865a28.714,28.714,0,0,1,20.605,16.8,2.387,2.387,0,1,1-4.32,2.034,26.484,26.484,0,0,0-8.532-10.454,25.7,25.7,0,0,0-10.493-4,94.164,94.164,0,0,1-14.91,17.53,32.062,32.062,0,0,1,10.517,13.364,30.122,30.122,0,0,1,1.928,12.367,2.389,2.389,0,0,1-2.383,2.278c-.037,0-.075,0-.113,0a2.389,2.389,0,0,1-2.275-2.5,25.268,25.268,0,0,0-1.57-10.324,27.129,27.129,0,0,0-9.876-11.927,86.115,86.115,0,0,1-22.354,13.315,30.737,30.737,0,0,1,6.777,13.009,28.632,28.632,0,0,1,.57,9.024,2.388,2.388,0,0,1-2.376,2.176,2.091,2.091,0,0,1-.216-.01,2.388,2.388,0,0,1-2.166-2.591,23.79,23.79,0,0,0-.448-7.453,25.211,25.211,0,0,0-7.019-12.344,84.825,84.825,0,0,1-23.605,4.232,31.962,31.962,0,0,1,4.828,12.9,29.906,29.906,0,0,1-.931,11.715,2.388,2.388,0,0,1-2.3,1.751,2.416,2.416,0,0,1-.637-.086,2.39,2.39,0,0,1-1.666-2.939,25.043,25.043,0,0,0,.81-9.75,25.788,25.788,0,0,0-6.147-13.55,102.016,102.016,0,0,1-27.809-4.881,32.206,32.206,0,0,1,6.618,18.781,29.219,29.219,0,0,1-1.622,9.409,2.346,2.346,0,0,1-.4,1.066A35.085,35.085,0,0,1,184.3,241.387a123.4,123.4,0,0,0,13.382,3.393,10.991,10.991,0,0,1,8.946-15.727" transform="translate(-46.768 -7.479)" fill="#fff"/>
            <path id="Path_664" data-name="Path 664" d="M259.982,33.911c4.576-.77,12.529-3.152,14.971-10.4.025-.254.044-.557.058-.9.095-4.629-2.459-8.2-7.674-10.582-10.182-4.669-26.667-2.952-32.664,3.389-3.42,3.617-7.9,4.228-12,1.619a12.663,12.663,0,0,1-3.039-2.769,13.907,13.907,0,0,0,2.827,7.545c6.5,8.891,23.68,14.423,37.517,12.1" transform="translate(-55.735 -2.379)" fill="#fff"/>
            <path id="Path_665" data-name="Path 665" d="M295.182,212.826,304.325,218a87.673,87.673,0,0,0,6.905-7.185l-15.121-6.053a3.67,3.67,0,0,0-2.425-.117l-10.073,2.966a8.447,8.447,0,0,1,1.492,1.622l3.343,4.818,4.883-1.436a2.369,2.369,0,0,1,1.851.212" transform="translate(-71.968 -51.891)" fill="#fff"/>
            <path id="Path_666" data-name="Path 666" d="M249.461,345.4l-11.42-36.376a3.675,3.675,0,0,0-2.954-2.514l-20.741-3.178a7.018,7.018,0,0,0-1.5-.047,6.252,6.252,0,0,0,1.1,12.455l15.911-1.409c.071-.007.143-.009.213-.009A2.387,2.387,0,0,1,232.351,316l9.933,31.727a3.772,3.772,0,0,0,7.18-2.311l0-.012" transform="translate(-52.565 -76.955)" fill="#fff"/>
            <path id="Path_667" data-name="Path 667" d="M331.786,284.281a3.733,3.733,0,0,0-3.632-1.626l-22.24,3.249a6.426,6.426,0,0,0-1.23.313,6.011,6.011,0,0,0-3.832,4.63,8.66,8.66,0,0,1,.583.9l3.119,5.809a6.018,6.018,0,0,0,4.348.076l16.455-6.073a2.391,2.391,0,0,1,2.817.921l18.32,27.646a3.771,3.771,0,1,0,6.288-4.165Z" transform="translate(-76.343 -71.715)" fill="#fff"/>
            <path id="Path_668" data-name="Path 668" d="M379.558,279.181l-16.8-12.6a3.423,3.423,0,0,0-2.313-.74l-17.349.411a5.315,5.315,0,0,0-.663.06,4.924,4.924,0,0,0-4.08,5.63,4.849,4.849,0,0,0,.632,1.693,8.49,8.49,0,0,1,5.116,2.376l14.4-2.286a2.367,2.367,0,0,1,1.807.448l14.726,11.041a3.693,3.693,0,0,0,2.8.716,3.772,3.772,0,0,0,1.729-6.751" transform="translate(-85.844 -67.457)" fill="#fff"/>
            <path id="Path_669" data-name="Path 669" d="M285.267,297.221a3.747,3.747,0,0,0-3.97-1.884l-22.669,4.4a6.911,6.911,0,0,0-1.559.51,6.575,6.575,0,0,0-3.36,3.741,8.546,8.546,0,0,1,.7,1.557l1.953,6.22a6.6,6.6,0,0,0,6.343.431l15.538-7.33a2.384,2.384,0,0,1,3.122,1.03l16.724,31.154a3.772,3.772,0,0,0,6.647-3.569Z" transform="translate(-64.38 -74.927)" fill="#fff"/>
            <g id="Group_269" data-name="Group 269" transform="translate(118.471 164.755)" style="mix-blend-mode: multiply;isolation: isolate">
              <g id="Group_268" data-name="Group 268">
                <g id="Group_267" data-name="Group 267" clip-path="url(#clip-path-3)">
                  <path id="Path_670" data-name="Path 670" d="M162.064,228.292l33,3.885a2.388,2.388,0,0,1,2.1,2.139l.733,7.45a95.389,95.389,0,0,0,11.556,1.8l-5.568-15.828a3.683,3.683,0,0,0-3.034-2.442l-15.158-1.8h-.08c-.043,0-.079-.022-.122-.025L163,220.809a3.772,3.772,0,0,0-3.451,6.059,3.854,3.854,0,0,0,.477.5l.755.516a3.752,3.752,0,0,0,1.278.407" transform="translate(-158.756 -220.779)" fill="#ed2f3c"/>
                </g>
              </g>
            </g>
            <path id="Path_671" data-name="Path 671" d="M104.942,342.238l21.075-3.9a10.466,10.466,0,0,1-2.808-7.488l-16.7,3.155a14.957,14.957,0,0,1-1.571,8.231" transform="translate(-26.63 -83.955)" fill="#999"/>
            <path id="Path_672" data-name="Path 672" d="M155.174,297.616a7.544,7.544,0,1,0-14.338-3.962l-4.956,25.319a5.677,5.677,0,0,0,4.042,6.538h0a5.666,5.666,0,0,0,6.85-3.6l8.307-24.057c.029-.079.06-.156.095-.233" transform="translate(-34.453 -72.796)" fill="#999"/>
            <g id="Group_272" data-name="Group 272" transform="translate(182.35 158.47)" style="mix-blend-mode: multiply;isolation: isolate">
              <g id="Group_271" data-name="Group 271">
                <g id="Group_270" data-name="Group 270" clip-path="url(#clip-path-4)">
                  <path id="Path_673" data-name="Path 673" d="M257.2,221.793l6.827-1.145a2.4,2.4,0,0,1,2.6,1.429l5.365,12.76a80.582,80.582,0,0,0,10.006-5.355l-10.777-15.531a3.74,3.74,0,0,0-3.671-1.544L244.357,216.3l5.194-.039a8.472,8.472,0,0,1,7.65,5.531" transform="translate(-244.357 -212.357)" fill="#ed2f3c"/>
                </g>
              </g>
            </g>
            <path id="Path_674" data-name="Path 674" d="M126.785,214.793a15.088,15.088,0,0,1-1.728,7.969l10.587,6.934a41.011,41.011,0,0,1,10.6-1.633Z" transform="translate(-31.734 -54.505)" fill="#999"/>
            <g id="Group_275" data-name="Group 275" transform="translate(166.436 167.148)" style="mix-blend-mode: multiply;isolation: isolate">
              <g id="Group_274" data-name="Group 274">
                <g id="Group_273" data-name="Group 273" clip-path="url(#clip-path-5)">
                  <path id="Path_675" data-name="Path 675" d="M226,230.656l11.884.58a2.39,2.39,0,0,1,2.272,2.378l.034,10.841a80.9,80.9,0,0,0,11.386-1.691l-4.125-16.006a3.689,3.689,0,0,0-3.41-2.773l-21.009.163a8.461,8.461,0,0,1,1.668,2.813Z" transform="translate(-223.031 -223.985)" fill="#ed2f3c"/>
                </g>
              </g>
            </g>
            <path id="Path_676" data-name="Path 676" d="M277.3,24.57c.025-.254.044-.557.058-.9a9.875,9.875,0,0,0-3.2-7.642c-10.209-4.451-26.343-2.71-32.264,3.55-3.42,3.617-9.108,5.895-13.007,5.059a28.136,28.136,0,0,0,8.413,7.177,47.415,47.415,0,0,0,25.028,3.157c4.576-.769,12.529-3.152,14.971-10.4" transform="translate(-58.082 -3.437)" fill="#ed2f3c"/>
            <g id="Group_278" data-name="Group 278" transform="translate(211.644 152.603)" style="mix-blend-mode: multiply;isolation: isolate">
              <g id="Group_277" data-name="Group 277">
                <g id="Group_276" data-name="Group 276" clip-path="url(#clip-path-6)">
                  <path id="Path_677" data-name="Path 677" d="M285.1,209.233l3.344,4.818,4.883-1.437a2.365,2.365,0,0,1,1.85.213L304.325,218a87.6,87.6,0,0,0,6.906-7.185l-15.121-6.053a3.673,3.673,0,0,0-2.424-.116l-10.074,2.966a8.386,8.386,0,0,1,1.492,1.622" transform="translate(-283.612 -204.494)" fill="#ed2f3c"/>
                </g>
              </g>
            </g>
            <path id="Path_678" data-name="Path 678" d="M235.086,306.511l-20.741-3.178a7.035,7.035,0,0,0-1.5-.047,6.252,6.252,0,0,0,1.1,12.456l15.911-1.409c.071-.007.142-.009.212-.009A2.387,2.387,0,0,1,232.35,316l9.933,31.727a3.772,3.772,0,0,0,7.181-2.311l0-.012-11.42-36.376a3.676,3.676,0,0,0-2.954-2.514" transform="translate(-52.564 -76.955)" fill="#ed2f3c"/>
            <path id="Path_679" data-name="Path 679" d="M328.154,282.655l-22.24,3.249a6.471,6.471,0,0,0-1.23.313,6.012,6.012,0,0,0-3.832,4.63,8.64,8.64,0,0,1,.584.9l3.118,5.808a6.013,6.013,0,0,0,4.348.076l16.455-6.073a2.392,2.392,0,0,1,2.817.922l18.32,27.645a3.771,3.771,0,1,0,6.288-4.165l-20.995-31.682a3.733,3.733,0,0,0-3.632-1.626" transform="translate(-76.343 -71.715)" fill="#ed2f3c"/>
            <path id="Path_680" data-name="Path 680" d="M379.558,279.181l-16.8-12.6a3.423,3.423,0,0,0-2.313-.74l-17.349.411a5.315,5.315,0,0,0-.663.06,4.924,4.924,0,0,0-4.08,5.63,4.849,4.849,0,0,0,.632,1.693,8.49,8.49,0,0,1,5.116,2.376l14.4-2.286a2.367,2.367,0,0,1,1.807.448l14.726,11.041a3.693,3.693,0,0,0,2.8.716,3.772,3.772,0,0,0,1.729-6.751" transform="translate(-85.844 -67.457)" fill="#ed2f3c"/>
            <path id="Path_681" data-name="Path 681" d="M281.3,295.337l-22.669,4.4a6.884,6.884,0,0,0-1.559.51,6.575,6.575,0,0,0-3.36,3.741,8.513,8.513,0,0,1,.7,1.557l1.953,6.22a6.6,6.6,0,0,0,6.344.431l15.537-7.33a2.384,2.384,0,0,1,3.122,1.03l16.724,31.154a3.772,3.772,0,1,0,6.647-3.569l-19.468-36.265a3.746,3.746,0,0,0-3.97-1.884" transform="translate(-64.38 -74.927)" fill="#ed2f3c"/>
            <path id="Path_682" data-name="Path 682" d="M270.715,29.474c-.014.067-.021.137-.041.2,0,.012-.01.022-.013.033A7.478,7.478,0,0,1,269.9,32.3a156.461,156.461,0,0,1,19.142,13.35,6.778,6.778,0,0,1,2.915-1.469,2.387,2.387,0,1,1,.884,4.692l-.039.014a102.126,102.126,0,0,1,9.839,10.076,9.512,9.512,0,0,1,6.292-1.021,2.387,2.387,0,1,1-1.157,4.631,4.616,4.616,0,0,0-2.056.242,79.518,79.518,0,0,1,8.672,14.444,13.505,13.505,0,0,1,8.389.528,2.388,2.388,0,1,1-2.134,4.272,8.1,8.1,0,0,0-4.357-.341,73.194,73.194,0,0,1,2.859,8.95,81.749,81.749,0,0,1,1.9,10.944,22.907,22.907,0,0,1,8.6,2.068,2.411,2.411,0,0,1,1.281,3.146,2.359,2.359,0,0,1-3.107,1.266,18.9,18.9,0,0,0-6.416-1.629,102.649,102.649,0,0,1-1.774,24.131,22.551,22.551,0,0,1,10.345,4.687,2.389,2.389,0,0,1-3.171,3.573,18.253,18.253,0,0,0-8.154-3.58,141.56,141.56,0,0,1-8.358,24.926,31.437,31.437,0,0,1,9.925,12.186,2.388,2.388,0,0,1-4.321,2.034,26.864,26.864,0,0,0-7.635-9.727,173.774,173.774,0,0,1-8.614,15.938,46.532,46.532,0,0,1-7.627,9.33c.144.307.322.584.458.9a30.122,30.122,0,0,1,1.928,12.367,2.389,2.389,0,0,1-2.383,2.278c-.037,0-.075,0-.113,0a2.389,2.389,0,0,1-2.275-2.5,25.491,25.491,0,0,0-1.383-9.748,82.506,82.506,0,0,1-25.745,13.491c.031.114.075.214.105.329a28.636,28.636,0,0,1,.57,9.025,2.388,2.388,0,0,1-2.376,2.175c-.072,0-.143,0-.216-.009a2.389,2.389,0,0,1-2.166-2.591,23.788,23.788,0,0,0-.448-7.453c-.008-.031-.02-.057-.028-.089a108.19,108.19,0,0,1-25.963,3.943c.06.316.143.607.2.931a29.91,29.91,0,0,1-.931,11.716,2.388,2.388,0,0,1-2.3,1.751,2.417,2.417,0,0,1-.637-.087,2.389,2.389,0,0,1-1.666-2.938,25.048,25.048,0,0,0,.81-9.75c-.093-.564-.246-1.062-.361-1.6a77.154,77.154,0,0,1-28.051-5.478,33.866,33.866,0,0,1,1.075,7.429,29.237,29.237,0,0,1-1.623,9.409,2.349,2.349,0,0,1-.4,1.066A35.08,35.08,0,0,1,184.3,241.387a123.569,123.569,0,0,0,13.382,3.394,10.991,10.991,0,0,1,8.946-15.727,11.246,11.246,0,0,1,2.624.081l20.755,3.181a8.5,8.5,0,0,1,2.451.776,11.345,11.345,0,0,1,4.957-4.608,11.687,11.687,0,0,1,2.676-.877l22.68-4.405a8.408,8.408,0,0,1,4.424.334,10.936,10.936,0,0,1,6.259-6.039,11.447,11.447,0,0,1,2.182-.554l19.313-2.82a9.378,9.378,0,0,1,7.664-12.5,11.2,11.2,0,0,1,1.279-.119l14.4-.34c14.48-18.947,22.217-42.279,22.361-67.553A112.318,112.318,0,0,0,270.715,29.474" transform="translate(-46.768 -7.479)" fill="#ccc"/>
            <path id="Path_683" data-name="Path 683" d="M135.03,252.981c16.16,1.737,29.086,11.859,32.628,21.053,5.185,3.81,9.242,4.2,14.05,3.28a23.654,23.654,0,0,0,1.132-7.006,27.857,27.857,0,0,0-2.31-10.31c-23.749-11.447-38.518-10.046-45.5-7.018" transform="translate(-34.265 -63.653)" fill="#ccc"/>
            <path id="Path_684" data-name="Path 684" d="M162.053,279.672a2.4,2.4,0,0,1-.809-1.138c-2.5-7.5-16.007-19.064-33.759-18.763-1.841,3.631-.718,8.846,1.883,19.29a51.046,51.046,0,0,0,5.126,4.09,12.321,12.321,0,1,1,22.728,9.49l-.693,2.005c.768.333,1.546.671,2.3.994,1.642.707,3.237,1.394,4.763,2.069A30.237,30.237,0,0,0,177.4,284.649c-.574.046-1.136.125-1.725.125-4.083,0-8.554-1.2-13.625-5.1" transform="translate(-32.12 -65.917)" fill="#ed2f3c"/>
            <path id="Path_685" data-name="Path 685" d="M64.793,236.777c21.755-4.512,38.388-16.743,36.322-26.706-1.13-5.442-7.671-9.27-16.9-10.9a58.21,58.21,0,0,0-15.639,1.121c-9.621,1.981-17.837,5.992-23.3,10.834,11.733-.745,22.105.3,23.228,5.714.8,3.864-3.266,7.737-12.435,11.837a116.618,116.618,0,0,1-13.006,4.789,26.293,26.293,0,0,0,10.541,4.83,83.02,83.02,0,0,0,11.2-1.517" transform="translate(-10.926 -50.509)" fill="#ed2f3c"/>
            <g id="Group_281" data-name="Group 281" transform="translate(40.188 149.561)" style="mix-blend-mode: multiply;isolation: isolate">
              <g id="Group_280" data-name="Group 280">
                <g id="Group_279" data-name="Group 279" clip-path="url(#clip-path-7)">
                  <path id="Path_686" data-name="Path 686" d="M103.854,210.418c-.96-4.622-5.848-8.064-12.948-10a14.976,14.976,0,0,1,4.307,7.642c2.448,11.892-11.181,24.746-30.441,28.712a56.055,56.055,0,0,1-10.92,1.16c.807.256,1.622.5,2.484.709a83.058,83.058,0,0,0,11.2-1.517c21.755-4.513,38.388-16.744,36.322-26.706" transform="translate(-53.853 -200.418)" fill="#ed2f3c"/>
                </g>
              </g>
            </g>
            <path id="Path_687" data-name="Path 687" d="M28.522,304.331A57.617,57.617,0,0,0,40.9,315.9c15.757,11.012,33.5,12.833,39.62,4.069a11.01,11.01,0,0,0,1.1-2.05,29.379,29.379,0,0,0-3.215-7.837c-4.354-7.6-11.869-15.265-21.16-21.576-10.012-6.8-20.948-11.089-29.766-11.911-.037.019-.071.042-.107.062,13.658,10,30.31,24.871,25.677,31.692-3.191,4.7-13.647,1.419-24.525-4.02" transform="translate(-6.946 -70.188)" fill="#ed2f3c"/>
            <g id="Group_284" data-name="Group 284" transform="translate(20.426 206.409)" style="mix-blend-mode: multiply;isolation: isolate">
              <g id="Group_283" data-name="Group 283">
                <g id="Group_282" data-name="Group 282" clip-path="url(#clip-path-8)">
                  <path id="Path_688" data-name="Path 688" d="M64.557,298.975a58.523,58.523,0,0,1,16.577,17.2,31.431,31.431,0,0,0-2.73-6.094c-4.354-7.6-11.868-15.265-21.159-21.576-10.012-6.8-20.949-11.089-29.767-11.911-.037.019-.07.042-.106.062a162.542,162.542,0,0,1,15.4,12.679,58.575,58.575,0,0,1,21.781,9.638" transform="translate(-27.372 -276.597)" fill="#ed2f3c"/>
                </g>
              </g>
            </g>
            <g id="Group_287" data-name="Group 287" transform="translate(154.582 226.414)" style="mix-blend-mode: multiply;isolation: isolate">
              <g id="Group_286" data-name="Group 286">
                <g id="Group_285" data-name="Group 285" clip-path="url(#clip-path-9)">
                  <path id="Path_689" data-name="Path 689" d="M213.95,315.777l15.911-1.409c.071-.007.142-.009.212-.009a2.388,2.388,0,0,1,2.277,1.674l9.932,31.727a3.771,3.771,0,0,0,4.64,2.453l-13.271-40.244-16.444-.342A4.909,4.909,0,0,1,212.4,304.7l.006-1.295a6.238,6.238,0,0,0,1.543,12.373" transform="translate(-207.147 -303.404)" fill="#ed2f3c"/>
                </g>
              </g>
            </g>
            <g id="Group_290" data-name="Group 290" transform="translate(189.328 224.559)" style="mix-blend-mode: multiply;isolation: isolate">
              <g id="Group_289" data-name="Group 289">
                <g id="Group_288" data-name="Group 288" clip-path="url(#clip-path-10)">
                  <path id="Path_690" data-name="Path 690" d="M253.708,305.425a8.536,8.536,0,0,1,.7,1.557l1.953,6.22a6.6,6.6,0,0,0,6.343.431L278.24,306.3a2.384,2.384,0,0,1,3.123,1.031l16.723,31.153a3.342,3.342,0,0,0,5.4,1.3L280.921,300.92l-16.3,5.542a6.148,6.148,0,0,1-7.812-3.877l-.207-.619a6.588,6.588,0,0,0-2.892,3.459" transform="translate(-253.708 -300.919)" fill="#ed2f3c"/>
                </g>
              </g>
            </g>
            <g id="Group_293" data-name="Group 293" transform="translate(225.093 215.253)" style="mix-blend-mode: multiply;isolation: isolate">
              <g id="Group_292" data-name="Group 292">
                <g id="Group_291" data-name="Group 291" clip-path="url(#clip-path-11)">
                  <path id="Path_691" data-name="Path 691" d="M304.752,299.039a6.011,6.011,0,0,0,4.347.075l16.455-6.073a2.391,2.391,0,0,1,2.817.921l18.32,27.646a3.769,3.769,0,0,0,5.227,1.061,3.688,3.688,0,0,0,.416-.337l-23.8-33.884-26.9,4.781Z" transform="translate(-301.634 -288.449)" fill="#ed2f3c"/>
                </g>
              </g>
            </g>
            <g id="Group_296" data-name="Group 296" transform="translate(252.463 201.958)" style="mix-blend-mode: multiply;isolation: isolate">
              <g id="Group_295" data-name="Group 295">
                <g id="Group_294" data-name="Group 294" clip-path="url(#clip-path-12)">
                  <path id="Path_692" data-name="Path 692" d="M338.358,271.8a4.485,4.485,0,0,0,.634,3.059,8.486,8.486,0,0,1,5.116,2.377l14.4-2.287a2.368,2.368,0,0,1,1.808.448l14.725,11.042a3.7,3.7,0,0,0,2.8.716,3.75,3.75,0,0,0,2.483-1.469l-19.872-15.047Z" transform="translate(-338.311 -270.633)" fill="#ed2f3c"/>
                </g>
              </g>
            </g>
            <g id="Group_299" data-name="Group 299" transform="translate(124.409 223.644)" style="mix-blend-mode: multiply;isolation: isolate">
              <g id="Group_298" data-name="Group 298">
                <g id="Group_297" data-name="Group 297" clip-path="url(#clip-path-13)">
                  <path id="Path_693" data-name="Path 693" d="M183.207,300.9c-5.533-.268-10.468-.684-14.878-1.208a12.265,12.265,0,0,1-.923,3.078l-.693,2.006c.768.332,1.545.671,2.3.993,1.642.707,3.237,1.395,4.763,2.069a28.989,28.989,0,0,0,9.434-6.938" transform="translate(-166.714 -299.693)" fill="#ed2f3c"/>
                </g>
              </g>
            </g>
            <path id="Path_694" data-name="Path 694" d="M196.618,310.066a10.956,10.956,0,0,1,2.53-8.053c.09-.108.2-.189.3-.293q-2.879-.025-5.775-.108a34.983,34.983,0,0,1-9.368,8.831,123.363,123.363,0,0,0,13.382,3.393,10.924,10.924,0,0,1-1.068-3.771" transform="translate(-46.768 -76.536)" fill="#999"/>
            <path id="Path_695" data-name="Path 695" d="M316.516,276.8l11.985-1.75a8.474,8.474,0,0,1-.142-5.486,107.307,107.307,0,0,1-11.843,7.236" transform="translate(-80.318 -68.402)" fill="#999"/>
            <path id="Path_696" data-name="Path 696" d="M351.185,66.339a126.353,126.353,0,0,1,11.677,20.608c.176.069.4.122.55.2a2.389,2.389,0,0,1,1.069,3.2c-.024.048-.068.075-.094.12,15.852,38.33,12.425,82.02-8.6,108.38a98.015,98.015,0,0,1-11.362,12.015c.032,0,.068-.008.1-.01l14.4-.341c14.479-18.946,22.216-42.278,22.36-67.552a112.03,112.03,0,0,0-30.106-76.623" transform="translate(-87.401 -16.834)" fill="#999"/>
            <path id="Path_697" data-name="Path 697" d="M295.484,288.273c-.569.207-1.138.415-1.712.614a8.849,8.849,0,0,1,1.2.321c.137-.329.339-.622.507-.935" transform="translate(-74.546 -73.151)" fill="#535353"/>
            <path id="Path_698" data-name="Path 698" d="M244.012,300.705a8.465,8.465,0,0,1,2.45.777,11.723,11.723,0,0,1,1.957-2.5q-4.425.608-8.939,1.028Z" transform="translate(-60.769 -75.868)" fill="#535353"/>
            <g id="Group_302" data-name="Group 302" transform="translate(179.22 12.589)" style="mix-blend-mode: multiply;isolation: isolate">
              <g id="Group_301" data-name="Group 301">
                <g id="Group_300" data-name="Group 300" clip-path="url(#clip-path-14)">
                  <path id="Path_699" data-name="Path 699" d="M240.163,32.656a47.42,47.42,0,0,0,25.028,3.157c4.576-.77,12.529-3.152,14.972-10.4.025-.254.044-.557.058-.9a9.877,9.877,0,0,0-3.2-7.642s-5.744,20.178-36.858,15.786" transform="translate(-240.163 -16.87)" fill="#ed2f3c"/>
                </g>
              </g>
            </g>
            <path id="Path_700" data-name="Path 700" d="M309.577,210.432a2.381,2.381,0,0,1-1.306-.39l-.284-.172a5.612,5.612,0,0,0-.6-.287l-16.1-6.444a3.665,3.665,0,0,0-2.424-.117l-20.141,5.928a3.741,3.741,0,0,0-.645.256,2.389,2.389,0,0,1-2.148-4.267,8.622,8.622,0,0,1,1.449-.572l20.135-5.926a8.492,8.492,0,0,1,5.549.262l16.111,6.45a10.434,10.434,0,0,1,1.171.564c.19.107.369.215.539.327a2.388,2.388,0,0,1-1.31,4.386" transform="translate(-67.148 -50.268)"/>
            <path id="Path_701" data-name="Path 701" d="M304.988,225.917a2.376,2.376,0,0,1-1.174-.311l-9.543-5.4-5.384,1.583a2.387,2.387,0,1,1-1.349-4.581l6.355-1.87a2.368,2.368,0,0,1,1.851.213l10.423,5.9a2.388,2.388,0,0,1-1.179,4.466" transform="translate(-72.529 -54.619)"/>
            <path id="Path_702" data-name="Path 702" d="M278.1,230.865a2.389,2.389,0,0,1-1.965-1.026L263.98,212.325a3.74,3.74,0,0,0-3.671-1.543l-37.477,6.294a3.773,3.773,0,0,0-2.58,1.73,2.388,2.388,0,1,1-4.056-2.523,8.556,8.556,0,0,1,5.844-3.918l37.484-6.295a8.532,8.532,0,0,1,8.381,3.533l12.15,17.511a2.389,2.389,0,0,1-1.96,3.75" transform="translate(-54.77 -52.263)"/>
            <path id="Path_703" data-name="Path 703" d="M273.551,242.806a2.387,2.387,0,0,1-2.2-1.462l-5.409-12.866-7.033,1.18a2.388,2.388,0,1,1-.79-4.71l8.9-1.492a2.4,2.4,0,0,1,2.6,1.43l6.141,14.607a2.388,2.388,0,0,1-2.2,3.314" transform="translate(-64.992 -56.695)"/>
            <path id="Path_704" data-name="Path 704" d="M246.462,245.127a2.387,2.387,0,0,1-2.311-1.791l-4.691-18.2a3.689,3.689,0,0,0-3.409-2.773l-42.1.327h-.019a2.388,2.388,0,0,1-.019-4.776l42.236-.325a8.479,8.479,0,0,1,7.935,6.355l4.691,18.2a2.385,2.385,0,0,1-2.313,2.985" transform="translate(-48.605 -55.214)"/>
            <path id="Path_705" data-name="Path 705" d="M237.536,251.622a2.388,2.388,0,0,1-2.388-2.381l-.036-11.1-10.884-.529a2.389,2.389,0,0,1,.234-4.772l13.147.642a2.39,2.39,0,0,1,2.271,2.378l.043,13.368a2.388,2.388,0,0,1-2.38,2.395Z" transform="translate(-56.323 -59.084)"/>
            <path id="Path_706" data-name="Path 706" d="M211.238,246.821a2.389,2.389,0,0,1-2.253-1.595L202.26,226.11a3.682,3.682,0,0,0-3.034-2.442l-37.846-4.484a3.771,3.771,0,1,0-.941,7.483l33,3.885a2.388,2.388,0,0,1,2.1,2.139l.883,8.974a2.388,2.388,0,0,1-4.753.466l-.695-7.059-31.108-3.663a8.547,8.547,0,1,1,2.089-16.965l37.848,4.484a8.439,8.439,0,0,1,6.96,5.595l6.727,19.118a2.388,2.388,0,0,1-1.46,3.045,2.354,2.354,0,0,1-.793.135" transform="translate(-38.661 -54.399)"/>
            <path id="Path_707" data-name="Path 707" d="M133.486,236.929a2.384,2.384,0,0,1-1.306-.39l-13.253-8.68a2.389,2.389,0,0,1,2.616-4l13.253,8.68a2.388,2.388,0,0,1-1.31,4.387" transform="translate(-29.905 -56.708)"/>
            <path id="Path_708" data-name="Path 708" d="M152.764,230.365a2.385,2.385,0,0,1-1.343-.415L118.6,207.567a2.388,2.388,0,1,1,2.691-3.945L154.111,226a2.388,2.388,0,0,1-1.348,4.361" transform="translate(-29.83 -51.565)"/>
            <path id="Path_709" data-name="Path 709" d="M40.108,241.4c-9.931,0-18.7-1.952-24.631-5.7a2.388,2.388,0,0,1,.794-4.359l.607-.119c24.956-5.175,38.445-12.752,38.678-15.361-1.23-2.2-16.62-3.789-41.579,1.392l-.605.133a2.388,2.388,0,0,1-2.457-3.684c6.157-9.034,20.342-16.8,37.02-20.258,25.131-5.2,46.912.835,49.593,13.762S82.628,234.346,57.5,239.56A86.323,86.323,0,0,1,40.108,241.4m-15.844-6.942c8.474,2.67,20.319,2.9,32.267.422,21.755-4.513,38.388-16.744,36.322-26.707s-22.193-14.567-43.948-10.053c-11.954,2.479-22.736,7.409-29.45,13.236,16.693-2.864,39.1-4.517,40.781,3.584.8,3.864-3.266,7.738-12.435,11.838a140.469,140.469,0,0,1-23.537,7.679" transform="translate(-2.664 -48.615)"/>
            <path id="Path_710" data-name="Path 710" d="M317.9,203.716a2.387,2.387,0,0,1-1.884-3.852c14.815-19.067,22.723-42.662,22.869-68.237a112.316,112.316,0,0,0-69.959-104.14,7.632,7.632,0,0,1-.8,2.836C316.754,61.5,318.867,113.862,300,149.743c-19.608,37.291-64.7,63.7-121.251,38.655a2.387,2.387,0,1,1,1.933-4.366c53.724,23.793,96.516-1.19,115.091-36.512,18.109-34.436,15.808-84.9-32.039-114.316a2.386,2.386,0,0,1-1.018-2.778,7.791,7.791,0,0,1,.969-1.972c.328-.5.637-.978.619-4.382a2.388,2.388,0,0,1,3.218-2.251,117.09,117.09,0,0,1,76.142,109.83c-.151,26.639-8.406,51.239-23.874,71.142a2.382,2.382,0,0,1-1.886.924" transform="translate(-44.997 -5.5)"/>
            <path id="Path_711" data-name="Path 711" d="M159.689,295.787a2.407,2.407,0,0,1-.974-.208c-1.791-.8-3.69-1.619-5.655-2.465-1.326-.572-2.682-1.155-4.056-1.756a2.387,2.387,0,1,1,1.913-4.375c1.366.6,2.714,1.177,4.032,1.745,1.642.707,3.237,1.394,4.763,2.068,9.8-4.4,17.093-15.026,17.107-25.137-.4-11.918-7.841-21.685-19.909-26.041-13.687-4.937-29.313-1.553-38.006,8.236a10.883,10.883,0,0,0-2.611,9.409c1.66,7.839,7.24,14.645,17.056,20.813a2.388,2.388,0,1,1-2.542,4.044c-10.968-6.891-17.244-14.7-19.187-23.869a15.678,15.678,0,0,1,3.713-13.57c10.115-11.394,27.474-15.237,43.2-9.556,13.973,5.044,22.595,16.429,23.063,30.456-.016,12.547-8.855,25.142-21.014,30.032a2.4,2.4,0,0,1-.891.172" transform="translate(-28.243 -59.006)"/>
            <path id="Path_712" data-name="Path 712" d="M251.691,36.847c-13.806,0-28.314-5.839-34.715-14.6-4.6-6.284-5.007-13.53-1.188-20.955a2.387,2.387,0,0,1,4.343,1.971c-.837,2.113.854,5.692,3.477,7.362,2.129,1.357,4.136,1.06,5.96-.87,7.294-7.717,26.178-9.925,38.123-4.452,7.446,3.41,11.142,9.247,10.408,16.434a2.322,2.322,0,0,1-.093.457c-2.264,7.388-8.964,12.376-18.866,14.046a44.941,44.941,0,0,1-7.449.6M218,11.887a13.908,13.908,0,0,0,2.826,7.544c6.5,8.892,23.681,14.423,37.517,12.1,4.6-.775,12.626-3.169,15.021-10.511.425-5.023-2.154-8.85-7.666-11.373C255.52,4.98,239.035,6.7,233.039,13.037c-3.42,3.616-7.9,4.227-12,1.618A12.68,12.68,0,0,1,218,11.887m57.719,9.61h0Z" transform="translate(-54.1 0)"/>
            <path id="Path_713" data-name="Path 713" d="M202.325,322.24a2.757,2.757,0,0,1-.309-.019,128.3,128.3,0,0,1-27.5-6.693,2.388,2.388,0,1,1,1.636-4.486,123.373,123.373,0,0,0,26.477,6.441,2.389,2.389,0,0,1-.3,4.757" transform="translate(-43.885 -78.892)"/>
            <path id="Path_714" data-name="Path 714" d="M94.309,350.525a2.388,2.388,0,0,1-.433-4.736l35.461-6.56a2.388,2.388,0,0,1,.869,4.7l-35.46,6.56a2.362,2.362,0,0,1-.437.04" transform="translate(-23.326 -86.07)"/>
            <path id="Path_715" data-name="Path 715" d="M103.182,332.593a2.388,2.388,0,0,1-.441-4.734l21.522-4.067a2.388,2.388,0,0,1,.886,4.692l-21.522,4.067a2.464,2.464,0,0,1-.446.042" transform="translate(-25.577 -82.153)"/>
            <path id="Path_716" data-name="Path 716" d="M139.794,328.868a10.433,10.433,0,0,1-10.226-12.438l4.924-25.1a12.145,12.145,0,0,1,5.269-8.7,12.32,12.32,0,0,1,18.17,15.268l-8.27,23.945a10.459,10.459,0,0,1-9.868,7.028m6.92-43.617a7.546,7.546,0,0,0-7.5,6.779l-4.956,25.319a5.676,5.676,0,0,0,4.041,6.539h0a5.666,5.666,0,0,0,6.851-3.605l8.307-24.057c.028-.079.06-.156.095-.233a7.545,7.545,0,0,0-6.836-10.741" transform="translate(-32.829 -71.172)"/>
            <path id="Path_717" data-name="Path 717" d="M62.012,334.762a39.714,39.714,0,0,1-5.636-.427C47,332.988,36.4,328.55,26.519,321.838,12.429,312.267,2.288,299.672.051,288.969a2.388,2.388,0,0,1,3.7-2.449l.483.339c21.09,14.325,35.914,18.735,37.952,17.1.726-2.416-8.843-14.573-29.93-28.9l-.513-.34a2.388,2.388,0,0,1,.931-4.33c10.774-1.861,26.219,2.924,40.309,12.5,9.879,6.711,17.912,14.931,22.62,23.149,5.01,8.745,5.722,16.573,2,22.045-2.979,4.386-8.416,6.686-15.6,6.686M7.049,294.4c3.977,7.952,12.056,16.627,22.155,23.486,9.29,6.31,19.181,10.473,27.852,11.721,7.945,1.147,14-.392,16.6-4.214s1.8-10.016-2.2-16.986c-4.354-7.6-11.869-15.265-21.16-21.576-10.1-6.858-21.14-11.172-30-11.942,13.68,10,30.448,24.943,25.8,31.786S21.381,303.43,7.049,294.4" transform="translate(0 -68.512)"/>
            <path id="Path_718" data-name="Path 718" d="M375.653,289.127a8.481,8.481,0,0,1-5.11-1.712L356.626,276.98l-13.512,2.148c-.169.031-.362.056-.553.075a2.388,2.388,0,1,1-.478-4.753l.261-.034,14.532-2.309a2.365,2.365,0,0,1,1.807.448L373.408,283.6a3.7,3.7,0,0,0,2.8.716,3.772,3.772,0,0,0,1.729-6.751l-16.8-12.6a3.422,3.422,0,0,0-2.313-.74l-17.35.41a5.222,5.222,0,0,0-.663.061,4.923,4.923,0,0,0-3.257,7.674,2.389,2.389,0,0,1-3.916,2.738,9.7,9.7,0,0,1,6.428-15.13,11.035,11.035,0,0,1,1.279-.119l17.361-.41a8.919,8.919,0,0,1,5.3,1.693l16.8,12.6a8.548,8.548,0,0,1-3.92,15.3,8.727,8.727,0,0,1-1.227.087" transform="translate(-84.22 -65.836)"/>
            <path id="Path_719" data-name="Path 719" d="M348,324.973a8.6,8.6,0,0,1-1.719-.175,8.489,8.489,0,0,1-5.424-3.654l-17.276-26.072-14.682,5.419a10.8,10.8,0,0,1-8.307-.326,2.388,2.388,0,0,1,2-4.338,6.04,6.04,0,0,0,4.656.182l16.454-6.073a2.393,2.393,0,0,1,2.817.922l18.32,27.645a3.771,3.771,0,1,0,6.288-4.165l-20.995-31.683a3.732,3.732,0,0,0-3.632-1.625l-22.241,3.248a6.551,6.551,0,0,0-1.23.313,6.05,6.05,0,0,0-3.949,5.114,2.388,2.388,0,1,1-4.753-.471,10.935,10.935,0,0,1,7.049-9.125,11.4,11.4,0,0,1,2.182-.555l22.251-3.248a8.493,8.493,0,0,1,8.3,3.708l21,31.685A8.552,8.552,0,0,1,348,324.973" transform="translate(-74.683 -70.091)"/>
            <path id="Path_720" data-name="Path 720" d="M299.759,342.2a8.58,8.58,0,0,1-7.543-4.51l-15.651-29.154-13.485,6.362a11.406,11.406,0,0,1-11.459-1.019,2.388,2.388,0,0,1,2.766-3.895,6.62,6.62,0,0,0,6.654.595l15.537-7.329a2.384,2.384,0,0,1,3.123,1.031l16.723,31.153a3.772,3.772,0,1,0,6.648-3.568L283.6,295.6a3.747,3.747,0,0,0-3.971-1.884l-22.669,4.4a6.874,6.874,0,0,0-1.559.51,6.6,6.6,0,0,0-3.555,4.237,2.389,2.389,0,1,1-4.608-1.259,11.374,11.374,0,0,1,6.124-7.3,11.663,11.663,0,0,1,2.676-.877l22.68-4.406a8.432,8.432,0,0,1,9.087,4.312L307.279,329.6a8.555,8.555,0,0,1-7.52,12.593" transform="translate(-62.718 -73.3)"/>
            <path id="Path_721" data-name="Path 721" d="M244.256,353.488a8.568,8.568,0,0,1-8.149-5.947l-9.363-29.9-14,1.238A11.028,11.028,0,1,1,210.8,296.9a11.24,11.24,0,0,1,2.624.081l20.756,3.18a8.435,8.435,0,0,1,6.785,5.786l11.423,36.386a8.553,8.553,0,0,1-8.136,11.15M228.45,312.7a2.387,2.387,0,0,1,2.277,1.675L240.66,346.1a3.772,3.772,0,0,0,7.18-2.311l0-.012L236.416,307.4a3.676,3.676,0,0,0-2.954-2.514l-20.74-3.178a7.008,7.008,0,0,0-1.5-.046,6.252,6.252,0,0,0,1.1,12.455l15.911-1.409c.071-.007.142-.009.212-.009" transform="translate(-50.94 -75.33)"/>
            <path id="Path_722" data-name="Path 722" d="M241.155,282.955a2.389,2.389,0,0,1-2.3-3.025,25.06,25.06,0,0,0,.809-9.75c-.964-5.867-3.068-10.382-6.611-14.125a2.388,2.388,0,1,1,3.468-3.283c4.231,4.471,6.731,9.781,7.868,16.716a29.909,29.909,0,0,1-.93,11.716,2.388,2.388,0,0,1-2.3,1.752" transform="translate(-58.972 -63.953)"/>
            <path id="Path_723" data-name="Path 723" d="M282.933,273.195c-.071,0-.143,0-.216-.009a2.39,2.39,0,0,1-2.166-2.591,23.789,23.789,0,0,0-.448-7.453,25.083,25.083,0,0,0-7.8-13.089,2.388,2.388,0,1,1,3.169-3.573,30.055,30.055,0,0,1,9.267,15.515,28.627,28.627,0,0,1,.57,9.024,2.388,2.388,0,0,1-2.376,2.176" transform="translate(-68.894 -62.392)"/>
            <path id="Path_724" data-name="Path 724" d="M323.156,255.159c-.037,0-.075,0-.114,0a2.388,2.388,0,0,1-2.275-2.5,25.254,25.254,0,0,0-1.571-10.324,27.071,27.071,0,0,0-11.047-12.759,2.388,2.388,0,0,1,2.448-4.1,31.813,31.813,0,0,1,13.012,15.035,30.109,30.109,0,0,1,1.929,12.367,2.389,2.389,0,0,1-2.383,2.278" transform="translate(-77.9 -57.131)"/>
            <path id="Path_725" data-name="Path 725" d="M355.219,218.482a2.387,2.387,0,0,1-2.162-1.371,26.46,26.46,0,0,0-8.532-10.455,25.6,25.6,0,0,0-11.642-4.186,2.387,2.387,0,1,1,.5-4.748,30.606,30.606,0,0,1,13.792,4.96,31.331,31.331,0,0,1,10.2,12.4,2.386,2.386,0,0,1-2.16,3.4" transform="translate(-83.928 -50.169)"/>
            <path id="Path_726" data-name="Path 726" d="M369.634,173.55a2.382,2.382,0,0,1-1.584-.6c-2.817-2.5-9.2-4.907-18.647-4.228a2.387,2.387,0,0,1-.352-4.762c9.294-.69,17.576,1.339,22.171,5.417a2.389,2.389,0,0,1-1.588,4.174" transform="translate(-88.012 -41.572)"/>
            <path id="Path_727" data-name="Path 727" d="M353.205,132.808a2.389,2.389,0,0,1-.889-4.606c10.134-4.053,16.755-1.213,19.585,0a2.411,2.411,0,0,1,1.281,3.146,2.36,2.36,0,0,1-3.107,1.266c-2.536-1.084-7.688-3.3-15.984.023a2.379,2.379,0,0,1-.886.17" transform="translate(-89.021 -31.999)"/>
            <path id="Path_728" data-name="Path 728" d="M349.228,101.386a2.388,2.388,0,0,1-1.492-4.254c6.378-5.1,13.375-4.7,16.288-3.239a2.388,2.388,0,1,1-2.134,4.272c-1.5-.751-6.4-1.114-11.171,2.7a2.375,2.375,0,0,1-1.49.522" transform="translate(-88.012 -23.582)"/>
            <path id="Path_729" data-name="Path 729" d="M338.781,76.349a2.388,2.388,0,0,1-2.012-3.671c3.122-4.9,8.251-5.753,10.756-5.114a2.387,2.387,0,1,1-1.157,4.631,5.977,5.977,0,0,0-5.57,3.048,2.385,2.385,0,0,1-2.017,1.105" transform="translate(-85.362 -17.098)"/>
            <path id="Path_730" data-name="Path 730" d="M323.411,58.61c-.072,0-.145,0-.218-.009A2.39,2.39,0,0,1,321.03,56a7.371,7.371,0,0,1,5.618-6.833,2.387,2.387,0,1,1,.884,4.692c-.319.081-1.56.539-1.745,2.575a2.389,2.389,0,0,1-2.376,2.171" transform="translate(-81.46 -12.467)"/>
            <path id="Path_731" data-name="Path 731" d="M172.145,283.138c-4.083,0-8.553-1.2-13.625-5.1a2.411,2.411,0,0,1-.809-1.139c-2.879-8.637-20.365-22.748-42.137-17.793a2.389,2.389,0,0,1-1.059-4.66c22.657-5.142,42.887,8.335,47.466,20.217,5.68,4.174,9.995,4.26,15.442,3a2.387,2.387,0,1,1,1.085,4.65,27.813,27.813,0,0,1-6.363.831" transform="translate(-28.587 -64.281)"/>
          </g>
        </g>
      </g>
    </g>
  </g>
</svg>