<svg xmlns="http://www.w3.org/2000/svg" xmlns:xlink="http://www.w3.org/1999/xlink" width="300" height="300" viewBox="0 0 300 300">
  <defs>
    <clipPath id="clip-path">
      <rect id="Rectangle_197" data-name="Rectangle 197" width="300" height="288.778" fill="none"/>
    </clipPath>
    <clipPath id="clip-path-3">
      <rect id="Rectangle_194" data-name="Rectangle 194" width="6.504" height="8.73" fill="none"/>
    </clipPath>
    <clipPath id="clip-path-4">
      <rect id="Rectangle_195" data-name="Rectangle 195" width="90.996" height="77.046" fill="none"/>
    </clipPath>
  </defs>
  <g id="lead_image" data-name="lead image" transform="translate(-699 -703)">
    <rect id="Rectangle_355" data-name="Rectangle 355" width="300" height="300" transform="translate(699 703)" fill="none"/>
    <g id="icon" transform="translate(699 709)">
      <g id="Group_194" data-name="Group 194" clip-path="url(#clip-path)">
        <g id="Group_193" data-name="Group 193">
          <g id="Group_192" data-name="Group 192" clip-path="url(#clip-path)">
            <path id="Path_416" data-name="Path 416" d="M173.108,214.219a4.367,4.367,0,0,0-2.139.574c.234,2.669.55,5.441.964,7.994a4.364,4.364,0,1,0,1.175-8.568" transform="translate(-45.344 -56.815)" fill="#fff"/>
            <path id="Path_417" data-name="Path 417" d="M72.363,197.6a33.514,33.514,0,0,0,21.981-13.685q1.385-1.914,2.825-3.8c1.187-1.566,2.429-3.138,3.672-4.684.971-1.2,1.943-2.4,2.966-3.577,1.086-1.312,2.259-2.664,3.433-3.968,1.151-1.3,2.34-2.588,3.527-3.876,2.884-3.049,5.6-5.768,8.307-8.335.6-.581,1.226-1.157,1.869-1.752l2.409-2.172c.857-.781,1.752-1.573,2.67-2.363a2.3,2.3,0,0,1,.223-.17c.882-.763,1.669-1.435,2.475-2.09a.208.208,0,0,0,.023-.021,16.23,16.23,0,0,0,4.73-11.5,16.417,16.417,0,0,0-2.764-9.1,1.993,1.993,0,0,1-.136-.23v0s-.009,0-.016-.013l0,0a.816.816,0,0,1-.048-.068,16.415,16.415,0,0,0-24.851-2.4,1.632,1.632,0,0,1-.212.221l-1.162,1.256a113.209,113.209,0,0,0-21.391,33.247,55.1,55.1,0,0,1-29.859,30.16,198.359,198.359,0,0,1-30.8,9.878,197.6,197.6,0,0,0,49.23-.822Z" transform="translate(-5.897 -31.611)" fill="#fff"/>
            <path id="Path_418" data-name="Path 418" d="M275.7,76.772A112.351,112.351,0,0,0,249.19,64.891c-.7-.215-1.393-.427-2.094-.59a112.106,112.106,0,0,0-27.942-4.14A64.614,64.614,0,0,1,173.4,89.529a2.318,2.318,0,0,1-2.65-2.007,2.347,2.347,0,0,1,2.007-2.65,60.288,60.288,0,0,0,51.953-59.722,60,60,0,0,0-1.716-14.321A229.6,229.6,0,0,1,190.9,49.5c-13.21,12.793-27.981,26.034-46.41,36.316.441-.028.88-.064,1.325-.064a21.086,21.086,0,0,1,17.373,9.111,2.219,2.219,0,0,1,.168.283c0-.012.027.021.071.09a21.05,21.05,0,0,1-2.586,26.449,1.019,1.019,0,0,1-.087.083,2.079,2.079,0,0,1-.231.215c-.884.712-1.741,1.449-2.6,2.186a1.985,1.985,0,0,1-.177.138q-1.274,1.1-2.477,2.195l-2.267,2.039c-.725.673-1.323,1.226-1.919,1.8-2.666,2.522-5.315,5.18-8.119,8.145-1.148,1.242-2.314,2.509-3.456,3.8-1.146,1.27-2.278,2.572-3.359,3.879-1.019,1.173-1.954,2.328-2.886,3.483-.871,1.082-1.724,2.186-2.578,3.287,1.949,2.949,3.891,6.033,5.781,9.258,1.936,3.254,3.865,6.716,5.722,10.275a227.356,227.356,0,0,1,21.161,59.673l23.062,7.385c.046.295.112.582.137.885a17.822,17.822,0,0,1-.006,2.932c-.574,6.809-5.052,12.279-10.9,12.751-4.758.406-9.279-2.643-11.674-7.686l0,0a17.37,17.37,0,0,1-1.6-6.047,17.614,17.614,0,0,1,.421-5.5l-2.09-.57a2.35,2.35,0,0,1-1.683-1.812c-.054-.276-.123-.55-.178-.826a22.291,22.291,0,0,0,.879,16.767v.006c3.049,6.427,8.9,10.4,15.122,10.4.391,0,.783-.016,1.176-.046,8.035-.648,14.232-7.761,15.16-16.627a22.684,22.684,0,0,0,.089-3.074l.913.292s3.858-3.977,4.026-4.16l13.535-14.664-6.513-19.9a2.35,2.35,0,1,1,4.468-1.461l5.7,17.407,8.607-9.324-7.458-11.8a2.355,2.355,0,0,1-.03-2.464c3.263-5.454,6.365-11.219,9.224-17.134A224.126,224.126,0,0,0,235.732,147.6a2.351,2.351,0,1,1,4.487,1.41,229.119,229.119,0,0,1-11.5,29.293,73.678,73.678,0,0,1,1.874,107.988A113.559,113.559,0,0,0,275.7,76.772M162.424,173.709c-.055,0-.109-.01-.164-.011.139.5.282.986.435,1.426a2.349,2.349,0,0,1-1.449,2.992,2.316,2.316,0,0,1-.772.131,2.351,2.351,0,0,1-2.22-1.58c-2.957-8.5-3.341-27.18-3.357-27.972a2.352,2.352,0,0,1,4.7-.087c0,.075.068,3.171.322,7.325a9.065,9.065,0,1,1,2.5,17.777" transform="translate(-34.66 -2.872)" fill="#fff"/>
            <g id="Group_188" data-name="Group 188" transform="translate(125.624 157.404)" style="mix-blend-mode: multiply;isolation: isolate">
              <g id="Group_187" data-name="Group 187">
                <g id="Group_186" data-name="Group 186" clip-path="url(#clip-path-3)">
                  <path id="Path_419" data-name="Path 419" d="M177.472,218.583a4.345,4.345,0,0,0-6.5-3.791c.235,2.669.55,5.441.964,7.994a4.361,4.361,0,0,0,5.54-4.2" transform="translate(-170.968 -214.219)" fill="#ed2f3c"/>
                </g>
              </g>
            </g>
            <path id="Path_420" data-name="Path 420" d="M120.194,128.349a1.618,1.618,0,0,1-.211.22l-1.162,1.256A113.209,113.209,0,0,0,97.43,163.072a55.1,55.1,0,0,1-29.859,30.16,198.009,198.009,0,0,1-22.079,7.621,196.108,196.108,0,0,0,32.141-1.913l.9-.131a33.514,33.514,0,0,0,21.981-13.685q1.384-1.914,2.824-3.8c1.187-1.566,2.429-3.139,3.672-4.684.971-1.2,1.942-2.4,2.966-3.577,1.086-1.312,2.259-2.664,3.433-3.968,1.151-1.3,2.34-2.588,3.527-3.876,2.884-3.049,5.6-5.768,8.307-8.335.6-.581,1.226-1.157,1.869-1.752l2.409-2.172c.856-.781,1.752-1.573,2.67-2.363a2.384,2.384,0,0,1,.223-.17c.882-.763,1.669-1.435,2.475-2.09a.157.157,0,0,0,.023-.021,16.228,16.228,0,0,0,4.731-11.5,16.411,16.411,0,0,0-2.765-9.1,2.263,2.263,0,0,1-.135-.23v0s-.009,0-.016-.014l0,0a.771.771,0,0,1-.049-.068,16.24,16.24,0,0,0-3.425-3.557,16.054,16.054,0,0,0-13.055,4.5" transform="translate(-12.065 -32.819)" fill="#ed2f3c"/>
            <g id="Group_191" data-name="Group 191" transform="translate(36.58 90.997)" style="mix-blend-mode: multiply;isolation: isolate">
              <g id="Group_190" data-name="Group 190">
                <g id="Group_189" data-name="Group 189" clip-path="url(#clip-path-4)">
                  <path id="Path_421" data-name="Path 421" d="M138.014,127.741a2.046,2.046,0,0,1-.135-.229v0c-.005,0-.01-.005-.016-.014l0,0a.708.708,0,0,1-.048-.069,16.3,16.3,0,0,0-3.425-3.557c-.162-.016-.326-.016-.488-.029a16.263,16.263,0,0,1-2.245,20.105.212.212,0,0,1-.023.021c-.806.655-1.593,1.327-2.475,2.09a2.19,2.19,0,0,0-.223.17c-.918.79-1.814,1.582-2.671,2.363l-2.409,2.172c-.643.594-1.265,1.171-1.869,1.752-2.711,2.567-5.423,5.286-8.307,8.335-1.187,1.288-2.376,2.578-3.527,3.876-1.173,1.3-2.347,2.656-3.433,3.968-1.024,1.173-1.995,2.374-2.966,3.578-1.243,1.545-2.484,3.118-3.672,4.683q-1.436,1.885-2.825,3.8c-5.389,7.44-11.4,14.181-19.985,15.439l-.9.131c-7.421,1.071-17.494,3.369-26.588,4.559a195.248,195.248,0,0,0,28.987-1.918l.9-.132A33.516,33.516,0,0,0,101.65,185.15q1.384-1.916,2.824-3.8c1.187-1.566,2.429-3.139,3.671-4.684.971-1.2,1.943-2.4,2.967-3.578,1.086-1.311,2.259-2.664,3.433-3.968,1.15-1.3,2.34-2.588,3.527-3.876,2.884-3.049,5.6-5.768,8.307-8.335.6-.581,1.226-1.157,1.869-1.753l2.409-2.172c.857-.78,1.752-1.573,2.671-2.363a2.348,2.348,0,0,1,.223-.17c.882-.762,1.669-1.435,2.475-2.09a.156.156,0,0,0,.023-.021,16.225,16.225,0,0,0,4.73-11.5,16.418,16.418,0,0,0-2.764-9.1" transform="translate(-49.783 -123.842)" fill="#ed2f3c"/>
                </g>
              </g>
            </g>
            <path id="Path_422" data-name="Path 422" d="M200.958,316.267c-.015-.195-.048-.384-.069-.577-.964-9.056-7.233-16.328-15.111-17.389a2.351,2.351,0,0,0-1.486.333A24.428,24.428,0,0,0,188.8,304.2a14.932,14.932,0,0,1,7.153,10.415,16.057,16.057,0,0,1,.307,4.958c-.574,6.809-5.052,12.279-10.9,12.75-4.757.406-9.279-2.643-11.673-7.685l0,0a17.359,17.359,0,0,1-1.6-6.048,17.591,17.591,0,0,1,.421-5.5l-2.09-.571a2.348,2.348,0,0,1-1.683-1.811c-.054-.277-.123-.55-.179-.827a22.3,22.3,0,0,0,.88,16.768v.006c3.049,6.427,8.9,10.4,15.122,10.4.39,0,.783-.016,1.176-.046,8.035-.648,14.232-7.761,15.16-16.627a22.31,22.31,0,0,0,.054-4.122" transform="translate(-44.38 -79.111)" fill="#e6e6e6"/>
            <path id="Path_423" data-name="Path 423" d="M331.946,178.682A113.593,113.593,0,0,0,251.178,69.947c-.7-.215-1.393-.427-2.094-.59a112.1,112.1,0,0,0-27.942-4.14,64.614,64.614,0,0,1-45.756,29.369,2.318,2.318,0,0,1-2.65-2.007,2.347,2.347,0,0,1,2.007-2.65A60.288,60.288,0,0,0,226.7,30.207c0-.1-.009-.208-.009-.313a229.064,229.064,0,0,1-23.33,26.332c-12.208,11.823-28.377,26.914-45.3,37.252a21.006,21.006,0,0,1,7.127,6.437,2.233,2.233,0,0,1,.168.283c0-.012.027.021.071.09a21.05,21.05,0,0,1-2.586,26.449,1.032,1.032,0,0,1-.087.083,2.071,2.071,0,0,1-.231.215c-.884.712-1.741,1.449-2.6,2.186a1.96,1.96,0,0,1-.177.138q-1.274,1.1-2.477,2.195l-2.267,2.039c-.725.673-1.323,1.226-1.919,1.8-2.666,2.522-5.315,5.18-8.119,8.145-1.148,1.242-2.315,2.509-3.456,3.8-1.131,1.253-2.246,2.538-3.315,3.827,2.881,4.6,9.094,14.952,10.737,17.753,1.935,3.254,3.864,6.717,5.722,10.276,9.456,18.162,16.6,41.09,20.891,61.263l18.64,5.969s3.858-3.977,4.027-4.16L211.736,227.6l-6.513-19.9a2.35,2.35,0,1,1,4.468-1.461l5.7,17.407,8.607-9.324-7.458-11.8a2.354,2.354,0,0,1-.03-2.464c3.263-5.454,6.365-11.219,9.224-17.134a224.1,224.1,0,0,0,11.991-30.266,2.352,2.352,0,1,1,4.487,1.41,229.117,229.117,0,0,1-11.5,29.293,73.678,73.678,0,0,1,1.874,107.988,113.641,113.641,0,0,0,99.367-112.662m-167.533.083c-.055,0-.109-.01-.164-.011.139.5.282.986.435,1.426a2.349,2.349,0,0,1-1.449,2.992,2.317,2.317,0,0,1-.772.131,2.351,2.351,0,0,1-2.22-1.58c-2.957-8.5-3.341-27.18-3.357-27.972a2.352,2.352,0,0,1,4.7-.087c0,.075.068,3.171.322,7.325a9.065,9.065,0,1,1,2.5,17.777" transform="translate(-36.649 -7.928)" fill="#ccc"/>
            <path id="Path_424" data-name="Path 424" d="M297.086,94.577A112.349,112.349,0,0,0,270.579,82.7c-.7-.215-1.394-.427-2.094-.59a112.106,112.106,0,0,0-27.942-4.141,64.8,64.8,0,0,1-29.208,24.789c103.71-7.524,139.595,96.817,87.931,160.8,7.012-35.061-8.342-75.8-37.63-97a2.263,2.263,0,0,1-.027.262,229.068,229.068,0,0,1-11.5,29.293,73.678,73.678,0,0,1,1.875,107.988A113.56,113.56,0,0,0,297.086,94.577" transform="translate(-56.05 -20.678)" fill="#999"/>
            <path id="Path_425" data-name="Path 425" d="M171.572,331.619a2.349,2.349,0,0,1-2.126-1.345,22.3,22.3,0,0,1-.877-16.783A2.352,2.352,0,0,1,173,315.066a17.636,17.636,0,0,0,.693,13.2,2.352,2.352,0,0,1-2.121,3.357" transform="translate(-44.38 -82.728)"/>
            <path id="Path_426" data-name="Path 426" d="M126.17,98.1a2.351,2.351,0,0,1-1.906-3.725c.315-.439,7.793-10.755,15.655-15.272,18.2-10.071,32.808-23.185,45.9-35.862A224.935,224.935,0,0,0,219.992,1.1,2.309,2.309,0,0,1,222.256.02,2.352,2.352,0,0,1,224.21,1.6,65,65,0,0,1,218.1,56.109a64.655,64.655,0,0,1-46.521,30.548,2.318,2.318,0,0,1-2.65-2.007A2.347,2.347,0,0,1,170.934,82a60.288,60.288,0,0,0,51.954-59.722,60.032,60.032,0,0,0-1.715-14.321,229.632,229.632,0,0,1-32.089,38.665C175.765,59.52,160.87,72.882,142.23,83.2c-6.941,3.988-14.078,13.823-14.149,13.922a2.35,2.35,0,0,1-1.91.978" transform="translate(-32.84 0)"/>
            <path id="Path_427" data-name="Path 427" d="M37.735,202.718a201.528,201.528,0,0,1-35.8-3.194,2.351,2.351,0,0,1,.046-4.636,194.108,194.108,0,0,0,43.359-12.255,50.325,50.325,0,0,0,27.244-27.456,118.222,118.222,0,0,1,22.34-34.793c.046-.051.12-.122.17-.168l1.125-1.229c.051-.053.1-.1.158-.151l.09-.1a21.117,21.117,0,0,1,32.067,3.16,2.222,2.222,0,0,1,.168.283c0-.012.027.021.071.09a21.05,21.05,0,0,1-2.586,26.449,1.02,1.02,0,0,1-.087.083,2.018,2.018,0,0,1-.232.215c-.884.712-1.74,1.449-2.6,2.186a2.106,2.106,0,0,1-.177.138q-1.274,1.1-2.477,2.195l-2.267,2.039c-.725.673-1.323,1.226-1.919,1.8-2.666,2.521-5.316,5.18-8.119,8.144-1.148,1.242-2.315,2.51-3.456,3.8-1.146,1.27-2.278,2.572-3.359,3.878-1.02,1.173-1.954,2.328-2.886,3.484-1.212,1.506-2.427,3.043-3.592,4.578q-1.409,1.846-2.758,3.713a38.238,38.238,0,0,1-25.1,15.58l-.918.136a200.355,200.355,0,0,1-28.5,2.027m-21.4-5.862a197.611,197.611,0,0,0,49.23-.822l.9-.131a33.514,33.514,0,0,0,21.981-13.685q1.384-1.914,2.824-3.8c1.187-1.566,2.429-3.139,3.671-4.684.971-1.2,1.943-2.4,2.967-3.577,1.086-1.312,2.259-2.664,3.433-3.968,1.15-1.3,2.34-2.588,3.527-3.876,2.884-3.049,5.6-5.768,8.307-8.335.6-.581,1.226-1.157,1.869-1.752l2.409-2.172c.856-.781,1.752-1.573,2.67-2.363a2.378,2.378,0,0,1,.223-.17c.882-.763,1.669-1.435,2.475-2.09a.211.211,0,0,0,.023-.021,16.227,16.227,0,0,0,4.731-11.5,16.411,16.411,0,0,0-2.765-9.1,1.992,1.992,0,0,1-.135-.23v0c-.005,0-.01,0-.016-.013l0,0a.674.674,0,0,1-.048-.068,16.415,16.415,0,0,0-24.851-2.4,1.638,1.638,0,0,1-.212.22l-1.162,1.256a113.194,113.194,0,0,0-21.391,33.247,55.1,55.1,0,0,1-29.86,30.16,198.346,198.346,0,0,1-30.8,9.878m108.178-49.79h0Z" transform="translate(0 -29.913)"/>
            <path id="Path_428" data-name="Path 428" d="M254.164,307.738a2.35,2.35,0,0,1-1.449-4.2,69,69,0,0,0,2.253-106.772,2.352,2.352,0,1,1,3.054-3.578,73.72,73.72,0,0,1,3.205,109.19A113.559,113.559,0,0,0,306.333,92.859a112.36,112.36,0,0,0-26.507-11.881c-.7-.216-1.394-.427-2.094-.59a112.233,112.233,0,0,0-29.212-4.2,2.351,2.351,0,0,1,.029-4.7h.03a116.775,116.775,0,0,1,30.33,4.348c.7.163,1.506.4,2.284.643a118.282,118.282,0,0,1,84.1,113.234c0,62.429-48.753,114.27-110.99,118.019-.049,0-.1,0-.143,0" transform="translate(-65.296 -18.96)"/>
            <path id="Path_429" data-name="Path 429" d="M189.224,292.928a11.75,11.75,0,0,1-3.084-.413l-27.324-7.461a2.35,2.35,0,0,1-1.683-1.811,222.591,222.591,0,0,0-21-59.836c-1.819-3.481-3.7-6.865-5.6-10.059-2.154-3.669-4.361-7.185-6.57-10.462a2.351,2.351,0,0,1,3.9-2.627c2.264,3.357,4.523,6.956,6.719,10.7,1.935,3.254,3.864,6.716,5.722,10.275a227.377,227.377,0,0,1,21.162,59.673l25.914,7.072a6.936,6.936,0,0,0,6.946-2l25.793-27.945-7.458-11.805a2.356,2.356,0,0,1-.029-2.464c3.262-5.453,6.365-11.219,9.224-17.134a224.122,224.122,0,0,0,11.99-30.266,2.352,2.352,0,0,1,4.487,1.409,229.188,229.188,0,0,1-12.244,30.9c-2.7,5.594-5.621,11.056-8.682,16.257l7.651,12.112a2.352,2.352,0,0,1-.259,2.849l-27.017,29.271a11.613,11.613,0,0,1-8.553,3.759" transform="translate(-32.77 -51.643)"/>
            <path id="Path_430" data-name="Path 430" d="M185.248,337.061c-6.227,0-12.073-3.977-15.122-10.4a2.351,2.351,0,1,1,4.248-2.016c2.395,5.043,6.916,8.091,11.673,7.685,6.664-.537,11.554-7.573,10.9-15.682-.574-7.137-5.251-12.891-11.12-13.681a2.352,2.352,0,1,1,.629-4.661c8.046,1.083,14.429,8.64,15.18,17.965.859,10.693-5.966,20-15.214,20.749-.392.029-.785.045-1.176.045" transform="translate(-45.06 -79.11)"/>
            <path id="Path_431" data-name="Path 431" d="M169.214,227.144a2.351,2.351,0,0,1-2.221-1.58c-2.958-8.5-3.341-27.18-3.357-27.972a2.352,2.352,0,1,1,4.7-.088c0,.186.384,18.721,3.1,26.516a2.349,2.349,0,0,1-1.449,2.992,2.315,2.315,0,0,1-.771.131" transform="translate(-43.399 -51.77)"/>
            <path id="Path_432" data-name="Path 432" d="M171.789,225.954a9.013,9.013,0,0,1-2.478-.345,2.351,2.351,0,0,1,1.281-4.523,4.365,4.365,0,1,0-1.04-7.95,2.351,2.351,0,1,1-2.411-4.036,9.068,9.068,0,1,1,4.647,16.854" transform="translate(-44.025 -55.117)"/>
            <path id="Path_433" data-name="Path 433" d="M238.395,293.113a2.351,2.351,0,0,1-2.234-1.621l-6.783-20.727a2.35,2.35,0,1,1,4.468-1.461l6.784,20.728a2.35,2.35,0,0,1-1.5,2.965,2.32,2.32,0,0,1-.73.117" transform="translate(-60.804 -70.994)"/>
            <path id="Path_434" data-name="Path 434" d="M191.824,304.732a2.35,2.35,0,0,1-1.442-.5c-.29-.227-7.141-5.644-8.809-13.557-1.024-4.87,1.373-7.536,3.959-8.406,3.262-1.1,7.193.427,8.569,3.334a2.351,2.351,0,1,1-4.248,2.016,2.544,2.544,0,0,0-2.82-.893c-.921.31-1.209,1.314-.858,2.981,1.306,6.2,7.044,10.773,7.1,10.819a2.352,2.352,0,0,1-1.453,4.2" transform="translate(-48.092 -74.769)"/>
          </g>
        </g>
      </g>
    </g>
  </g>
</svg>