<svg xmlns="http://www.w3.org/2000/svg" xmlns:xlink="http://www.w3.org/1999/xlink" width="300" height="300" viewBox="0 0 300 300">
  <defs>
    <clipPath id="clip-path">
      <rect id="Rectangle_308" data-name="Rectangle 308" width="282.158" height="300" fill="none"/>
    </clipPath>
    <clipPath id="clip-path-3">
      <rect id="Rectangle_302" data-name="Rectangle 302" width="46.527" height="42.601" fill="none"/>
    </clipPath>
    <clipPath id="clip-path-5">
      <rect id="Rectangle_304" data-name="Rectangle 304" width="182.838" height="234.758" fill="none"/>
    </clipPath>
    <clipPath id="clip-path-6">
      <rect id="Rectangle_305" data-name="Rectangle 305" width="222.445" height="204.818" fill="none"/>
    </clipPath>
    <clipPath id="clip-path-7">
      <rect id="Rectangle_306" data-name="Rectangle 306" width="43.781" height="15.745" fill="none"/>
    </clipPath>
  </defs>
  <g id="lead_image" data-name="lead image" transform="translate(-699 -377)">
    <rect id="Rectangle_351" data-name="Rectangle 351" width="300" height="300" transform="translate(699 377)" fill="none"/>
    <g id="icon" transform="translate(708 377)">
      <g id="Group_447" data-name="Group 447" clip-path="url(#clip-path)">
        <g id="Group_446" data-name="Group 446">
          <g id="Group_445" data-name="Group 445" clip-path="url(#clip-path)">
            <path id="Path_1559" data-name="Path 1559" d="M25.945,291.13c9.981,6.176,22.042,6.688,34.79,1.683C46.127,289.884,39.964,279,39.09,269.585c-1.142-12.292,5.628-23.607,16.465-27.513a24.672,24.672,0,0,1,18.622,1.083c41.181,19.181,87.833,16.861,124.793-6.2,36.1-22.528,57.295-61.074,58.145-105.758-1.1-74.324-54.968-115.559-107.859-123.416C101.231.633,36.315,19.921,11.335,97.727,6.379,124.068,22.492,147.14,41,156.338a2.475,2.475,0,0,1,.272.156q2.436,1.176,4.978,2.105a62.213,62.213,0,0,1-12.326-28.838,2.541,2.541,0,0,1,3.528-2.646c27.382,11.8,54.246-1.312,67.054-20.534a26.715,26.715,0,0,1,.163-9.064,60.162,60.162,0,0,1-15.154,1.991c-7.516,0-16.489-1.445-27.939-5.558A2.542,2.542,0,0,1,63.3,89.163c21.109,7.584,32.709,5.641,43.415,2.523a17.171,17.171,0,0,1,8.8-8.135c5.16-1.968,10.642-.881,15.242,2.728a65.669,65.669,0,0,1,21.534,2.835c23.052,6.682,34.945,25.231,35.348,55.134.007.581.012,1.078.027,1.48,0,.008,0,.014,0,.023.246.683.511,1.355.736,2.052,6.779,20.984,2.185,42.5-12.3,57.55-12.882,13.392-45.241,32.835-117.237,12.623-9.837-2.763-19.615-2.547-28.274.626-13.758,5.044-22.5,16.29-23.975,30.851-1.672,16.468,6.276,33.607,19.328,41.677" transform="translate(-1.315 -1.316)" fill="#fff"/>
            <path id="Path_1560" data-name="Path 1560" d="M215.386,155.908c-1.542-13.5-7.462-33.075-31.1-39.926a65.134,65.134,0,0,0-15.423-2.675c.294.423.585.852.863,1.3a107.442,107.442,0,0,1,7.9,14.839,57.732,57.732,0,0,1,37.761,26.46" transform="translate(-34.721 -23.298)" fill="#fff"/>
            <path id="Path_1561" data-name="Path 1561" d="M48.391,154.48c2.108,9.011,7.5,20.2,16.077,28.108.039.036.06.085.1.123s.068.041.095.073c1.27,1.452,2.486,2.753,3.632,3.977,5.655,6.044,10.121,10.821,10.726,22.724.141,2.783.865,4.444,2.15,4.938,2.714,1.045,8.076-2.036,9.046-3a4.29,4.29,0,0,1,4.585-.876c3.205,1.1,6.85,5.437,7.613,11.591.1.784.309,1.157.419,1.206.6.282,2.5-.345,4.075-1.291a43.365,43.365,0,0,1,5.2-8.423,2.542,2.542,0,0,1,3.926,3.23,39.072,39.072,0,0,0-4.441,7.16,2.308,2.308,0,0,0,.654,1.064,9.885,9.885,0,0,0,2-.708c2.643-1.112,7.56-3.189,11.441,1.381,1.637,1.924,4.579,4.143,7.539,4.143h.133a6.492,6.492,0,0,0,5.039-2.929c4.75-6.134,16.446-24.566,20.256-39.371,3.19-12.38,2.1-21.8-3.078-26.53a2.543,2.543,0,1,1,3.431-3.753c4.689,4.285,9.289,13.237,4.572,31.55-.121.469-.271.95-.406,1.426,9.378,9.488,12.444,25.248,11.5,38.183a52.071,52.071,0,0,0,6.4-5.608c13.16-13.678,17.318-33.292,11.124-52.461-5.913-18.3-19.755-31.579-37.467-36.258,1.382,5.616.821,10.437-3.463,13.224a2.542,2.542,0,1,1-2.773-4.26c5.1-3.319-1.466-16.391-7.871-26.775-3.879-6.29-9.5-8.961-14.659-7-4.867,1.858-9.3,8.284-7.724,18.029a2.484,2.484,0,0,1,.041,1.408,344.5,344.5,0,0,0-.284.732c-.02.031-.043.059-.063.09-.044.069-.087.132-.137.2a60.457,60.457,0,0,1-40.66,27,2.477,2.477,0,0,1,.261.178,2.543,2.543,0,0,1-.048,3.595c-7.183,7-6.81,13.891-6.687,16.155.016.3.027.536.027.708a2.542,2.542,0,0,1-5.084,0l-.02-.432c-.4-7.444,2.258-14.064,7.867-19.7a58.473,58.473,0,0,1-25.063-2.813m80.87-33.545a2.542,2.542,0,0,1,4.823,1.609c-2.786,8.361-3.068,12.06,5.521,15.014a2.541,2.541,0,1,1-1.653,4.806c-14.206-4.883-11.018-14.445-8.691-21.428M82.32,185.729c3.842-1.919,5.431-7.4,4.255-14.652a2.543,2.543,0,0,1,5.02-.814c1.55,9.565-1.066,17.047-7,20.014a2.542,2.542,0,0,1-2.274-4.548" transform="translate(-9.95 -22.351)" fill="#fff"/>
            <path id="Path_1562" data-name="Path 1562" d="M224.74,250.248c-31.517,19.666-69.778,24.811-106.107,15.047,34.186,22.9,77.261,26.012,115.57,7.555,43.949-21.175,69.059-64,67.17-114.564-.486-42.526-21.142-81.676-52.636-108.2,21.24,21.5,35.97,51.631,36.542,90.106-.887,46.52-22.953,86.6-60.539,110.061" transform="translate(-24.393 -10.298)" fill="#fff"/>
            <g id="Group_432" data-name="Group 432" transform="translate(134.138 90.009)" style="mix-blend-mode: multiply;isolation: isolate">
              <g id="Group_431" data-name="Group 431">
                <g id="Group_430" data-name="Group 430" clip-path="url(#clip-path-3)">
                  <path id="Path_1563" data-name="Path 1563" d="M215.386,155.908c-1.542-13.5-7.462-33.075-31.1-39.926a65.134,65.134,0,0,0-15.423-2.675c.294.423.585.852.863,1.3a107.442,107.442,0,0,1,7.9,14.839,57.732,57.732,0,0,1,37.761,26.46" transform="translate(-168.859 -113.307)" fill="#ed2f3c"/>
                </g>
              </g>
            </g>
            <g id="Group_435" data-name="Group 435" transform="translate(134.138 90.009)" style="mix-blend-mode: multiply;isolation: isolate">
              <g id="Group_434" data-name="Group 434">
                <g id="Group_433" data-name="Group 433" clip-path="url(#clip-path-3)">
                  <path id="Path_1564" data-name="Path 1564" d="M215.386,155.908c-1.542-13.5-7.462-33.075-31.1-39.926a65.134,65.134,0,0,0-15.423-2.675c.294.423.585.852.863,1.3a107.442,107.442,0,0,1,7.9,14.839,57.732,57.732,0,0,1,37.761,26.46" transform="translate(-168.859 -113.307)" fill="#ed2f3c"/>
                </g>
              </g>
            </g>
            <g id="Group_438" data-name="Group 438" transform="translate(94.24 39.783)" style="mix-blend-mode: multiply;isolation: isolate">
              <g id="Group_437" data-name="Group 437">
                <g id="Group_436" data-name="Group 436" clip-path="url(#clip-path-5)">
                  <path id="Path_1565" data-name="Path 1565" d="M285.279,140.188c-.887,46.52-22.952,86.6-60.539,110.061-31.517,19.666-69.778,24.811-106.107,15.047,34.186,22.9,77.261,26.012,115.57,7.555,43.948-21.175,69.058-64,67.169-114.564-.486-42.526-21.142-81.677-52.635-108.206,21.239,21.5,35.97,51.632,36.542,90.107" transform="translate(-118.633 -50.081)" fill="#ed2f3c"/>
                </g>
              </g>
            </g>
            <path id="Path_1566" data-name="Path 1566" d="M222.268,45.044c-27.185-16.252-59.837-23.291-90.93-21.525C70.494,26.976,38.17,73.507,29.035,94.438a67.483,67.483,0,0,0,3.272,13.079,29.219,29.219,0,0,0,7.806,11.546c4.235,3.735,9.606,6.081,15,7.59a68.667,68.667,0,0,0,8.365,1.743c2.78.414,5.581.619,8.369.964a64.688,64.688,0,0,0,11.562.866,57.457,57.457,0,0,0,23.829-20.18,26.717,26.717,0,0,1,.163-9.064,60.167,60.167,0,0,1-15.154,1.991c-7.516,0-16.49-1.444-27.94-5.557a2.543,2.543,0,0,1,1.718-4.786c21.109,7.583,32.709,5.64,43.415,2.522a17.171,17.171,0,0,1,8.8-8.135c5.16-1.968,10.642-.88,15.242,2.728a65.669,65.669,0,0,1,21.534,2.835c23.052,6.683,34.945,25.231,35.348,55.135.007.581.012,1.077.027,1.479,0,.009,0,.015,0,.023.246.684.511,1.355.736,2.053,6.779,20.984,2.185,42.5-12.3,57.55-5.469,5.686-14.47,12.454-28.5,16.823C101.934,245.5,53.437,220.5,33.639,233.1c-26,16.545-14.865,60.339,26,62.244.086,0,.195,0,.288,0a25.468,25.468,0,0,1-18.111-22.291c-1.142-12.293,5.628-23.608,16.465-27.513A24.676,24.676,0,0,1,76.9,246.621c41.181,19.182,87.832,16.861,124.793-6.2,36.1-22.528,57.295-61.075,58.145-105.758-.579-39-15.7-68.878-37.573-89.616" transform="translate(-4.04 -4.781)" fill="#ed2f3c"/>
            <path id="Path_1567" data-name="Path 1567" d="M68.518,182.375a26.174,26.174,0,0,1,7.243-12.645,58.719,58.719,0,0,1-16.149-.543,89.15,89.15,0,0,0,8.906,13.188" transform="translate(-12.257 -34.788)" fill="#fbeade"/>
            <path id="Path_1568" data-name="Path 1568" d="M197.951,170.4c-5.913-18.3-19.755-31.58-37.467-36.258,1.381,5.616.821,10.436-3.464,13.223a2.541,2.541,0,1,1-2.772-4.259c5.1-3.319-1.466-16.391-7.871-26.775-3.879-6.291-9.5-8.961-14.66-7-4.867,1.858-9.3,8.283-7.724,18.029a2.226,2.226,0,0,1-.079,1.721,2.442,2.442,0,0,1-.163.419c-.02.031-.043.059-.063.09-.043.069-.087.132-.137.2a60.459,60.459,0,0,1-40.66,27,2.5,2.5,0,0,1,.26.177,2.542,2.542,0,0,1-.047,3.595c-6.071,5.917-6.742,11.746-6.731,14.778,4.253,5.118,7.948,9.536,9.371,13.273a93.9,93.9,0,0,1,4.045,15.557,2.159,2.159,0,0,0,3.068,1.574c2.324-1.131,5.716-2.472,8-2.015,3.647.729,9.054,9.537,14.862,12.87,1.154-1.747,2.068-2.883,2.138-2.97a2.542,2.542,0,0,1,3.926,3.229c-.008.011-.264.334-.644.849,4.71-.5,9.4-3.765,12.217-2.641,3.779,1.511,6.424,10.958,18.14.755.056-.05.109-.089.165-.137,4.916-8.195,10.365-18.847,12.743-28.087,3.19-12.38,2.1-21.8-3.078-26.529a2.543,2.543,0,1,1,3.431-3.753c4.689,4.285,9.289,13.236,4.572,31.549-.121.47-.271.951-.406,1.426,9.378,9.489,12.444,25.249,11.5,38.184a52.206,52.206,0,0,0,6.4-5.608c13.159-13.678,17.317-33.292,11.124-52.461m-107.6,19.874a2.542,2.542,0,1,1-2.274-4.547c3.842-1.919,5.431-7.4,4.255-14.652a2.543,2.543,0,0,1,5.02-.814c1.55,9.564-1.067,17.047-7,20.013m56.589-49.489a2.54,2.54,0,0,1-3.231,1.576c-14.206-4.883-11.018-14.445-8.691-21.428a2.542,2.542,0,0,1,4.823,1.609c-2.787,8.36-3.068,12.059,5.521,15.013a2.541,2.541,0,0,1,1.578,3.23" transform="translate(-15.704 -22.351)" fill="#ccc"/>
            <path id="Path_1569" data-name="Path 1569" d="M153.306,122.08s-6.516,10.936-2.052,14.763a53.235,53.235,0,0,0,10.758,6.7Z" transform="translate(-30.779 -25.102)" fill="#f3cfbb"/>
            <path id="Path_1570" data-name="Path 1570" d="M217.916,176.988c-5.913-18.3-19.755-31.58-37.467-36.258,1.382,5.616.821,10.436-3.463,13.223a2.54,2.54,0,0,1-3.518-.744s4.093,4.8,8.066,10.559a2.514,2.514,0,0,1,3.192.13c4.689,4.285,9.289,13.236,4.572,31.549-.121.47-.271.951-.406,1.426,9.378,9.489,12.444,25.249,11.5,38.184a52.2,52.2,0,0,0,6.4-5.608c13.16-13.678,17.318-33.292,11.124-52.461" transform="translate(-35.668 -28.937)" fill="#999"/>
            <g id="Group_441" data-name="Group 441" transform="translate(33.356 66.091)" style="mix-blend-mode: multiply;isolation: isolate">
              <g id="Group_440" data-name="Group 440">
                <g id="Group_439" data-name="Group 439" clip-path="url(#clip-path-6)">
                  <path id="Path_1571" data-name="Path 1571" d="M247.392,83.2c17.054,44.565,8.222,102.5-20.706,141.951C191.609,272.98,108.7,262.776,92.119,255.761s-31.887-8.291-42.092-.638c-7.76,5.82-11.817,18.282-3.224,32.893a26.556,26.556,0,0,1-.394-2.64c-1.142-12.292,5.627-23.607,16.464-27.513A24.676,24.676,0,0,1,81.5,258.947c41.181,19.182,87.833,16.861,124.794-6.2,36.1-22.529,57.294-61.075,58.145-105.759-.372-25.029-6.754-46.278-17.043-63.786" transform="translate(-41.99 -83.198)" fill="#ed2f3c"/>
                </g>
              </g>
            </g>
            <g id="Group_444" data-name="Group 444" transform="translate(59.579 92.217)" style="mix-blend-mode: multiply;isolation: isolate">
              <g id="Group_443" data-name="Group 443">
                <g id="Group_442" data-name="Group 442" clip-path="url(#clip-path-7)">
                  <path id="Path_1572" data-name="Path 1572" d="M118.781,120.071a60.166,60.166,0,0,1-15.154,1.991c-7.517,0-16.49-1.445-27.94-5.558a2.51,2.51,0,0,1-.688-.416c4.366,10.348,23.044,14.316,41.685,15.745.672-.886,1.323-1.782,1.934-2.7a26.716,26.716,0,0,1,.163-9.064" transform="translate(-75 -116.087)" fill="#ed2f3c"/>
                </g>
              </g>
            </g>
            <path id="Path_1573" data-name="Path 1573" d="M42.722,300a38.946,38.946,0,0,1-20.765-5.861C7.311,285.083-1.617,265.956.244,247.626c1.683-16.575,11.627-29.371,27.283-35.111,9.668-3.548,20.524-3.8,31.4-.75,69.441,19.492,100.1,1.318,112.2-11.253,13.159-13.678,17.317-33.292,11.124-52.461-6.37-19.713-21.934-33.619-41.634-37.2a2.541,2.541,0,1,1,.909-5c21.576,3.919,38.608,19.112,45.561,40.637,6.779,20.984,2.185,42.5-12.3,57.55C161.907,217.43,129.547,236.872,57.55,216.66c-9.837-2.763-19.615-2.547-28.274.626C15.52,222.33,6.782,233.576,5.3,248.137c-1.671,16.468,6.277,33.607,19.328,41.677,9.982,6.176,22.042,6.688,34.79,1.683-14.608-2.93-20.77-13.815-21.644-23.228-1.142-12.293,5.628-23.608,16.465-27.513a24.672,24.672,0,0,1,18.622,1.082c41.181,19.182,87.833,16.861,124.793-6.2,36.1-22.528,57.295-61.075,58.146-105.759C254.7,55.554,200.833,14.319,147.943,6.461,99.916-.682,35,18.606,10.019,96.412c-4.955,26.341,11.157,49.412,29.67,58.609a2.709,2.709,0,0,1,.273.156,53.872,53.872,0,0,0,4.978,2.105,62.2,62.2,0,0,1-12.326-28.838,2.54,2.54,0,0,1,3.527-2.646c27.784,11.971,55.047-1.7,67.622-21.381a2.541,2.541,0,1,1,4.284,2.735c-15.162,23.73-43.842,33.783-69.607,24.976,2.107,9.011,7.5,20.2,16.076,28.108a2.542,2.542,0,0,1-2.212,4.364,60.163,60.163,0,0,1-14.864-5,2.7,2.7,0,0,1-.31-.181C13.684,147.609.2,120.7,5.054,95.307a2.637,2.637,0,0,1,.075-.3C31.048,14.048,98.656-6,148.69,1.432c53.235,7.909,111.051,51.481,112.2,128.458-.887,46.521-22.953,86.6-60.539,110.061-38.426,23.978-86.881,26.411-129.631,6.5a19.557,19.557,0,0,0-14.752-.909c-8.657,3.12-14.054,12.276-13.127,22.263.935,10.054,7.873,17.109,18.573,18.894l.342.015c2.878.137,4.332.2,9.714-1.358a2.542,2.542,0,0,1,2.069,4.588C62.967,296.629,52.489,300,42.722,300" transform="translate(0 0)"/>
            <path id="Path_1574" data-name="Path 1574" d="M178.44,279.651a120.169,120.169,0,0,1-78.691-29.526,2.541,2.541,0,1,1,3.314-3.853c35.641,30.642,84.331,36.883,127.075,16.29,43.948-21.175,69.058-64,67.169-114.564C296.436,71.811,230.868,6.414,154.123,5.131a2.542,2.542,0,0,1,.041-5.084h.044C192.6.69,229.287,16.374,257.5,44.214c28.5,28.116,44.443,64.93,44.885,103.661,1.937,51.79-24.9,97.516-70.044,119.267a123.993,123.993,0,0,1-53.906,12.509" transform="translate(-20.328 -0.01)"/>
            <path id="Path_1575" data-name="Path 1575" d="M216.429,169a2.541,2.541,0,0,1-2.537-2.463c-.014-.424-.022-.953-.029-1.569-.137-10.215-.556-41.3-31.678-50.318a59.538,59.538,0,0,0-20.813-2.629,2.585,2.585,0,0,1-2.709-2.366,2.543,2.543,0,0,1,2.363-2.708,65.01,65.01,0,0,1,22.574,2.818c23.052,6.682,34.945,25.231,35.348,55.135.007.581.012,1.077.027,1.479A2.543,2.543,0,0,1,216.511,169c-.027,0-.055,0-.082,0" transform="translate(-32.623 -21.966)"/>
            <path id="Path_1576" data-name="Path 1576" d="M103.37,120.892c-7.516,0-16.49-1.445-27.94-5.558a2.543,2.543,0,0,1,1.718-4.786c21.746,7.813,33.4,5.519,44.384,2.242a2.541,2.541,0,0,1,1.454,4.87,65.643,65.643,0,0,1-19.617,3.232" transform="translate(-15.164 -22.7)"/>
            <path id="Path_1577" data-name="Path 1577" d="M136.287,247.392c-3.994,0-8.242-2.2-11.415-5.936-1.266-1.482-2.447-1.313-5.594.015a10.446,10.446,0,0,1-3.951,1.1,5.393,5.393,0,0,1-4.658-2.756c-1.964.874-4.606,1.576-6.86.571-1.322-.593-2.982-1.979-3.384-5.221-.544-4.379-2.958-6.822-4.022-7.333-2.189,1.8-8.858,5.722-14,3.741-2.292-.881-5.088-3.23-5.4-9.423-.512-10.047-3.843-13.609-9.362-19.51-1.183-1.263-2.436-2.606-3.747-4.1a2.542,2.542,0,1,1,3.828-3.347c1.269,1.452,2.486,2.753,3.632,3.977,5.654,6.044,10.12,10.82,10.725,22.724.141,2.783.865,4.443,2.151,4.937,2.714,1.045,8.076-2.035,9.046-3a4.29,4.29,0,0,1,4.585-.876c3.206,1.1,6.851,5.436,7.613,11.59.1.785.31,1.157.42,1.207.676.315,2.969-.5,4.623-1.638a2.546,2.546,0,0,1,3.943,1.653,3.193,3.193,0,0,0,.85,1.725,9.889,9.889,0,0,0,2-.708c2.642-1.112,7.56-3.19,11.441,1.38,1.637,1.924,4.579,4.144,7.539,4.144h.134a6.491,6.491,0,0,0,5.038-2.929c4.75-6.134,16.446-24.566,20.257-39.371,3.19-12.38,2.1-21.8-3.078-26.53a2.543,2.543,0,1,1,3.431-3.753c4.689,4.285,9.289,13.236,4.572,31.549-4.049,15.722-16.005,34.558-21.162,41.218-3.056,3.95-6.549,4.843-8.941,4.9-.082,0-.165,0-.247,0" transform="translate(-13.007 -34.762)"/>
            <path id="Path_1578" data-name="Path 1578" d="M72.59,192.259a2.541,2.541,0,0,1-2.542-2.542l-.02-.432c-.411-7.606,2.354-14.358,8.217-20.07a2.541,2.541,0,1,1,3.547,3.639c-7.183,7-6.81,13.891-6.687,16.155.016.3.027.536.027.708a2.541,2.541,0,0,1-2.542,2.542" transform="translate(-14.391 -34.645)"/>
            <path id="Path_1579" data-name="Path 1579" d="M91.877,205.927a2.542,2.542,0,0,1-1.139-4.816c3.842-1.919,5.431-7.4,4.255-14.651a2.543,2.543,0,1,1,5.02-.814c1.55,9.564-1.067,17.047-7,20.013a2.537,2.537,0,0,1-1.134.268" transform="translate(-18.368 -37.733)"/>
            <path id="Path_1580" data-name="Path 1580" d="M123.9,253.258a2.51,2.51,0,0,1-1-.206,2.541,2.541,0,0,1-1.335-3.336,42.434,42.434,0,0,1,5.55-9.17,2.542,2.542,0,0,1,3.926,3.23,37.907,37.907,0,0,0-4.8,7.941,2.538,2.538,0,0,1-2.337,1.542" transform="translate(-24.953 -49.271)"/>
            <path id="Path_1581" data-name="Path 1581" d="M199.84,256.939a2.544,2.544,0,0,1-2.5-2.986c2.331-13.145-.419-31.172-10.188-40.2a2.542,2.542,0,0,1,3.451-3.734c11.625,10.737,14.236,30.76,11.742,44.817a2.543,2.543,0,0,1-2.5,2.1" transform="translate(-38.313 -43.046)"/>
            <path id="Path_1582" data-name="Path 1582" d="M159.183,145.219a2.535,2.535,0,0,1-.827-.139c-14.205-4.883-11.018-14.445-8.69-21.428a2.542,2.542,0,0,1,4.823,1.609c-2.787,8.361-3.069,12.059,5.521,15.014a2.541,2.541,0,0,1-.827,4.945" transform="translate(-30.355 -25.068)"/>
            <path id="Path_1583" data-name="Path 1583" d="M166.56,146.465a2.541,2.541,0,0,1-1.389-4.672c5.1-3.319-1.466-16.391-7.871-26.775-3.879-6.291-9.5-8.961-14.66-7-4.941,1.887-9.445,8.472-7.66,18.469a2.542,2.542,0,1,1-5,.894c-2.294-12.844,4.017-21.5,10.852-24.111,7.479-2.853,15.639.709,20.8,9.075,7.748,12.566,15.469,27.752,6.316,33.706a2.535,2.535,0,0,1-1.384.412" transform="translate(-26.627 -21.035)"/>
            <path id="Path_1584" data-name="Path 1584" d="M173.524,33.534S72.794,5.994,41.99,124.763c0,0,20.8-68.585,112.116-52.345s79.544,125.024,27.08,147.8c-4.692,2.037-15.566,7.255-18.857,7.942a60.366,60.366,0,0,1-7.106,1c29.6,1.156,79.65-7.4,92.276-75.252,18.237-98-73.976-120.38-73.976-120.38" transform="translate(-8.634 -6.327)" fill="#ccc"/>
            <path id="Path_1585" data-name="Path 1585" d="M41.99,142.306S69.5,156.175,105.035,131.4c0,0-37.824,13.229-51.087-15.308Z" transform="translate(-8.634 -23.87)" fill="#ccc"/>
            <path id="Path_1586" data-name="Path 1586" d="M40.918,127.63s-6.279-4.02-3.377-15.089,18.529-43.1,54.514-63.563S66.145,88.3,66.145,88.3s-18.658,12.411-14.1,32.684c0,0,5.1,5.032-11.128,6.643" transform="translate(-7.562 -9.193)" fill="#ccc"/>
            <path id="Path_1587" data-name="Path 1587" d="M37.52,127.282S13.61,105.27,59.2,55.12c0,0-28.03,28.5-21.681,72.162" transform="translate(-6.426 -11.334)" fill="#ccc"/>
            <path id="Path_1588" data-name="Path 1588" d="M58.378,55.12S25.325,76.251,27.346,105.788s21.759,25.7,21.759,25.7l6.751-10.777S33.77,77.657,58.378,55.12" transform="translate(-5.605 -11.334)" fill="#ccc"/>
            <path id="Path_1589" data-name="Path 1589" d="M41.99,91.792S45.8,15.553,170.066,20.112c0,0-77.573-3.3-119.848,73.992,0,0-6.508,15.074-8.227-2.312" transform="translate(-8.634 -4.095)" fill="#ccc"/>
            <path id="Path_1590" data-name="Path 1590" d="M31.922,135.36s7.613,19.748,56.111,15.312c0,0-29.227,2.741-39.908-16.5s-16.2,1.186-16.2,1.186" transform="translate(-6.564 -25.892)" fill="#ccc"/>
            <path id="Path_1591" data-name="Path 1591" d="M289.2,74.493s29.5,39.461,18.314,95.342-51.8,83.65-68.381,90.7c0,0,79.08-15.132,82.478-90.7,2.9-64.509-32.411-95.342-32.411-95.342" transform="translate(-49.17 -15.317)" fill="#999"/>
          </g>
        </g>
      </g>
    </g>
  </g>
</svg>